<mxfile host="app.diagrams.net" modified="2020-10-19T02:09:24.301Z" agent="5.0 (Windows NT 10.0; Win64; x64) AppleWebKit/537.36 (KHTML, like Gecko) Chrome/86.0.4240.75 Safari/537.36" etag="tpDzZOb4djQKnwsKtFQK" version="13.8.0" type="github">
  <diagram id="wOrr1LWCa4OsCao4W12d" name="Page-1">
    <mxGraphModel dx="1038" dy="548" grid="1" gridSize="10" guides="1" tooltips="1" connect="1" arrows="1" fold="1" page="1" pageScale="1" pageWidth="827" pageHeight="1169" math="0" shadow="0">
      <root>
        <mxCell id="0" />
        <mxCell id="1" parent="0" />
        <mxCell id="0KBhAS2ODoQ1BvLWssxc-1" value="" style="rounded=0;whiteSpace=wrap;html=1;fillColor=#FF00FF;" parent="1" vertex="1">
          <mxGeometry x="600" y="410" width="330" height="175" as="geometry" />
        </mxCell>
        <mxCell id="0KBhAS2ODoQ1BvLWssxc-2" value="" style="shape=image;verticalLabelPosition=bottom;labelBackgroundColor=#ffffff;verticalAlign=top;aspect=fixed;imageAspect=0;image=data:image/png,iVBORw0KGgoAAAANSUhEUgAAAScAAAFMCAYAAACJaXrYAAAAAXNSR0IArs4c6QAAAARnQU1BAACxjwv8YQUAAAAJcEhZcwAAEnQAABJ0Ad5mH3gAAP+lSURBVHhe7P15k2RHluWJXdsX32PfAzsSicyqrOzqlYvMtIwIW8i/h/w0JdLfiSIjQ6EI2cJhT3d1M7srqxJAYgcCsYeH7+62m/H8zn3PzCKArMoaeCfgCL/uam/Tp+u9R+9V1adaGQwGszinczqnc/qRUbU4ntM5ndM5/ajoHJzO6ZzO6UdJ5+B0Tud0Tj9KOgenczqnc/pR0jk4ndM5ndOPks7B6ZzO6Zx+lHQOTud0Tuf0o6RzcDqnczqnHyWdg9M5ndM5/SjpHJzO6ZzO6UdJ55+vnDrNoiLHkTMVccwqxZHHxT1TUfKLJ/lGzMowIqaVWkyj5jCqs2lU5Kq6U5HLADKsWXE3Ktne8LSicKp+QngTv0s4Dt1HqLjm3fm1D+WPSHf0X8YELb+dtAiB9H8nuRySyreXiXsV/r7j9RduLb32B2KaE16reLJH/SgNpDmTqDQvlQOUXrmna6c3z33f9aLyr5Rl/zItJaygMnQo87V0LecQl8rlnBZ0Dk6nTDAvQAA0zQQUydgFRHA9AzySGc3sYswXfHHPIGS2jVGlGeMaABVR1091KqiajQRXYwVgCNJ/NSYKdzCZRavTsd/RRLcn42jVFT7CNBnI/0g3a3oqILNQpps6nUX6inuEWzJGkdriie46baUr01o8m/v9NpV3F0+LN5YAAgGuzACQFyn9FceC/r57Jl3UFVaNGyo3u1phLIzHeqyUNJvyJ4+8SDlPpjGe6kLlVNE1xcWjkYp7KFeLUbQa5IA6LokIy0gXkeeZjgRX+HY5+TSfT1TmWf7le+dU0rlZd+oE58FqefQd8d0LGgvXvl/6gjGtMxRn+T5CD/4MhSljHfFbq1YlQ3XVnKpO7yNYMwnadDLxffwgWzhCcYgIn4VTiGXoAkCLOBxf+l12U14rnM+XnvG/TFzyJM8LXwCWQTZdGcLiCJXHBREWTIm2g0uwyvvL55CPS9c6XVxAOqcBCJWNC4TyEhDkUSXDCzwDqAo/1Wot6pSv/E0E9sOhgEnlT6KaLVzDQc+J+BynY18i31yk3Y4yKY48dBlxck7fReea06kTgp/CWAISnJ160TKb4kV3LCQ8TV9+YoHGx0ztdD3GFYRFGoBerSts9KjKTC23wGYqf1MJFeZftS7pkWYwRt4ERhh67bpa/+lIwjfU+0qXhA+BzZjSZcutUJ3e727F575JW3ku9yLxPI/Qcihzn/Myse/5eekbzbEmNxfa4nF56aPufdd1eb5MVWW5AugIZSsqG8objxOVHf7TrMsy5LoqbWluGhdlS6BV3q0C9TKNVZ5lAvOXMMuIdeRUDxZ3dEGelq4TpAB+yt8+zuklOgenUyeK8+UihQ2TNRcsKmGQN/G7yPqNAcrvWtPIU/dHqCWXSOgaps5jaRIi7LxMuLT6AOJI6DTB/NN5o6F3rVmNpRHoWkI2HY8cn4FIfoAx3n/ZrEtSfKIUqJeBCYEGAtFG9G+v6f/vI4eveDOe4rqgutJdL8FZt18OzddL95evy/NlShNRcbm8lFZ5AnTcKFBevEVaFOeYctE55VblucKy1ifHcxoeyshaq4nIiggVD2XpUzk/mQNWpq68KoGXaz+ZI/E5LdM5OJ0yZWEumHIhgjClWbFgSp1zWTC0gcZP3Db7nr3rVk2gMtHFRPIxEcNPDCZqyQU0bujlx/xtbWlmIUOYqgK1er1hsBrp5ZrO2/gfDaRJEEuCU5lKu3k6FuQn87QXAIWA686EDnucrvKtTPsfptJXGQehLagujRCAIh8vh+RrvbZ8/+V75fWclB9AaYJmpKOBW54oi5osNPqRwBsVpctb0cuNpUfOoq5Cbci2BH5nk1FMxkPltR7VRktPAahFHpaPpMGlMQcnqExh8YyjPQJ6nCyen1PSOTidMlngLfRqYAUAiF4eS4dgp2bk/hAkA4CwQyQ8ruajBX6m1lxmREWt9aTairEkSvITQznMN7pKJgKeuvx0Zf21AB9JGA7pw9Trj2Ue0nFUr0RX0dVHI5lOmDXEA2V8uLxcEiqD0EtuCagmlYbMzobOEFZC+vvpH2K2msoGgMo4XiIFvnx3fv5d94uEuFylnrqTu1qPgQptPBWotyj3iJ19aZU6WenWolt2J+EVMFeZKnfRqAgwhSQVOUFWDKfUkwp6ThkZJTKPWEc0p0VaivvLCRUBfNT4tx6c0zk4nTbRI5Qgk+Bko0fCBhggzIIS+0pe1E8BTtY+CodmlCwrIZoN5QROUpFGtU709daJgtjrReweDONwfzeOD/djtT6Jn929EVtCqLZAqC6hAjhC4DSQMFLLE8lTV++3RhK2GaNVUArU4rykvANlanRtoIJSm+DeyODU1FWC0/clygmAAuJfpvLOC0+UoG/7LO7pGRA8Ueoo/VqjrbIQsOuhijlOpDV9/NmjODzpR6fdjq2tzVhf6cTWispJz5sKoq6yr04G0RRAVaVFzWaNGKggU3MqqSy3PKZmlAlziQGQfrJExQ3yKeiU+5aPV57OwemUSe3+XFD5lb4jYRsboNxC6mhwKplR4ASYGZTUstP5rTfwKXDR+/LKtAGmBhxM6rEjdNo+HscTodP2zl4c7G5H73A3rqxU47/7y5/HzQsrsSHbrRWjGM0Udq1pzaan6EYKr6NjS+pWw+CEECUtn0MLYeGJ3BIw+bpwY+V3ojTTqb6g0ie0HG4ZBrR0Pg87413E9W1ymC89LFP6MnEfWMJNBBDVxkr0dbOvMpXyE9uHEf/h//dBPNrei7rAf319PS5ubcTNy1txebMbm+0EKcoKDQrApzZogJyIIuKX0+rruUmXJfXt86TUj+GNP5SLV5fOwemUqQQnChUWRnsCXNB+EpgKgEoO1hFgkoADTFWApC5YUTh6jijQJcHg0P5xPx7sD+PeTi/u75zEw91e7B+exKR/ELPhSdzdbMS/+Ze/iHdubMTllUZIR5D5IrZXmNNaK6RoWetqKeqOTSdC//uoFKNlsOBIzvKac4AUYF3WJJKh9HSuMeC7eEdhleeL8DIsQCr9lu5Fsk/dzjf+SJLGA4Sim4TA6VhlcqIyHalyHj6P+H/8u7+Orx5uu5O8Je1pY6Ub1y9txq0rF+LmxbW4stER2FejrVaiLi2WjvJ61TOnlJciCqdoKU/zBNpX4XhCGeG7vOYKboEv/lG5eiXoHJxOmeaak/gv5+roSkCA9lRx52cBThDCK8G2aSRwyqMER4+AjpHeHwhR9nYH8XT3KD5/cih3EN88P4rtI5ltCq5Tm0S3Po03turx3//qjfjVG1fi2mpd5lvPz62VCZz6ShPg1NC9tlKI+bSgl1kgxccjXKUo6cfHl8AFgfMVeSmCyevSVz7jzHfK9x12mobzZ3IGO2Bd7yyTgy6T+eKjv5eqAqdadRJjvTupr8ShCvZAKmlPYXz1OOJ/+n//r/GFUIo+qSp9dEKWtVYjrmytx91rW/H69UvSpDZl6lWjU1fZKWkcsx8xk+I8kB/fy3yQ43kyne4ip5QT58U9Wh/uLDJ3TiWdg9Mpk8FJ5pTn8alkp7LHZpNBNHRRb+mmfMyGfY+eNTtdCaNAY1bLfiGdj8X8ANTJMOJQ6s7Dx4fxN7/9MPYw5Y5n8XxYi5NJI4a1jkfjmtNeNCYncaM9jH/5ztX4P/3z9+Jyexqrs6OoMcO53oxebxBDGXqzZiOa4KYBcxmcEJNkg/I4mzK0LnPUkz6rElrmCOm+pIqRwDxa3CT8KYYIHG/T9+xQ9AITQxmyxwu+mJuFY0JoCU5+wJEwVX4jaY90Xlfn4RZzuXgP74Bd4f4hqpZ9dq22wkWDrMaeAOqhTLr/8vun8ZuPvrIWOiDoKuCkNKtsaFA6lXFsdmo289557Va8fvNS3NiKWG8p3Enmva40Mv+MMp0xFUHvegpHXWWmsmMax0xpz/RS+Lqn/Hj0kALjfpHPc3qRzsHplAnh8lwYCM3FM4+HaiARdFpnMS1zjaTRDAVQU0w5Orv1CiNwmBzPDyLuPdyPrx8+iYdP9rLje1CJXQHTwaQVg0rTWgCg0ZoJnMbHca3Zi1/fWY9/88/ei9cv1GOzgq4kEGpIExkLaKIhDUpAITmYSYBKEEpyW14ci2t5RLho/+0T4NAJ8AEZGAAshYVQeuqP841/mZOACaDCOzoSLmDDU3QtC7TtHwpJrgAs+scYlZynkHgdKv4FlIClI5N3Aeg/RDbFppi40kJr3Rg3OrGrqL54FvEf/u7L+O3nj+PZyUxaKh+mNAymNaWrMhlFXY0KfXeb3WZcu7gRVzZX47XL7Xjrxmpcv7gS3XaR9GGC/Upb75N7vcsDgIuZ+0zx0A05Z9rlyOgr5YXpy9SGc/o2nYPTaZNafcBnKIb1JyVi0LquYVZmJSOsjLzNJASMHM2kJABKR+JnWWvxZG8Y95/uCJyexIMn27ErO2RWW42etKXjaUPmSNt9U9O6NCcxdmvWt+Z0sXIYbwuU/vWv34pfvbYZVyU4jDK5e72BxqY4Z3S9CjAkfFnp+ZswkACSxDmCBAgsWnnSjnABEmhDCBjaD/OCMGvKOVLLxo2FkSMSqTLgCtDMXiqO3CuElzikMU2kwWCGUX7WLhxtgmVNcZcaFVMooLz6NnGfTmymY5yc9GPcXItZuxvbKusP7g3j//NfPo6PH+7F/rgpCJKGOUHjbXqiqrXLsXTZYqRutVmL1VY1bmxU4m2B0+1rm3Ht8qVYX6mHMEl+ZPKh8ClJFaUbsGoKgZ17EIzyMWCn1mngLybNAk4uo3N6gWp/9Vd/9W+L83M6BUKIaNnHI4EKKn69FnUxdlVqPqNa2UKnpjQRMzOKtnMS8c2zSXzy9bP44PP78enXj+PB9kHsnYyjN5WmFN3oRydGavknAqWZ3LTWVGQSJsWJJtJgyFvCtCrT8QpD4h0JhszL6WgYDZlzBgZpbyWIlINJCM9CNBIITPJQaj42qbiFb7f2CSuMJvpNaYGYp3x8PNZ7Y+VReqJHyHD+Ns/n+a7H8X0k5Quwk9qizKhQAG/5J3U2hwQWpWlJjAi3QSu9+PAy+Z681NzxV1Fjobw3VlR2NU/D+OLBXnz89aPYOZ7EsNoRILZjOJVJLq1tytQIaXAz1Rdm+ngqLVeZ6I9m0e8fx+GhtNn9fZneamzkv9Fqqo5VToqKuWfE63QrETROac7p6HS5FEmd/AmouCryek4v0jk4nTKZ+RAcsbXNGDmG2eFZKVMxFCPSpzSUA5ie7Ed8/vAkPvziodz9+Oz+s3i634/+RJpJcyWqrTVpWBISwKjWkKBimsHIxCPwEygBDXWZLrMRPSrjuHxpKzbXG9FoKDWSmJZMu8DUwBXpSYFIkXhRLIo7CBN9VmhIxElnsTSwioRbGTPgAFgAlJIXI/kfAQIKe6D3e3p4ROfzIOdkHUk99MRR+We+FRNCJbnWID1SaR3Heo7DRtMgHZQhWoY1DcVhDU5mkrWPIg/Q4qw4L+TfIKF3hwLOSrujtEU83I346IsH8cXD7ThWZYwFTJQvGltFaclXARWKi7hrAkc1MDqOx8PYPzyI7f3D2DsaRE8q3ngmIFMYAD7vMqNfAVnj5FikyM8SiBOssPYoQwPzOX2Lzs260yaZbpPxKFpqTQETOr6PB5PojSRQ9XZUZBqIl23GqeGOLx8+i0++eiRTbjf2eyP3t1SaaskFM8xtGk3RQBoSWPqyMILQUCTkYnyAELMN15mdRGfaiwvNcfz3//Tn8c9/fjVub8ncUDwrVQU0PPGEwmjQMZzhQAbTQhwL8fEdCxHAoVvImAWvcIAHFhX9ONaeJFuMLnLNF/w9odDRsUDpoB97+wdxoAvk9dLFC7G60okL683YWAtpeTnRUY8cHrMbUHQalSG51A09kxCXwGRQBrTs9FLxrv35anFd0hxEBT7MbXqqdP3NZ9vx//2bT+Lj+7txUl2JvszmqbTSWX3F2p/BT5nOjvFpDmYoPR7hnCoAuVZd2mqFD6uVr/VOvHnzarz/9t24e63p+VFe3kZlIaVZ70prVeb8UbPAtllXXep8IvMP7ZQG45y+TefgdMoEE7ICQF0aBoAyFrPrStpFmnK7MuGeHciMe3okM+5RPNo5jEfP1Qr36AyuR629Ku1EACI5GMg09DdxDbXMiJ2EM00ayYd+kFU6b/m0go7bVkW6x+gw/vLdu/EvfvlWvH8nYkvC0xJqNEbHFvqQScjkTA/Xk16H/CILcMc9QbptABIiedY7fSi8Jscz3JHSiVkqJSIOJbeHhyexLzA6ODoxKB0dn8RJr28tZ0uItNJpS6tbia311dha68bGaiPWuwLQTrjvRnIdTYXL1AsymvnVDedXQGUnsJI/QMRircccy/NlGsmvDF4BfjWUTJlzg/jPH30Vv/n91/H4YBTD+nr0q11Kz6adQRs0E+UcNT5U0VGNDnVLp5KqSb50Tp+UNNaV2jQur7Xi9RuX4q1bV+LWpfW4utmIiys59aBG8snOeOz6ApxUkko/fWqKTPfO6dt0Dk6nTDAtPS4IjkFApsK00dFRwCRs+OJBPz6598Rzax7uHMV+f2Ytqu/+DoFQTUJCX4fepcvY82AqjF2hSZRAklUGOMHkHPm6rSHBmfUP4/WrG/FP3ns9/vKdC3FnM6Ij00P6QTQrsq8qTWljtOUy18pwimNJGQsARv+RZJB8KBIdrIl45Et5GUjg0ES+eHYceyej2Nnbl6Z0GIcCphN5GMrjWOCKeYNy0JJZ2KxXo9NqxGpH2tNKW1rUSly+sBlXLq4JvCIuSpVaFch2qipHzErSIgFmEbg05XK0DqBiukMJSBzL82Xqy0wbYEYJJJ4KnT749FH8FwHTp/efxyFTMqQt0Z/H93IjzDPl21qa/jDwDE6K3zP85cZok/WGGo6+v71rC5i6FR3VBK3UxnFL+bh7ddOa1Bs3tmJLwKuszgEKk7+hwqDO0M6Y88bcqm8l/JzOwem0yd3dMqOmEz4fkeYkk6yvVnlPIPTl47346Ksn8ZkE49Fez/OVTgQUQ1a7lDk3Y1qBRGIoWwqxqEoIGhLSkLnGfB33MQmkLIhFa4t4ToUYXFtbG5zIrKjE+2/cin/187vx85v12NCzrfowWrNjCQTQ2XT4JX0nOAkEADBiUwoMUrJMoycNaf+oF7sy1/YOjuL+kcBpZ+j8HUh1Ou71JLj55b87txUOYXmSokNMTa8hae0IqNY6jbggjerKxU0fb69JwFdHNo1Wut1otloeoQOIMIMADfdD6QiVgOQyKc6X6Vjm3LGwiX6+Lx4N428++DQ++PyBtKa+NNmVGFTawHbWFUOnqIZFeP4IWWm2OaZGgmNPmmePbxxlv8poVx6UD3Tj4VFUBwexKVP16norXrt6Id69cz1uXdmKqxfbNmEpcebhKikGawWtclG4bnxeSvg5nYNTiqJaZc4QArEOziwkcwamgY9yRjCtJ5yLb7XmfrMQZLXONgn0zGaIWliE+ljC/Hh3EJ9+8zQ++uJRfPPs0CNE/Zma09Zq9MYV4MwdslWp+1EVvFnbQOXPD3j51IThcHMzLpPmq/FE4CFwQlibMv9iJBCa9OLN6xfjX7x3K/7izc24KvPiksymzvQgJtJmqtglTit5zTxMFSDpz+/8FC5OEdCJ31NGmBR6dDKLHWlGj58JXJ88i2c7u9JGKnEwk7ACemg3Cotw3YmuvKAcuGPYQkisRYw2kwDbabTQptpNa1S31qvx7o21uLTWjEsXtmLTpqCKiqJRMHZKPZoIYQF2WWPEobAVj05IhUhpq7diRxd7Sv8Hn+zEbz/8VNrrdhzLxp42utFT4zAArOkMVx1Q5tSfTcZiSoABVZGS/pEakYFgydMo9CxkwlcnfffndaS5NgVUjdkgNlrVuH15M964dTXeee163LjUjnXlgz420g5QeUlmp9P6GjlI3nH6U7uCAGbfs0bH8ySf+7IMR2c6WVydbXrlwcmAIzOCQqCddOczCn1RKgiDmQknNb4qv4YFAQZft4/FMNN60x2ukxqjQgIkCYIafLXIEd88wpR4EL8XMD0/HMbRoBJHw0r0J9WoNrt6HzCAzcRQalZnakXnIISGIcFu6BagOBXzM0dpLCnR60orwk/bzuS/qlItQBgOoj0+iYudWrxzvRt/+e61+PO3N+LqmtIkoWEtJ+tNmDoSSNrsoWzOoUDO434Km9E3wAlQeranPDw+jvuPn8eT57uxeyDtqD+0djQSevUUmmKUfwAPKsUHAdE5h7whSrFJH5zLWUDlyL6OK9VRbDRnsd6uxcWt9bh+5VLcvnYpbl6pywSMaCvZsqQChZJ+fjqkcQz+gYRMCEVrNRDKLNxvtOOJHv3NF3J/90l88c2D2DkaeOAhmiuqr1oMVJj0q6HpZQqTskESqDqNhm79KQHO1MIfdUXa6cTHMYLaFJ90ldC11izevXst/uyd1+Lt26uxJYAan6jBmQ5jtd3weltj5YV2BQxiWWAAqqEMMQNEwcaJKoK5ZG0GWUhhWWaFy7JMv+Yl89PZp3NwkkjSZQq/TSRoE2ZfS8iBB2q4BCZ30gocGPXCp5u+BsPPtTgcTmJYo2+JMR0Jtdwz/Xz1zTg+/eJBfMn0gN0TAZLAgEmUlZb0IUymot1H17c2Jg2pgobEgDqIpJZYgtOQ4zGmyURoyZA9ju/xACZc1apOxKoEsi3NqTsdxNXVcbx/dzP++Z+9Fq/fqMe6eLuuVr4l4UErYC6S+8RqbYMSnED/F25H5trXj6TlHfbjyc6hQOoo9uhL6o9t3gFqCDRmKGXGjPfTID6w7TaqKnMZnyp4BJjRsBsX12Uibcb1C9KoBLSbEvIVQElpBs8rsiP55ASQQstBU0P7eSit7jNV2X/55CQ++uSzeLK9EycjgD5NaGutKgO0vYQYxDx/fWWAShDgnCWEcxlhwZXfof4K6FIlcYZrCJzatYkM+mFcWqnF3SvrMvMuxc/u0GFetwaFljtT3dZUj6o2AzQAZeVPZICVU3TmRcBxAUx4WlxDHAGnXHb57NMrP88p2atsFa1sq5Jx/HKVOORPGgAR5grBGNKSPPNOjIXmgebAkLoavngulemTrwbx4cdfxJf3Hsa2BHsg8KBjmbZ1yryWwuRRNCKdGJySscv+JB5VMdnoieY9mFfPFq1jmUodYWo1wZ16TQIraR31ZXEc6gXWKqpFt9OJlo51mY7TGb0l9HW1gt1dBgrrGC2Jz2ae9uLLBwfxyb2nysPDuP9sNx5v70vrO4nD3sg7vACs7j1Cc1M+PJLn1H5/IldoDqzm2R8M4/j4JI4OD+Lg4CCOjo6kRQzj5GQag2ERvwtJ2ZQUu0dO6ak0ZGKqPobK56PjiA+/6cen9x7Ho6fbAldpVmhIakzcYS+QqUh74TtF95OZKNcs/yzl5fP8c9yuExzpID0FUFE3ygOmOcgyGvbj5Pgoer0TXU6i290U6yhEvUP9NQicyJUWcyCPKAf3sWFSAmB6YNQiDSV/2KPjnDuFR0P7U6BzcELMxDBUawlHZj8xGhiRcCU2pN+HtUuw81z5Agk0B0bW1OxJtr142dP9iI+/PIiPpTHde/A49g5O3EJXGzl3CWFgpnSI4RaywBnxZyvtW/4jOtIh/zA9QlgwIwLgpta+ADA+QE3mxvx0WqVBTUdS4WRCNJoCqG432jL3mLWNOcmHxsdoSRLgB9v9+Fwa3sdfPoxPvn7oZUSe7h/H7vEgDqUtCZcMrgg25uAClEpgwn1/slBLKN33o2tmp49G4xgM+nF8IqASQO3t77kzvjeQ9jdVA4HaQdkUjnMaCSZ+fvV8HH/z6f345smOTNKjGClcPoYmDww8ADBVXbt/DLNQ+ViUKm6Ru0yRAgeQdExwzPOFFpWOz1Ty8xrFMR3LXBvEoN+T6yvN4rd6RwDV8EheS4FXBMasjWOIFT8QGn1axEmW4A3AqeSPJF2pLpdd8sRPg155cGJEZtGJmsDEPwQjJMvRAo5jMh7kd2piZDqtTxBY+i7U9CHkj3eG8fsvn8ZvPvhCwrAfhydDmzy1VletedtL5eYMaLGbO9AVbAFMZXxEXYpHLs5PmmB4mA/hy2P5Rv6RhGq0pAFMRwOZONKL5I8RMdJ80pddo+s2o18rTDYMa0rM3H64O47PHz6Pj758pLQ/9Kzph553JfNNmtWAUSxMxxogwJATnceYk5SK0kJCyI9T8f0JcAIkvP55o2FH3xHxMO/r+KRvYNrZP4jn+0ee4DqYSPubogXqfVlozEDfJW/PZ/H7Bzvx4VeP4/lRP/pjgR59Y4XGa+3PYCtnQMk0kBM7XWedWB/JHFr4sz5eAKbCzX3qOelm7XeHpfpmR5yjE0Y6Dw30jfZqrLXq0QHv0HYVmuFRLzBZk092iJvNKVjJITUqAsOVfOCLJVf+nn0615zEECU4UeEp6iJxZjKmRNB9Qjlhjm/l0HyYwwQwTaWR0FfzcHtibel3nz6ILx/uxZEkhdnd9OvQ2dwb0ccjErAxKsf3YvSJODpLwRKbWSjKv4LhS2YsnB7wbwc0oDExf2bK+uAKgPlE3hhBjH0ykAYlnzPFPamuea7Ow52Izx/s52cznz/waOJjT2+QydNcjUprVZqVTJ2qwEighGPGO6Na7mtS0sdoHkprTeGeFjEitQwWOYpInrmPhpQmVF8J2JWpuSPN9MnOvrS8XhwOc0rGQF7vPYn44LP78YFAl2kbfL4CMLkM9D7O69oorokaDXarcdykYe4WoLTo20kgzjopQEmlb2BCkyzuNZpNb3A6GA69qQLpLmfcH/YGXte9P5pGQzy1LhOvI1OUrwr8UXPBj3wwTpJm0rxywwpdkBg/xcET3Mtjnmfqfgr0yneIM0xfVeWbIcRUZUW7Y1HVXIiG79OSZT8FLS6CULMG8s2TUXz0xf349CuZQ9vH+ZV7tSN/08K/wkATaDGXSSagpC53lS01jnQJSnISyPK8/KWS6DhnNM/aFud+ouf2L6doZEAapKwRTvoCqyOJzijWV5uxtd6JCxcvxqVLl6R9HHqZX+YrHZ4MPCMdU8dahbQjzE9G5KxpuFwkzEV6vRyKhBnThZGsBkJzWuS4Eri97pPikOhLE8z5UflJiRoM6kwOIEbL6LRbcWFrK65cuRwb6+txcLAfjx8/jkfPD9RQqKTqKnuFC6AyZwuNicXl0P4YdURjoz/OSUixV5laL9K53DI4qf4TlACibKyshfkI/wDYilIOs5pZ5GyS0GBtKZ3XZGavdZXe1Va8f7kZ//TuRrx1/WJcuLCpspTmJzCbyAykcWmqMbRGpTL3bPJF6hQPR+ATynsGU+re9842nYOThIAh4wQnVan+s+MZl0UDsyGcMHNPpgVfrzNpjz6mRzuT+IiVBL56FA+eHcSemu1Rc12mRdugNJ6I0WBjMVlNrSmQMpB2M9L9FAYFrladI31Lacpxrjs6zxZRXmBB0Ech2Pmc9Pmh/c8keA1AkHxYuAfidAlEberlO+oy8xoCyJWVlTju9e0Gw9x9JPtdWCkb80OvySFs7rRl2oHuOy6R5JRfuxRg3zgdcpwS8hKcFDbiySxqRF82jhypRLNIYQRYSFlTJndH2gqbFYzH0hh7JzL7xl6axsCrckFzsTZGPGhhnGeGBCiYUZAhxsCbTZTcC+CkWA1Ecj4mQC3ASedK50wNH3O4MK+r9AGOZWuO+wLYvM+KmndWxvGLq+342d3rcff2zdhYa7qDfKZKUKj2Bz5Rzuw3uEyOp0gVdcN5pts3zjy98uDEnBmGhl3DRoScSzSRm6qWzZ5iao/IqLUdTWueOHkgPnv0nFGgZ57D9EjAdNQPr1A5qq/KHGroHYWlPwMLDCZhQtsYSbgQvlw0DXEAlF503AecSqAsh6lTcEpHorlP0hPUCJds+Bs05Jw0ICj2L5KWgUmJ9sN2235bTI7Jgfh7XzwwgKLAFAHocI7DB5F86p7jJU0GkVMihWvzyHWSzmJH5DovtSlKyCsFZNISYOQy3zylpDLX5IX86qD8K6/Upe5be9WR1QZUBHohy9TO8ZbXOhK2zrkqwYk7pQa1AKd0/uRGaW1KFUIbcr+lGgq+x+MbPZRNtCnW4brZGcVbNy/FO2++HjevX40La/lNHjNXaL6aOnED6g7zTFuSriiv8lzOdaI6/CnQ+TwnVaSH613Ryc6AykzABCjkekTMhqpHn0/wxWmHUki+eTKWxvQwPvzsoUDqOHpD/LW93hIziD0pkXCWw4RBJQSSBQu9+zlSYnQsnQSFIx4LcGJuU4rFkrDgLEDpEEj2+Ge4mlGiRqPhTz9YsqU/GBi0EEKvwolphN1BKIq/BCpCRTusyQESY5kXOljo9ZNHx6kU6wcg4L6B5JSIEBMpMtw5SHFbDym3jBdMBHTLZzJlyZ+OXodK+S2/+Gd1S7RVwqKjnQ01eWs4lCYi/41G9vWM5acszzSNyvJdLmu9onrxVQlGLx0BjBLU6czmfUw8XFV8wHQUQBbNqDM5jJXpsTdSePPurXjnjTvx+s2VuCyAkoHtiabM5aL73l0QeqfU6KBMkY7Ex7mBqXRnm155cJpNqzEaTaMlk0tcJ6YeqfrFOA2YDVCSEIjpmazH4vgMUX/zdBZ/+/t78TcffiWQOohae1Mm26pa4oYATP5rTEqkZRUDGaB0U+c52VLnHEUU/AKcxNAGpgKc5LhvLU4tpzUnM6XeUVh5vhCgZNMU1azQFJ70xTHDI37Bos5JQ4aWOkGGVL6nC1+V4drNBZTzfNNX8sjxNGiRtzIfEDH5UP78gfi+fa98j2OGh58ivDmV7zk36V4AJ64X59ZiiqsFIOUx6z2f8V/GXPguwinDlrk9GwqEBFbDk7i41om37t6MX7x9J96924yrXWlQehuQUnsWVTUW3mbMAEU9LsjxOdSyrpefnk06Bye1SfSpWMMXUb1oOIytjcVIzAeaSJNgRjafo3x6fxwfyoz77JudePy8Fwe6OZjUBUwyiyrFMLvAzMxiECrAqQCoPOJKSqZagFNqTwlYYkMB01TvJDiVajuhly4ZvowLKsHCXcmYSDqWLiczoCGkgNl/wcy8k8fySR5LQUX8XohbHnPgAOEs3/h+hNA5HoVfxgTlUdeK58V7y1Rel8es1CyPpG+/8yJl6HIvgZPf1AFgYLABKp8mIC2AiTIpQ0p6OXb78pHv5piY2ZadtyKF9eJaO964vhU/f/16/Py1WlxgpooaxbpYplsTt85oJmUW6p1FeMshY7LCP+WTs0tw5atNAh0ssKHqmjkpXDM/xRyNMDOvR8zGAmpPdiI++eJBfPTZ/bj3eC+OR3q3JY1JoDSUf/odKnX6bnhdTMcfHG0iPLlCI1q4ApiWmIl30LqsaQFkJfC8EJbeBcQKIIM57YhCdxzvPMgiXgOfDcalN3g6f1su9az5tQTRooewlsDE0ecpwKdJhJdxpSuBKuP5h+Iq0ud30uU7i/fKsJYdcZTO95y3Bc19FsD4QojymHf1PmkujgZZA20JtoQ/Dylf5C6DELWVGDVWpZkzxePYs9k/+fJBPHgc7sfEtKcroHzHlTw/18HXUHn/p0Hw6StN1C0jOMOJNCW1Yq5bARSaVJXhZpUQXRNPn4/iw0/ux+ffPI1Hz49i92TiJV4HMzGXGIyddaOupo8JgwaGwjmGkpJ5FhrSEjAVDMahBLXUmBKgYO5SM3I4BSjhEC8f/W4ZRrr0K8fR/ohTv3Luu5DLYylUeT13CmUBUDjO01nIdC+F7XRoLuhlHEX4pD7pH4or37dTWrPc8v7Lrowrj4XzO6Wfha+iJNI5Ma4lHxe+EpA83QENy9fKh52ez12WP3UfVbbsWoverB1H45qXNd7e78e9R9sCqIfx6Ok0BnSNle2lYkknmtfrS+c/EToHJzESQ+dTPoYVGMBgfAE+GQ2tHDOd5mCvF19/9U188LtP4vnzA/lFo2r5PSbZwaS1ujQShlfopfLKBaXjntwSQ5Z9SmUfU2pTJWPhSf4LR3pKVzJ4+kUcUoXPY4KUR/bKMCx4pSvBpRCQ4t7CQYRdumUqfFlzyHjS6a3ChDktWk6R45hrKxlPGW95vXD51M55zBKZX5fncvPUA0SF37nT/W/nP8lvSzv2wshStz2CW5S936QsnJzF+xlembaSMs2kgi4F5mmNhwNV2cQL8jFP7Wh/Lz77+Pfxxaefxt42nyFlsGVOSw3cdU866H4o0lL6Ouv0yoNTMuKIBQa8bAX9MZNhL8bMqh4Po388iGePn8W9r+7Hk8fbMRiIHevtaLa6Hvnh406GuQGP6aQf49GJw2B1AQOKXSkoMNgyMJXnJUPhSA8OrQmTjvdzDYMEFMLQj6suxSyZk6OuEWZ5ylYd/+nmWpHTkucpjAV4yj9hv0zcXQBExvdtd3qU8RUl9lK8y53NC/civQhEyp+vi7wXrgSisiyWQ0u3oJef8AazyxmNxXnZGpf9sr8k15Pc4g5Uhu6a9Me9k37fG622VKXr7YZni497x/H4m3tx74vP4sG9r+Nw71hpJ0xiyPddJgYkj+UpDTkd5KdC5+AECEhrApjqzCcREOBa0oRa9Vo0Zew3a41oN9rRZuOB0TR6J0OB1NCM15Af5hLNZlwPE5TKZU+sQQEqYigLRZpwC1BKgKIa8gjByGV/E4JTaE42FVKQkjGTOV/QmnSv9KEXFD9n6cvOQplvct+hFMxevFXQSwI0D0HnBgji4ojWVvo9LUoAmI9+la6I145zO9JTppySzXzN82aXJZLHRQkR6sLPiy7DgIq8KY7SkQ60pmVXai7L4Mm7ZSjfpoWfylTwMhtHRwp0Q3U87Z/EpHcYNansF9a6cXlzPTZWOubFTLPecsBlWSQ4sQ6Zl/rRdYZ99umVH62bSDMZS9OpN6o5r4QJkixYJPuI6QFHo0Y8fN6L3z/Yj7/9ajvu743i0eEw9oaCMCb0sVgYfVViMEBkxsifeGPOfMvg43PuF0CEilMAiDvQC0DKI/ck/h46VtjyNpu1dL8ls7KpczrqYdDiXbb6qBTgaEDjHYHfFACsywl9OeKHCRH0Z+nMzuGUgpXHTGfp+NVdc0r5lk+dRh740SlQxpOhvag56eh0ZgoyVfm0BFwLbwHifqb7hFGOni0on71Ieq7/IkS7TA2H4qjrBVDau6iMlzcKwPP5MpU+yzAXYQMlzH6vsWX9dBBd1eNmYxJXVuvx2pW1eO/OlXjr+lZc2ugKwJQ3NTBlSGhN1tx0Bc/hmBMFz5CWs06vPDhNJcwTubpqlU9ZalKzXctqiQCC/rTtj3if9iO+fB7xuU4+ffQ87j0/iv3jkxiJWYwxAgPWgvZGkmaWhYZE57WgTscEqgVI4RJcEpQANx19nkzoGVb0hymS2axtgJoqXT7SSoqxmeAJMC3ACUDjHbW2JThN62JsJoYmiBnQ5NNuDk6lKwWoAFERVz4WQp2pNzTqJNN6OpQxz9NGegwOZbpEgE0BAPZlEw0fL2qYCU6UbPpMyve+K70OfymuDJ2DQ/N5aksL7cS+0UgVC/EuzGWojKOMO8OZh6sjS96xamZt1IuW6ubiSiPuXFqNt25ciLdvXowbW5240K5Em0+PVKeEz7sGXWtMaHLJstSCJ2y6DJhqcLbpHJwQ0pqYSULO6pBeN1pMUxMD8ikTO3Kw3MlEatWhap8NGT+5P4oPv34cXzx87DWP2AfOGpPeA5hS1YYJEW661ROQZnCQ7ntrI516bWhuid0SZGB+joRB2ipeztUfjMKUSgssaudzBDffnXfC61jAo4REcRkcAUlASmnBn9wL4ORwUrwXwpPHknzHgFCKlZyu9aPzBCeecAtCePJt/ZbBFA+Zqb0IR+dLXvIjWjluFnfxneeFL+Urr/SEJPiYYToHjievKUdSxrEk3uHuy8Qby0BUxuf7HPUs+5uoU9KQYJSg5Jovwl6848w5VdzTr5/nU97vTo+jM5GTNntxvROvXb8c79y9Hm/fuhjXL+QkzOpo7NnhdDWUKePt1JrQnooaUKDCMPvNO2ebzsGJijVDwkIItJjNjK7CcckkG7Ha5dFgErVuy3u1ff10En/7+f34m0/uSYs6jN5EjCIzsNbA7JIhBm8AQlW0FTH0hBURc23rVrPhvipWSCQSoiFGVjkomZ8jrilVvyUHwyEGqXUlkJCuTGKG4LbT50CjjhbiTH95jlZmk87+uC6cwSn95nFB3AFYlnw7Go7kh6/n+Y6Mz2b4JKf0xXyxcrdeiO2dWMKF0VAhs+WWb8xYGoRwoJHKa2jthCaCeIknH2acHHVn+bx4BhU+59cGYbvixh9FjrmgDBHinutF+eG83DIKzcnNkW6Sb+qHlQ/4TrHaKBay0xM6v1l4Du2ObdLpxu72nsbqcDveuX0l3n/3rXjr7q24dqE533AU1yr8lt/WJcG3cKzCLuqOJ8tAedbpHJyoTjFcMlWyJa2OR7eKiuZIY8zcJ0ZoetJa2Arpm91BfPRgNz74+lnc3zlxP9RE2kmykpiYkAQmCX4AFQKH2SgnsGG7IdjZjCU/OQLEd3msNZ7ny+B0OgQ4ISpJZdykL8ugdPhIXzzlPEG7cMV5fv9m0dO17oA4fiJA8nlSfvtGHLyrNOg9yhWfABXfmvE93KiqvDdbKqUEJ4cmLxxztAoBFPl8Dls+T1/zt3hgYCLP/zhw+sOUZhQpIP3MaVJNwytyBicDBb2E1L80LBoc5XXi5xN/BNxEA2JuwPAkbjSO4xdXmvH6lY14/e7tuHH1YmyuAkh6VUlHY24o44Q/m3wXOBX15jqkHPKOC+iM0ysPThaRouWBsorlLHzJdGm/q+IlXKyhzddQAwHavvDi4UHER/d24+N7T6RN7cfe0dBLqlQbXYPeSIjGWkms41RvqhVVeOPxQNikUKymIzxJpbZU9msw+gIoNeRIx2lQafKRc1e8mDohoiwDnS+BCv6yLIrz0vkeYSCoJRApP8WreqxnHAEvLuT0LE3a9Gevup8736Y/Vvr0RFY94nliSsaf/oujiNKzR1OmrHya5yIHMPf0van8EBwyNMAfdhljliM8pTzIMVjCShSkri6NtS6wbFQn1oZaOr57uRX/8u1rcW29HZcvbsXGWiW6zOUlAvEXEzp5x4DDtJV5XkhHAU5KT9aD787r5qzTOThRjUvgBLliiwpOBgSckmA6f64ihmAflkM9ergX8fuv9+OjLx/EVw92vC9drb0he6UhcAqv2sjibWwrjuwhjJXJMFtEhU/LTlwwWpqZ3E2gcp9GwfinQR75KwAqQyXmIqdm8jwviavFMZ8uAEOAIu3OzprLotw46sS3IICHOWEGJ8w8l3l64+g12xW/0yYwXsSziHuZfKXwy7t5lE+FAZX3CTHDyfvfl9zxXMQx74hXJnCO3/HoLlqi6m84HPorA1YmpUPbazqNTuLSxkrcvLwRf3b3Uvz69SuxITOu245oM9+OEGCLMfoj+pe4QcFm6IucLcCJVORT7mSHfOnv7NKCC19RcpW65UMoslKpVrdGReUDSDxh00gWiGs26GiWp2F4/efblyN+dnsj3rt1KW5dWo2uWsRc9ZBZ5rR88qywYVSWbKUPoi7TBRBIZkaAuMJMkP8p2tJIJt2w6Nw8PUYjKaUwlY57xEGecJmidJCP3AeADEJQ+sDUZbmV8ZiNCATCLEc8ZIa9TBB/Rc+YkkwTeUfo3JWsd1gYT1glwFL5zpif04xprSNBbkowqyoDtIZ0bN6AW5hxywRAlg7zrViexo7pEkj5aRO1VgIAjmLhauEoG5+pPptKCx/tdqvjaE2Ooz0+jOurlfjla5fj/deuxMW1iFUBUwsrkOTSFqp8HMccaDLkpMXZT5leec0pK31xli0RlZ+47TsSYLQbpImlVTDRWP/5aCiBaNZYWjv21Sg+fBbxwVfb8dd/90VsH0/jcDARfgnYau0YSbsY0Esq1anRaKklFf8NewYj91BYOysZsWBFpQPTjpm/aFKnQcyBWZ4Hk/G83AJzFM0Lpiyj5WOmczJjTXHBz6yqtzL9QDmmCK09miJrLLkEMXHwJbBPnSD7Zsp7DBy0pv1oegfd7GPLdGSDwZFUJxDxjGM+y3tlqiCdyQ/zvAA7dIrTIOIhDcSUjptcc7ZobMwyuiKnLSFOQ5xQHx8pf9KaVuvxq/feiF///K24c0V5ll+xg1NImRmQFUv2hKI56QYBikfmsSqvrjOuzzWnnyaZlajMokK5NnPNHYJDMTHqVJPmM5JmkBrRqpq6FckUrfyKfNzcjHj/9Uvxy7fvxPWtlWgz50gqPPOUuuyyIZ2dBeFY3M3rVhdhL2IlLWgwYkwxYg0zSOfycKrkeIozC5U1Eo55b/7LtVwK3pJfkKG4B/CQJ5bI5buwdqPm5T8agBMrPw5PYto7iInctH8U08FxzATK7BAD3NZrAne9z+qUjG55dsVSHPM49ZemY1kv3C7O04vOC7AqXUJZJvW0yMEVBeNrjmWaSqc61X0cZUJjMO0dCpxO4rrst79877X41Zs34uZ6LTp6G40ScEK75Oh10eVyaeLlHC+yUsT+k6ZzcCoqvqz85WpPhueJmE2CQGvlxefHQ7XGUtHp2JS/qrSophSfDXHZra2IX75+Ld66sRHXNpqx1sDEy7306WOiZSRUht3LPgPayOxZIB7AagFYp09lbjMet89FOhbxLp6XDlbxsQQEpjQAGgLRylhgMzqOyvDIriYNoTk5iU6lF6u1YWw0mfU8jrX6MLoVaUbSHurjY4GXjoxEMkOfCYb0yagkrJ0onoWTlkUaAbDiSLozzegVpCXTmBNfSRcOjYmjHp0KZcktu5K4Kps3HOUEcLvRm46sPV1cbcUbNy7GL964Ea9fWYstlUljggmvXBSOxogyRUtnyoV3XuGcRuoVo1ferPNIiwQC9sJ8MkggBDA+PIYnlRCigKkitUnX8sUzaVIIBmtRW7uqNqJXrcbOIOJvPzuI337ylfeEe3Yyi351JUa1rsVQCr7CEBPSMjr+NOvo9yLm1OIy4nJqgc2eU6CMJ8PntzRhl4Vqfr5E5V2fS4hIm+8RltQddkMh7WhMrH+92qp6K/HVbstaI9ri3uFRHPdHcdQfe8+/QTS9rPG03lYJUC7VqEujahZpzMahiMnp0nl5z4iTGlLeKYS3uE5AonwBK8ruxfz8b6MiHvigJCVo0aAAkOIJ3fNOMfJXF3C3pkdxqT2Lt6+uxF+8dSX+4u2bcW0NE/Y4xhPAt6Fiz7leziXqo8oAHnEeADknn58CBJfrzfFz/dMy687BqQAEyEP4XNHHUwgDBEt4vgnMRo+xBBGQQvuBMeosaSCgmuhRjzEZYc/nD2fxd5/fjw+/ehifPzmM7V4lRo01CWI3xrV2sL41ar9ZDGEEDsVUJXNlvIAeqRPzAX6nQMnGIuJ3DEsuJcDChSevg+00ki4/ybSZ+XnOJEGBCZ9fMJNdAtlp1mJLGsLlzbW4enEjLuq4vtKJoTTOR0+exM7+UTzZOYznB73Y709zPSyWn1E+MfQUneIiv8TnWJy2UtxKkJqT4ixSX6TVvpxeB8Edv5BX348ISPn/FjhlI5Wx6qh7DZ2iKU+Od2NdGuObV9fjV29csnv9Uic2dK81k8k7qwdbjXkzCaeRfIivGC2YlzPglOmf59blkLW5OC/q1+8502eazsFpDk4szsv8onQ2J3S3ZGlPtFOr7k8IYE4m0QFOKr0KSxqIufRSoQ1E7JxEfPrgOH772Tfxt188ia93+jEUOE0aqzGoSlMAyRhjFsFMCUqwGMJfxpsnp1lBbqEBUmZrq4X2fmhmfqUFJlcavOOuLpvKF9sRwejZua1nxVpXtPLMcsds68hUq88G1pSuXtqK129ejTfv3Ijrl6vRUtFQXGSXfDzZnsZXD554MbWHzw/i+dEojkezGFB2EmoZvzERWKHFkh6mHOT2TXofIKBAuO9r1YvO0SwsmoVAU6reMZfhfP2xDRdxf38iFGXmO8EpAUoPnU43KWrEqqPDuLHeiF++cS3+2bvX4xe3G3HFS+/2oj7Yl69GzKQ5ejU5v+0Q9CuXqOrjPN/lU53PwQlXPEteKt4/43QOTn8AnJhsR8FQ5VDOBMb4SKZjmx+0Hws7K2DaxJOAeesoMWm7HlKY4oOvduI/ffR1/O7edhxMpCEInEb1FUJxB3DGkMBUsl6aJMleBi35ztR8f0LQidfziiS85ukiZmIEnBCG7IwVGGHGSuitCQihACn6QQABzi+0x3H7YjNuXFyNW9euxLXLF6Q5VaPLfB09lyJlhzj32EaPo3B9/3gaj3aP4v7T3fjmiUzf3cPYO+nH/rgWJxVplhJYb+Gk5PjTH0Y6de2RziYfQKus+wOloWqAcvnRNyOHcgs4eZRQ+Rirjl3U35uog2VwojCoGUpqAU445mpV5Vaq43jz+kb8+p1b8RdvtOPNizJ5FUxjeCzzlW3i1ZiJZwBhE3nxiTxRF5xx8M2EHfzALcuuqMiCj5bA8wzTOTi5pUlwKvucls06V7lOGMzHrPP3TXxG4KFuMRSgROsuB3MOpaIfS/iaq/XYlVz//utB/McPv4r/+tnD2B3IdBEwjRsr8sumCAoapjJDJZXHrBQ0gheH/r8v+bs/wIlRMoNTxu9PUOg7Ujxmdwk0WxgBSk05+tysLdK5W6/G1sZ6XNzajFsXGnFH4HRlox1XLsqEWxUuK0gAdiZAod/FOwKrfKSsORdD/eDYlHSf/f+29+Pew8fxUCB1/3Acz0fspCzwGY4NTOw6zFruVZZCpm4QUvpqFAbglB3PegSSoT2h+SlKxJ29B3Pek7P/PYlacUR5CRXglMCBIyLSA0hOYq05i3dvX4pfv3szfvU6m2iy1oX4aTCIlcrA5txY5VCabQlOnFMneQu9aQFAhT8R90pnwot5qXjxjNM5OCGMEkwoR4EAGgAqWymYHtZDu6IPgb4mj1D5AaYHHeK6LbPEo0rVhgCKD1gjHu9HfHxvR8D0ID76Zif2JHTDascd4x6hE1DMGctUnhdMp0umITDSlwD6/cnxYkJIKBBqSwCaBUvFIFASPACFjnM6uQFkJhHSn9RkIqHUoIub63HzxtW4IU3pzoWIqwIkJhkCQt6fTbH4kwsAXOHg0IJy5dAEJpe1roVBcSgF4unOQTzb2Y8v94bx+c4gnh4OYnfvIHr9oXJej3qzq+JuxVAv9Ad8h1eRWdnKcFXuFmmBUgIUAJtwMVE6vDkq9fW9iTDKsKghyo+YqK+yLuEWPaEsVQ7d2jReu7YRf/bWrfjz1+rx+qWINXlrqmg60cswlF7eMs0BiDAzza4iTpTPZVrwTnmEzDnF+dmmVx6cDAMvgZM1ITNbMjh+PO9Id9Ec3FKjDQiIMDWYkDmSsEwk8FPh1UQ89M1zAdPX2/HJN0/iS9l3T48ncTRhKh6fvrBYXMaTjFWymWKC2RU+dxAxuokBp1PTnBQn21c5RvIthzlkYZIgl8Divf0FC7NRzxMiWT6WDu47N67EbQHT1Uvt2FiL2JQasE42FNSQ5WalbQFQ7WbdYMVw+HiUJnC9NH9VZphBXnWq0OTIHbjySJrURw8O4uHucTx68iyeC7AOZAcOVaikaCCNaSDBZh33WoMFRWoGKAQXzEjcoE51VCxoTfwZQ06BrMUsgVPGk/VVcgvXJd/QF3dxRaB0fSt+cedSvHe7I21Tpp2S3FKmayofr7+UAemdsv7JRt7jgrPUrjIjxZMX6A8/OZv0yoMTBCtQCG79EF7fyapGbPITD0mEGMnXModw0ypjVTLlJDBjGErANJRgHsj6+c2H+/Hb338eXz3aif1hxVuU92cCpqmEkaFjOmsVqdmtZMK8KuInLWJyxYtpd2rgpJDQwYgxO0+l6QBK0i7QDgEizMjqRCbHuJegtLUat69ciLs3r8TdGxfjMusMKa8okuynxspSNojdCa37ygZhYyZOBVb+sFfIQ5zsrltjdNO5mkkTomMezGIyZjWO9eS5zOE9gdST7aHMPYH7/SfxzePnsXs08Gz7anPFZd+X2Qic0kCkM1woBFEBUGxKmn+nQwBT1kRySNbf/GzpLvGrFqeDaAqgNru1eP3Karz/+rX4szcvxg2V4ZrKigm8ddl1NAqmIg+kdw5O89QT7ouUd/I5b2X8Pw06B6eCqFQ7azN57TsW4HTM2oXp03KYxYg+qmpLAiMzTjwhTIrtfsSHXw/id5/fj8/uPYrtg540JflprEZPrT/mX0XmCGsYTcWURaxm5GQ1rgqARBuQ0C/g5PuTIEPmpCBKQpBduHLWChEQWvHU1Doy0y4waVCA9O5rN+POlY0QRgVLebijW8dWAVDjwYlMPqZU1LMfS2EamOS8oJ6uiY8t0AEpRgnJJwDtPQJFY5mVbH+O2Ss70huYYu49253GN09346uH23HvyY7L82Awdd8eZc/0A88sJzeUl8K0gFNV+tPNLNb8+d6k6nOQzpOCz7rjmpu4ou7Io+qUz5RqE7TPQVxoz+LulfX45du3473XEqDQOhsjNCzqWCEo7SUtwOlFWvKR8ctBLvfizk+BXnlwKivSlWrGyKou75Yd5ohQFXsFcAKY1OIzt3kmLQCN6VCt/e5RxOfPBvHXv78X93eOY3v/OI4lSGMDWNsaFqGxH56DkiaWc5wynoy7TIPuWovTfXH/aVUS4dH5zQJxFiNMOn+gPPbkyXX9rEsturLZjbfvXI9rmytx/UInLgqYVmWVtZS8mvKPllWViZvJVkhK4EKYFLbUp1LQ8rY9RK2uSAq/XqBuTBikp2ZtdFZr+dtFVnNQ0eXI3iDi6cE07j3bjS8EUt8824ud40H01CoMZRYyDcGmIfHRuLjcHI2KjnxSe5mW70uAEw6yRk0ZKqK8lfXmo56Rb0Yqmf2OFtoW5G51KvHa9Qvx/pu3463bF+L2ukxjAErl6fQS0rzcuOMTH/K2zvXPKbHR3MzPiVOeMg1nn87BiWo1MxcMURypYkMJ4FT0CSBwcAh9x5gjg4rMEwkyWtPj3YgvH+zGb79+Hr/58kkczQAjtiqXSadWnlnA3loYUoljrtFaWsgJ3y1nslnGXuhrii9ba+6fBikexd2oJzgxoZTlW+j03lpry3zbipuXt6wpvXatFWtK9oqSLZlia4XoVPWugIwwpDIJYFi7akXakMpFIEPfEukvl0VhykIyGHEBQmhWXEqQFDdTFeiMrwu0eEYfEp+iMOhmrUhANVT8xwKqZwL/L5/K1Nvej6/RpmTq9RRvbzKLvp6jY1o4Fbe1W4XGGuo1JjmeksAmOJEDQMlNyAKcrFJl3RlJ5AB/r+Ok3NSn0jBn/dhoV70U789evxHv39iI14VOTaUWjvsuzYmjQyZIyrG81jtcL98j/yVcnXU6Byf90S9BZWLouINVlxU3j7AZfT6SFAmvtRgJEFuPU2qDSkfmmrQmte6ffT2Jv/v4Xvz2q0fxjZr6aWvdHc+M5I2K4XBmkhOLl6qVxsDmiUBQCYJJyW7lEX53Uv4glQ+TsdHqzMw6ZxQLsnmVPiQo0pIkIP4wF6e4+e5ro9uM29cuSmhuxOu3NkLY5OVg2LJIVpZMEwUgMGImeJP+KRUSJi8d0wFIK68pWEqD4icd5TywCvnUM55PZMpOBEbgPKZtrdBGQfwxEz51jnbFkipjQErhTmtMzJQWpSJCi8J9+agf//nvPo693tha1OFQjYUKKveSowfMpUr2FWZRRsRTktMqKm/pMss9L/J2Xs/v+wDHpA878pi3fbd0OYdM6WHCqlLCwoJ1tg+TBlVVY3Dt8ma8duNK/JM3WM9pxR3kaFn6Fy9k4+WwCU7XBJ+NKOQYXf7L/MNT37G/9HOW6ZUHp6nYeMJQPYKi9ostlCrSdlAMaH7Ze847+bIJgoBoLM4ZiPklptGTO5C/e08iPvhkO3738cP4SqbHqNX1crMwSDJJeVxQeTdbPLNecbek8hxgK4FrmcrneWRDBsDv+PjEwt+oN6PVavlx76Sne1OvRbVaH8q8YMGzQ2kVk1jrtuKWtKV3XrsVb9+9FjqNFcw3yTVmHst3uG8KYUnW99HJFVkjEYgAfMUt0XI+/hCVJaK39L/ITQ4AcDP1ErROjyGqpljoT3UgdywvT/ciPvziudyDuL996L6ovupwIMD0l34AJvikOsOENEgTl973jHgTYK6Db6ZQ2+m6PCdVmbdsTACC8mnxwL6g9J+0MMvSv98VqHu6hdCZqSm/uLka//pXr8fdy61sEPS6lNOojU/ct5fapLBbAGuwdhoznWVa3O2g+uE8p8FQY4t0nFU615wEPhO1aPR31GS4VKUKVSaqfDGIFSoBE9uUTwVOI3HNUDeHEvy+kGpf9hwbHfzus6fx2Ve78fDZMA6G4xixlx1mzSmQgcBuuZpKxuMoV5gT/PFpCi22R8csFMqCrn1PQbTGe9GeHsSFbjUub214Rvftq+muCpi8sL5eApSAVxifDvlMB5TpSNFUfIrbKwD47vcnb2llR3yZL7bW4kmOCdI7U7XmysfDe32+YxzER9JYP7v/LJ4eDvPbxRogJS1XpqNqOINRKKVWyTIt1DnaGhukEluDmed4XAImX/uYVK4Zzt1/iKxj8V+ClAgtskYdcVQgd9Ym8cvba/H+3cvx5o2VuNBRo6C6a46P3Ti4K0GaNl0DM+UJ4EHfpcpTwyoGM6xpiU8NTsVUkTNOtb/6q7/6t8X5K0ol+1X994KY6dQNrLhoIiZhcuWUj1SlFR2p+X60M4pPvnwSH33+IB5tH7jzdtZgFQExs9xp0EIsSCmJIVyOS+dKJOkmSjOztATmGzHDm2kC7UbVZlxlwmYJx3GxW4k7Vzfj7ddu2t2VUKAxlasx0jMGOJV9YguNacHyxJXXZYmVT06LXPA+UjfzvJaOfzQ8hHmlLrep86asS0YjBwKdkxhPpEVKaOlgr8o0xNSS8iRTG5OTIBFyHIEB6jqSMT3LvBXaTuGAhbIMXuCTP0D2k//543P9ZeHlrdFJjNjhV41eRxo388PaUpkarHFFQgxsJKhIJxn3kbNChzJYki5phnN/hH626ZUHp7IKYZhcC0gXJUOYF+QDplalMzIkrom+Hj3dm8Rn954ZmB483S9G5SQt9I/AKjDgqRLhpToPc7r/QXEkYCndOscEYASQuUWYR56/JFf1cr+sKTSLy6u1ePv2xXjz1uV44871uHW15mVi6VsyKEl4y40ZvbyK9ZQUUguLCshHESlKIS3d96cMJfPkfFHmRSyLeJQC1QsySH9cQ9peV3lY21yJ7gqd8/0YjY4ETr2cvU/OWK5UL6Ah0R/GZzH6l8zXolaXxiwwyM58h26X+S7LAXCiZqFM099LelyCUF7mX3Fh9vLPWGkdHPtjaiatrnS6MrVr0ZX6qmilASt+5xVtqIyXcNFaOSvTqpypbpzqc3D6aVBWNW2zztCVYVAQioqmr0KMMUX9l/COdM5nKYwaffbNYXzw2YP4/P62dwTmQ1U6bvk+lXb29MApU5iionNASed5f8GsYGhdbkqntcSxJdWnJaRhjs1seBSrYvbrQqGf3bkcf/7OrXjt+lZcvViNdWlLTIks9to0KAGvGFD0/bBUTCkABvB5jOXv4s7pEOFkvhbAVMZCKgpSWphNnxM4lQfhz0o3Yn2TPQFlslUGCkUmnhCoN2TOVYaRs/ulXeicNeEpy5rMcH/jRmD48n9R4so/gm8nDYV4/zHglLF+m0qTD1OMqRQnvewrbLdasbqyGl0+wCNWRem5Y0qftb0yPMJPTlM8NBwQHkre++54zxKdg5P+bM4ZmGBOVGNVsoFJrSvApOeAErICMH1yrx9/98nD+OTrp/H8eBSTejemjabNvqEYvKJW+PSYoxSTApTm4FQIiPlQP5hy49zRhVa3oyQw8S+Ghx7+f+3Gxfjzd1+LX793TZpTIy6vVWIVP7yuFpqt2BtCp5YYvaEyQEvIOVilyZD5yWMKXZ6Tprx3OkRsac7lVcZClWQUOlEauaGqiZZMVqJHC8IxMfTKxXZsba5KC1G9TauxdzD093gTzFwBV7vVjkZT5rleYJ0ptCtqvhTqzK/F3PkvgYkycT1YM8n0/X2UKf/DBEC56qSVn/T7MZBjh5q6gKjbFkAJbFnGWN50H7+L8DKNC2dPPjvt+vjh6JUHp8XOHrow0yc4oTXxjRxbjTNFUWIeA9X3R19O428/uR9f3N+N3d7UKzkyMjcQ84wQZPddIFynwxwWBrsMM5mP62TA/OVu9g8BMJURo3HH0VLKr2604/23bsWfvft6vHN3K65vSsNA09CLhOiOb2kHqWkBVioDCbEniBK4TZ0yLh3F+GWswLrTsSQ035ecvyKvSYuwvWW8fAAlRMm3gIy2TpkMymhVFTO2JnCthLAn1laa0VnZUmOxYs1p2JeZJ/PJHdTKXBFSESf5oGwzxjKuBTjLCaDo0wFM/hhwWqY/hBfMmaLm2DaM0cTBoO816lmT/dLFlWhJrZ2JETFFq/SgF2Fk6vOY6fWlAba4kzfOMJ1rTvQzFROJmCXiLYXEewDTWAzMsHR/WvMM8PvPIj78fFua03Y83R8LlCQBrRUvLzuSlsFnLDX6NnSdAnwaRDgIQiFARbh5VgiN0o0Z1pRw1iYDaUH9WGtO4/qFlXjv9Rvx5z97Ld64sRaXiuVMatIY6mgCyKiOOeJTmAgIIFoY91FNHFMCpDtli3PAMo9KQSbplCjDdLzFAVoAU/lUDYjSOBwwEVT5V1qbjMDpGaOvFYFrt9mQqbca7fa6NKyW7gmYRhL+kd6RCWV4xWSSdpJaySLCItq50HNCzABT2VD8fZRmWwKISd79Bj/zVwVMAkRG1/y9ofyzZT2z5usColU6+ZsCLt5VOnP1BZ1TFg6jLJOCXsrDWadzcEJr8tZBVLXsmyogI6YR/41U2f1ZXeBUje3DiN9+vB2f39+Ph88HcTBs5pB1ve2B77GAgekGfJoC2J0eOJXAVALFgpIN0/RiV2BmbrNf3qbMmdtXNuJnr12P99+4Ga9d7cYFmQhoTDbZ5KcpBudjX89Mn46tKWHWlpMKszO3dAIMa2slKCGceW7ihVMix1FoMEkSvheA6UWHQCO8aHm5QJ7Kg05kPWvVql4Jod2WFtVt67qpfI4EaP0YjkbOF5quQyKoUrh9yHN++cEP9zDuiCU9/T2k8NzBzmv542P5xz85ApjYpNUamfxjmmKie+a+fLQa7ejKRkeDWsRa5N3lktcL4k7ePet0Dk6YdWUVC2Aw58Zi6rEYdyhRPpnUY69fiW+e9uM//tfPpDGN4mDAPBumFMiQgmHFNbyHQxOzmXhKDOLUiXEzvGRGC6b7gxiHUisrByg1pDFtdavx+vUL8XOB0ntyd640c1Kl3muLmZuSZMSLJXZZQRITBy2CXWXM78q35+F49IqY0KkSkJadJwMiwHIWFLvvT2mWFOEVoJQu860i1pE/yoWPjVsCWUwi1Rsf5KlhQKCbAiLqdiZ1lpnXGysCKKFUUxoISw+Phqk90RmdyxVjKhIDRL5Sm8KoYwKkwVkND/edNPz8A0Q+nFaX04vv+Fz3GXpgVjvblifQoiEpLzLt+ifHNu821jfc2W8zW+9lWh2kXqErIsOdNyg/ETrvc1IVu0OcSq2r4sV/IzFILrjfjGcn4/j0m+347e/vx6f3duJ4LI2p0pbZ15XLGcsTMZNncVcADLHdaYKT0tJgHST4zsyOdiOTZCp9TWaKNxZQStkjb7U5kxl3M371s9fjnTtbcXWj4hnH/gxFwKuU6z1aZaVXDI45ZEGTwNLxaq1P8SGQXrdbZcBnN3nMvpbyWz+9yaukMNNUXH1fcn+fnIEJ5zync9nKjwcvOGOEgiwoQVWls15hu3dV4IQE6p6AidlCdPpjbK8Iode7XWkiUqUk1IcHB9Hvs/4B0zDU0Kg8GLBzv6FH8ACNWQxGAm8BMovd1RjSR8PUW38fwU82w3S0+wNvTJTmCbsc15R2oY/fUfhMDj05PrK5uiKtb3Wlo3Q72V6euFGXP/kfCmRLUKoxSin/TMD9KdA5OIlpmFXt/gup0kMJ/liMwvbYB3p+78mRQOlZfPlwTxoUgNUReLXEVM0UUoTJ+raEXgA172D/B9n3jyPCoQWGCXP+Uq5KycekrLnUiEG0q+O4tNaUtnQr3r59RWbcWlxZl6YgU4BVBFqVNPlYVZNUwbpKpcPmLGMpz8kMJlvp0JQ4JvzYyVvpkIvF0+9P5WAExxKUSBUOmqc7C13ONTh3dBjmdlB5h9TzUS3fMaI1suFCU9qWpxuUn4ZIgwKoc3NPgJmJmmC4TgRG1To2lYBKYXre0Snm198OCqD8LR7IA3FU3PM5TrrVEE92263Qv+41ounVHWQGiida2HzyRFvDvbKszjqdm3WqSVgUQWN1Acy5kVqyns7pW/rk62fx8ddP4+F2LwbSmMYGJrV21iJgXusZavHQmhKcTlNzUsoMnHSS2oxTfIzIlR3f6+2KR+TYrPFX774mYFqJa5syY8Sv7vwWx0qs9K7Sp3DQiJxjMu40yi0JOkfAiPM8LsSQV+3Ka7kM4fSEtdScMswyfP36nytIZ04/6cv+rzLtJfmxKDv8+3qqMkMLFSC1mGrR6XhKAWU7Go1kErIonupSL2Lq8ud40CilRWHWoUXlKgMJ16dBZRkDQtnXVNzRtU1u1TsNEzMyV7orsSYbHSxiThugSvoBJ9I+1TnJ8vLLPwGiHF5pssbEKE5NjMcWT1Ld++KR7YNZfHn/eXxxfzse7/S84D4rWI7oZ1KpWWPClBMgWZDEFDVMCQPTaRLgxIe8OdGwLmCqTviy/cQjcrcursR7d6/EL9+8EW/eaMaNrYhNZYMFbJnpjdnnLYpoVhG+omW1aWRXCnWC0dxJGN3/U3rDOTVJ5fG/BVGeL8RG4YryDk8X6ZyD0tIr5MZHOW/pNR0IzE+iNmIn4n6sqRxvbES8fXM13r19Od6+cSGub7ajW+Gj6GGwhB0TUVm1gbBUZApOZ5iMqv/TJLQl1sXymu26JkZvsFFjs9GVOBzX4tFeL758tOMF97b3w2uw52RfJQeNS38JTLrpQvhp0CsPTsyUGUoLYfoANj+d2ydqqO4/PojPvnrm4xGTnOodMY10I3H8VFrSrDpUK5vajNcXF2/U9PJpmnSQtTK5VkMmCeAkwalJY+pURwKibrx757IXz3/v7npc7MiUUz7o/CY9Ugmyj6kQrlKYrdnpXop1AVYvnwNi8lNeQxwLKChCKp+fnkA4LuJ1ORYEMpZXJWDqlKPrQ+eY2OAszud+xpHASKmuJ+y5p8ocj2UKR1xei3jj+kb8/LXrAqpLcWW1FhuNiQx3mco4DzIM/P0b3yVaa5VpqGBPhQjHOyWP+9FgBVIBYpp2yiM7zTRzA9bjSS2eHfTji4fP4utH23Fwwjphyo/7wfishbyh9alOBFY/Ffrp5OR/I6G+exF8OdW3F8/fPRjHvfs7ce/Bns/HYtdaa9Um38SjcvKpVlZcKzbCZGJ4XsBhcFKRwi2nRgAGJiNmGVqQhKY2iWsCpvdev+apAm/fase11YiO+LrBZyjDsZxMGWmErNaYbavSpRY5e2JU8cgszwxCpct7CVK4UtNKPSXvJdOgP5TzpE45w4ozAWBhHuMgUgDgLDvqQ3WIA6i4V1wz+upEYgc1W54dTj68g46qEO0SE/idOysG+PcFUtc3Wt6yiVUBGtK2WByOxqCmsvRnPRTSqeV3puSxogBTOxKc4CX6vBjFm7KCar0bs+ZaHEldZ7niT75+EM+kSfVHeh2tqaq31ACxJAymoWeU/0TolQcnGtVmm109htETwx71IvYOB/EMU64HLLTtvMSumqbcA40v3cXg0mISNMQYEmJrTpKOUpROgwAH+hvGo15MR9KYmpW4cXkj3n/7jt2dq02bKVKklMqxpxN4WoHSRScwn0LQ4c8QOCNvVDnyZaNIYZduGYBKwEJQDIyYHHL+nEXClGsH6Whgxhw5LWElvwlInhyrPyNQPilSl9CQfVPUBQ2LNFm5aZV6Gel6rHMd7QRQVDJ5r9U9KsdQPZ/6KOn+rlB4FK9da8Zf/uKt+NndqzLxOirTSbQETGxO0FHYgAfaE++5Tk6JKGNGUdGcbNoJ7AmeWRF9VlEFsjyXrhF7J8P4+uHT2BOT8jwtctUQJruKacF3p5e+H5JeeXCiBPgsYCRwGokxaLWkeMTRCdsRSdOoqeWqNHUPYYADEAg0JybxMVEOgUWgFU7hELBTIwlSftgp/a1dj2uXt+Lt12/Hz966G7euNvzhboN4JTglk+dSJ8V0QdJsoZYYYLvqPNOYIGTHU+Xd/R8c9a5Bh2vyJ8enMYBRAhIL6CJMCc6nKwxKL8BkDdTSJ5ewaXJ2EphS48XEXgajYUxrApHqQOcDmeIp7Fi3bC5BLgAr8s8GE8qCNN6IdQHUrcuV+NlrN+Nnr98U6G/FVrcuwB9FS3XtfihMPKZwnGJ+qSMaEra6x8RLvEkgZsRwqDSzlhP9UOzcs3NwLO1eaZc/UjEhcyoTtEKVirWonwq98uBEhYrFJXJCJGkarHpSVUvVH8Icuqh1xOhiTXFD9mHQSsmv/AMYBieEWajmDnE45RQJNkVTZ17L1sZK3L55Ld5643bcuVGLNQkUwISmxHQCzAM6VytInDSbckiaj0aZY+mh8BI4YerCJSgZvtLRgvsc4E2HtvSiA5iI63Q1J3JsjUmhLxzXioXy1xl15j9rS3KFpoQ2CzjlkX7EBCdSihaCye6t2NEmawCU0q5GqTaZGqCYD3b3WiN+8dYdmXrX4sp6x/PHmgIlg5PLlzo/vfzSiNicUzrYSRoYLifBwlnshwgosVnrjMEaMaK/7VNabf5Ja6KfCXDCtGN+1E+FqPlXmtBykGE+F/XSqdb+JZoSPj7lTSBKIbfJNpU2hZsJuPSOWMkd5WNpX8PazPvWsbQKK2GiuzCrsyrmgvkbYh4ApB4MbTM8LIa07ImxZgwHK3K1kuxaa01odhwrcRybs6O43Z3GO1dW4uc3NuOtKxGXFX2TdAt1mMfTAsEAG1MhzHIwsAfq9IxZ1CNd0/b7my6lEccI5ABXaURfQNyvCZyr7TipduS6Ou/YMcUil4AtQxdIqXxs5hmoFZHu8yT1Mfym443SnLRWV4BeznRHW0vAAVS9/pRSWUND1TPpRgYYf2Bda0RP6ThROntqOPpK36C6GsPKivysCHw6yqdQe9ZS2C21N4pbADURwLhODcYVxa+61rOmtBQ0zarKsSLBvyBN9I1bNU9ivXt1xZ/9KCaP8rUF/CoBhS1HZtDglD6nHOBUWDRglEKWxMIlZckUNaP80yyii0ozV46Z0DtjsfaaylJgyxLR+M0AmTne1D3MdDFNAdQuL53zwXOFb64oMh7+BOiVBye4aSaJ7dQ75rcRa9CPpb6LSZh7NxrLvmfXW3EA38xV2W1k2hRj0VvB/BfmPCE4UsGFQAMASq3yiI5K+jkEYlUBjjdPFDjR+tZnPcXVlzYjpm8LFJtt8V9b8SqQqYR5JHEcHgucjmKz3o+L1aP41e2N+Ffv3ow/u92NK5I98a8EZuYlTpjLhIlipOPD48LR+uIY0fH+cBKekYTzZDKJnvLal39AqS8BOZF0HcuMOpGfnryeyB3Iz6H4/Fh57ytPA4ECC+75+y8khv4c2YjKrQ6pRZbE5y2FHiYhkkN6lc66wheOG9BsIunIXEiSznD4ZNRXXk6UXmlraiSYJc4yNOyuMlJxjpSuI4V/oOsTvXOisJiTNpRw0i8zmqocJ0KYaUdxdRUX5o40Kz7PJh75nYzGMTgZGpxajYbqBM1pEKtNgZTqaEVxvH5jJX713q14/81rsaFWoDo8jJbSy9rq7Brjtb0JywCj5/Rl1YFd7qXZRR+luwIK8pnBUSXCUSlj5v0Y4GdvQ9XTRJrgWLwxGh/pudKoeFhAeiIeHQ/57Ij8yU9WgvPkreRl6jUVRrMmUPaTs0/K2jnl93Co+VzAwDpxvxJak1pUAUC2dvTX4A/tJrUcBM/LXqgk2fwAfGE1gzR2KF75lWDSz0OnuScFSozsQzdHUsMHQxmVMjtqtWZ0Wp3othrRrosRBWIbEphfvXUzfnbjQtzabMcFAdOKgmWCJcDE0icAJ+Ykw8kI3mRMP0tqbpgFPYXPNlWS1qh3G1FblanabcWg3oh9Jfx5fxLbJxMdp7EnZXG/EHxhsAQmBLi5NVNPxTGV9gKYShr5jiKmJ0BF9lORYxVKIZClYGbJ8ciTGxGkogMXAWcHFrzRz4KAN1sSsHZb+RhFfzAQmKrUdW8mVGCXm+d9pU/pwD06iHi4H/H0MNcSZ11xtRUyzdFGpJ8q4SeDicw5eVY8NanF7DiMqwu0R31pUkP6z/jmUBrdjJ0ImUYwjU0V8K0r6/Hua9fjvTdvxa1Lm9Fl5E8NFyVLntMpT8rXVNpUjpoBVQlOzuQLx/Isy8nvKjQm9fJ9HVpXdvLDe2jtBRfBP/4TL+nXE1DNo7hMg17SpSqNRgD3E6DzDQ5gJbWEbI7Zk9q8Iyb/6EEv/ud//9u4vzuKfdlpPUwFbH5pQxY0mMFnZdEhkHnG+uGAE7jfkJrdHEtrkjmB41Piaa3vzlpGYdi1tlKXKTKWOEw6apXVagsQauNDgc5erHf6MuHW43/3i7fixtZqXNpoe4VEJldW6CdR2nGYSLZNlQ7kPr/qV1qVZtgbUw5sIo3HOtmW2tGTUB6fHMfx8VH0egOBo8BFAltvdqLabEVLILm61hVY5jdpHQk92xetKIyOQqtPpN2Mj60R8R0axlouvo+QUU6IPAKjpFAa9NWgcUiYGC0zWjudCeQ27vQ+RccHyaRvJGFDcFkWeZ/tyXdPPGLlLd1lovYHAheBHR/2dpvNWBfwssXVaruZaVZZMnFVoXkKgE13/WGeo2mwNC4ND6b8TIU6lFaLOT6TdoKxrCgF2mz7dRgffnw/vvjmeTw8GsWhNJ0xKxwYlCh15VNgzRHT2dfKWzlT2/DscuCJTnzNkXsAispNHsa1kTWn/PpAIDRVQyJXFx91pkexMjuJjfpR/F//z/80fvH6emx5MwRp3wqqgQmrlpGvAMvPf846vfLgROs3lWnBpDf6MnYGER8/6Auc/jbu6WJvAGt3LegslJ/a0ILJkhbgxDenbIbAjcZEoiDGYmcM98tUsqMWR0tpcKp25VeajMwQRoNYIK5dORYQTdVyN+Lnty/HP3nnVmxK0AAIyWEwzYqOb1a9BAbouyElLOean1nIKX6EXdHQXRFHAt29w6kA9yg+f7QThxLs4yMBkzQf7z4ioXJHsYCG9bSbCPvGeqwJna5d3Igbl9c9q3pDaajTzyWhaFVUWGhQFkiAxFD5LXCyYUe/DiAqgAKcwCXeBVKHeh9wmmGKUsYqPjQ94VDsn4zimZDp4faB3H7sKiM9oe1IYIpDyJsq77ZMqm6zqvQ24tLmaty4cjmuXV6LzTUJsICnLT/shYcJj/7Roo4U75QJkMoC4DRS+fMJ00TpYIdm5hox//aJtLMPP9mJjz9/FJ89O4zH4okTVbRr3wBLDrnOc4AJ2CnwJ3lFFwo6zwvffmZth3pbgBP1RlcB4FSfyMnU70yPDU6bjeP4H/8vgNNabAmAW96oswQn3gOcsh/srNMr/20d4OSKlGDbFJBQ7Ei9+Pz+U7XSMi10zWez2WGRTAflL1QwQXnDLVaaOHS61sR4Fk5i0TPm3Xj5XwkwLaTUFJkYbT2nlRxEZSgmbEzi7tW1+PmbV+Nnr92Iq+xnhleCV3pSA5HZJwEjWTC+WV+aHeFJ/N03JNkWw8sc0zuPd6QB3HsUv/3iUfzu3vP4+vlJPNw5kuD1YudoGLuy2fZOxvH8eCjNquet1J/vH8XT53txctJX6Cxvy+4gxOdIBYbED8Aoz9ISEHuM1iwnp7b41ZV++B6MzmR3Suscsw8QZSR0goAq/QwmnCg4zMgnAoXP7m/H7z5/4L3pvnq0G4+U5kfSoJ7uncTOYS8OjqXJCMV2df5sdz8eb+/GjtJuAKNfUGE2pVqhQRGXFDIDMTPu2fXYSCgYwjxyWSoX1n5AFjVYKj5voEAfFp3RPaVzvz+OPsOfIhoEVhJwGSin/niY/j2RgnHe/UuGia68njuBEEfzBjyikKxxcV9hKz7Muqa0OjTrTn0Yv1RjdXWr6aWYGTUlthqQSxkSg3nw7NM5OBWVaY1DgMFnAbuSjM/uP0lwGmOqqUVHG/hOcIJS2HxPzOU+KjE3jAU4cd/9WKJcl1yMqPDotGZiJMCUneZiwNlAYNQSKF2K9wVOr11WK68ABI/yA8vqXCfNGkupFKaD4spNFzHhskeLvi/Aid1x7z2dxkeffxMffH4vfv9IGkivFjsj1qpi+WGBWU2GWr2rd/iyLEeOvOfbRIJ4LAA4OIrjXs+d7m3Mva40QgkhJtVIDgEl94bgApg4J8u+S1nowttW0YEs2xMhSlMuQYmv82fKU19e6E+6LzD98PMn8beffB2//+pR3N8+igOpNf74usZyNS1pOc2oNLvC4640HaVb5tqxkHjvuK90C2QBqf6xTNRGdFfbzMFUrGhzzKQGWJRUqkUCTp9ZrcFaVllfABTmFlMO6Ndj2d9upxtDmXTPDvtxIs2TcmfYH1TLD291SiTkWs8IOokQcRzy6MZErvzjn4arBCee06wBTDRyTdVquzKObm0cv3j3Vly70Cw2PR2aL7w4zDk4/dQIYBFYiBnQkDByd0+m8fk30pzE4D0JBPuR0B+DwEEFmxX0MiNgqNhI8Yxxd54XflJzQmsSA0oYK3WxnAQRa4fpBmxEsCWOe+P6Zrxz90LclVnH6gJ8J+eJzgiDwnf/iflZ4UgomMfk9ZcU5kDmBit5si4V23ffezKL33zwaXzw2TfWOnan7diTmXoiIR/KE31faIzSxfJojY5+I8zYhjeaJPzj4+M42N+NgUCq01mRoLb0jPWT6CdKUaN8UrASoLiXzk/sACcEiBIBmCuNZlQbAJOAVffo8/vyWcTffPIkfvfp1/Hg+WGcsNFpZ30OoKzbXml0DUzuTFbIE5WzZ8DTF8SoosrzWC1Lr3fk0daWtL7uSiu/6EfVcHmSCBoSVYJueGqDkk7Kjfk6k29rVLzDd+Ens0Y8ORzHwcnAqwKw1Ame6bMDoOjUn8h85BzzrgShheOwuC7/POPd4CTNsmgE+aNxK8GppWfWnN69HVe2Gv4+sEpfpuoHcPKnUwr2p9DfBFEKrzwlG5TncmIe84+Z1z95vzjmdenynZLmggjTF+dQ+kb91x0JtBdu41qPM4p8h1Gj9W4zNjpS22mU9cjABOMXncp04LOUBov1j5nlrHcdFr6Zo6X32K778S5m0bP49Jtn0kSOY3fIdIBOCrjctN6aayBDCR0fvXA+kZk51n00K7SqaWMljib1eLBzEh9Ii/m7zx7G18/63op9KmChn8n5mwsdpEwZtLKMuPYKjhLm/JyGcpAr+p2ABz6wfrA9kRn3NH5/76nTfDAS8DRWo9LeMDj1BVQ9qYU9tD6B64kaj4P+NA7VqpBeNJtxfcXHnsy6bQHJJwrro88fxv2nkzgSAjKyyiABkzKZ/+X6VvyejiFHWTOy6vlPU7Uc+qeBoD7WOhEbayvWWgE2O3JAC5Ol4HteC8qhluWRJTF3inNx7cciyix9lmHZKTzzlJ6hKadbhExU+Ua6nwq98uA0hyUzUxL33Hr6Kmve5/ZSsNOS/2XiWU4XkNMxGzHe9hM7dxqrlePzBAQU0wBmC76a54NdmXdNqfBM+EMo0NlyvjCAJ8eQ9WSUwqR0eOVGaXb03aA8MJnv+VHE5w8OJJhP4snBMI4QagQWsw0AknZBpy8jU3xgyjrWBic7mXrcM0AxWql7MqUG1W5sy+T9+P52fHL/uYfxT5BdRbosbC8SBSBgUjpZnoZO8DR90HbQSi37nqawL+S4/2wvPibNh0NpTC0P7LNUMhtMnAiUAE/mBbGu1kAoTJq9xhYd2ALSkUB3oOv+rKV0t7zkyNP9YXzy9WP3Iz5TmulHZOACQKT8mdSYq1DqBgCq8jU4qawZzGCCppRa3QvvUNP28J4aBNUXDQXvcP1dwJGkcqF87JIH7Ob3spSSsrx0V7xTlmieI6yMZH47/MXb0ItXZ5deeXCygaGKL2tbdW9GZaVE7nOba+4noxTkk2QkHM+Wzxeadd7zr94phVjsPP/0oCabgdYbZh8PBzHsnfgDUwaG6bP1pEU955iMqRA42olZFQaLk8mycBxoBE+2x/HZ1w/jmyc7EvCGtZ+hBBcAAwQZPUQzsAAqsdbjaP3d6mN6KV2NVhwPJnE8lClKp31nwyD1aLcXnz54Hl8+kZl4AriksDlB5LP45Spdnvu+/chJc/QERKUHc46v7J/tHcY3j57Fk+f7yoPKXPEDfCfDcRwe97xcLkDcEDh4d2MFyIe8nhvV6qgc2ShAACazaogjbAFYTwD14NlBfHHvcTx61lOeEpwUvRzpJkk6FqBJIVJ/GOTcybJBm5I3uSmaqwDMGqvqENB1PSgt1sIMdn9YtFwOJiJePn4HmQdLp7oSEwCARVErMSp5lQllkeH+PWGdMfrDJfiqkGp1LGEFgMynqls6RdfWVvVMTKkbXl8b5rX/8qd0UJ6XQpiU13M/L/DM4sJMrDRMaIUVX7vdjEG/l3NwEADMCpsMpAVByfQxeZFOadLtzlgJYr0hbUDRHfYjHm3vxj3W/pGaUBOo9G22tTyPyasV0FcxEQAyqVCaGp+KYKkYAEmf8o3pySROvuuypiKQ60ur2u3P4t72Udx7flKAExlBMNO882iXHLksBSnPFYESOsJ0UpnWGzLNBKSYcwOl/5vH0si+uCcwmkRPKMp0AvrmmPTZbHcNQgQ21vs4woTI/2g0jiH3EdZaQ8DaVByNmNUAuLbj+OL+k3jw9Hkc9BLA9ZjM6h2VH5NDXccKNVsRARKPAW76+AQM+BWIsvY4wARI4r3sa4JPWFWT+gQ0/zgqc1EeoZKXCmfkURx60mm3bVLi242ZHNtesUEFrPJTIvL7apNq2QK0uDQIpLZU3k+QmZ/rn/N0PFumxfX8LF9couV30KqKa/mjZQakrL2IKcs4HQ9MWl77tLwWo+oULYRBpD2ZLnuHJxZwvmg/QdBndY/C8dlDTXDSmObEUMyWdJgyAmnFSwtNXF4oX6DDyCID1phR7OHHdllHMrF2Tsaxd8xkSQGU/NPPskjRgixcpFmZod8JLQuXkJtzmnb2x57D5EXUBHKIYu7wgl9RUYYLoS1MXLsMvyRji4+YjXT0S6Oqd6VJ1QRMTD1Ao8q4cfmmXuKCo8VCTgEJkxx+mtTKn/ICME7oANeLZI3UJOXRcTvPS2SP1Fumv/BVuPL9pDKUzGcZv5wq3TPqSz/6Sb/Q4uynQq88OFGlc7OtcJJHt3ylag6jub/EjFSwQZ6KSiYqGa24UwTmY3F32W8CgAQVYZ2H7bsGEBwzp0vhzJC/TfNnioYjo3/Pdw9iRwg1lBmEoPMlOyNZnlvF0D/mnIEJyJETKKVDlGWkAVCkSfmmDOgjsgkmYQXsmFrBPKKdw4GX8CBOj1YpAeTMoF7mG6EsU6971jIUJqLuPjcVMUDxZGffYQFU/i6PsvObL5YZbwJr6QBT0pvXCVRlWWac9GuR5orACVNxV3HsHhw6HsDRprB9UoA423q6xlH2GbM3IFBaAeA+s9eL/KYIkVc5p1kuAxSV6eAuPsrQEmwStKE8zl8TlY1P5infZ15ZsyltmQs950DDatKB5P+U6JUHJyg1p2QN6hqN3Ksm0krBcGKicrud9JfMkq0glPdw/jWTloy9IK7KljOPAJNEZM6kuqPToQCEj13dupv5Cq4rDt+i8rFqE2Hb2zuI/YMjva84ZOvR/yLbSBnLTy5eAKe5S3BC0L3udpF6g3QBTkCAZ38rnMG0GvsnQy98xvpXHj4nG6SXhEDOl5zzmsS0BNCfOyQLDKADf3vvUGH1BSSFOOqehQ0plctlXcr0LbmcSEDK7Fy2OvKOp27o7liaHlMPmGaxe3gsLS3BCRgjDc4paSY98u9EAVLMG8pE5COd8tFtf8goKX1OusF7cs6h855+kxNKyjuZtkwf+clj+lv2nRfyR7nJlfPE6GfrtJpuTEvyVAZeMJ+8FM4Zp4KLXmFSpeZOFzqXo949p0XglH1N3BeroUm8QAs2KFkljwX7mWEpXjl4xy4Zs2zp8UEfTEau9/QOC6KxmBiTP72Oj56g/STYFUJgvxyKmAlbp4Wi52/meicnbuWZseyj8lOjDyZToGOGSVjJBhluOhFp4j0FTD+Uc6Vr4qHPC5AbDAbR6/WsNZVCPn/fRLkVTn9c05FMICUwEDV5OTg6ieP+0GCcWhOONxyK3knASUhJRygZkkNbela+V/gSyFQEqHSUHx6fyB07bvsmbYrf8XmeEF3g827wLHs56hOwHwqU+KaPsAg707lwcyJyUfkkaw6XgLRIe+HRVL6fIaXLnHCOSceuMTbtHAb8Ssj40xU38ucnQQU7v7pEVbpiCyaZg1MjwSn7nfTMzJB+svqTaUoqWSLZ7sV2PGPI9/NpAhOfoNCCIrzJXLTyFfcVYTbRxyOMynD0LI+LkMrUlHGXDSrbHNHpTLg8RABBrhyZSkEr3UJsSoAqSK/Y5CycO+WLMrAv3WMqw1gOZYi0lA5anBd39C6d+95dV7d4pxRNYGUgGw9NESBwLIqkiKkgfMqDQKoU7JddhojPIk4R+co+LGl+uj2QSYbTCwmoqgP7piwAJ7SmwnnKB++q7KgX0sgHyQNWfiCtCuRbZrfqpyzH8iyd0oi25DIkvYvjwldSni1CxY/5UulY6bTdOOAJjb8cEEl/JS3OzjK98uBUEmabR5hgAjWc7LJbF0qVKrR/xSt5NWdF0eK89GkAgWnllhnFTFaq83KGBZgVaTXoZM8JmhMAxeqNjL7BegkeJZAQZukWVPCorCY0PphWYCAzhBSynIqd3rGgSkOYSkPIY2pRmSLSnbmiPBjFAoRwzOlhgiLDQjaz5K9sucmr+2WcLALQ3ULbzMuZR5R8vwgfASd/HPkGjpE59xy5LChD+SM8XeE/38JlLrJkSpc+FsfijHTR14YXAY2vDdR6Cw/EJZfnJTCpLBSxoYP4VfT0j/VkzvWkNdEf6DpweAmm1sAUBo5HWRBQUWN6UOTKpVyEbvfdtPCf5/BlLdptwEkNkiPSfZeVzufx/XToHJwgMxYtOhysQlGp1D2XJjvF3elohuPpS8yUPLJEMMsCREr2yrNkyHLdbkymXDsKD/oR0yFEzOfpSxoYXkdzSrDIEMqQ8nyJFAz8yt12qxnNZkMMLMFnmgSPrbHI6So/+Wi6Y5tPc9xRLiGzNuWw9YbS4x1xXTYJRnMIc18Ps9kjmg1plwiLQSCzkWlJYeWCW4nxyjPA4L8khB4NptGSudJoKa+Ao0pKHsp8Jtg72CRrO1zlL/TCEb9EIGfNtyoNVBExH6jRbNoxpakEJ3uUc/+N4ofgBHMDRaDHmHQnA8BpqDrKviz6zvBPGgkr4yZSTrjyneKY5eAcqWBwNFQv+PN70He8pzxTdtQtSXTOiYqy4XQe70+HsiZeZSr4wB3eKU0JTi8AU1nrPC9eKIgnflqGYwfDUrTJuEkFU/pO6ijIPr7sQz88YXTJEwhxzDFSgHMWhhHx6PQU50sEGAECzIVpt1r2Biil9qdQzMWAE9/QMXcJYCod2hT9K5lmBJWWGkEgJoIgvQYogEqRtepVgROjR/KfHk1ZBjiFRJS6j/B4fpY0Ul/jXY4k4bfVFjixA69upl6kWOUv81yQwy+u/IyjYvGxvE4f6fIG3/+hNRqcBIANCbiqtwAnXFGWBpu8X4JNpiHBqS9zDpOOtJWZKNOb+SjuczRxhzIoU1KeL1z6Svci5Z0MqThXedHd4Ch0L8Pkt4TqnxYpu2eLEHqEKD9Qzdae+snKznY/tZFFhaXLai79MQydi/QjtIBQU0cBki7pDm2Le/kaHWFk9Epsm4JWSoDezBUu+ThT74jpGgICluP1Rgd89EtcucaJmFitrbjK+seMUbOG4mukKabn1Sr9IDIZZn35k0ln00551ev+hEXCwQeeSAomB+v9TCVMU6GGt6uiHwvmlVvrVGKzW4lug3eYLpDv8UEGqaqzFpSXC86RLj1UeopwXSKGIOcTQPGKAnriiYjKLL4AKoa1O626P+lo8EzRZFkw8zynJ+CX8EG3XDZYYVNfpFXv4V/JjQudamzWxtGasLVVjsRhQuaoFn8CAqdR6ePodGZacR5iIP0Kz1wA4Mix2mhF4U5Y96g6jI3WNDbZjlypUo3LJ6Zlzcv8DpXXidLEig6kkYcAgYJ0XD0+oRnIzNXDqkxQe9BD8wV/4gFKrXQEkW8ncUbplY50soZEncXwWFdeeYVv4AtBv56LP+AZeKiq8qyrfNq5ogKNRZaLypOBE/EGrJSf5VD6hVas87I+M94yJcSOw5B+0SmUwhHiIv1/aqIMzxRRWQlOqhAdYUA4iINbdjGjv5KHM3SEyZJRKeaslBySVmUHe5BJsAUmjUZHhSFPqhMmDq+1Zd+LWWtCB8CJta+ZMZxMiJPQ2gEeCUwN+W3ovNxcE2aFVXIboxKc6FeR+SLRYEOD8UgMome1Ol+jy2wYHkWlUYnD3iD2jsaekcx3XXWFXVXr734gBetRpLoYT5mmLZ/OBso3s8p7sbVajesXunFxTRrCVPdk2ukFJb6hPCu944HSCghQBopf6YS5MbFy+yQ+AZnG8clJ8RkPnd+SzKlYvkYJKJ91gV+nFesrnVhtS/NR2Xt7Izm68ZvKM0u7VHXkfZPC6o9GMVRE1A8zrht6xL5xtzY7campkpn0oq13qqRZmWcbda87jqqjdAE+dE7ngnrwgMoAftA52g0OPwiizTS9NgP0R4fRqY3i2nozrqy2oq1415U1gIVpEX051iIf694IJpBfTD+SPiTrCu/gZBJ7+ycxGqm++VRGz7zTrv4A8ekYQFXMaEdzl1kvCT50n5r4F6eciCOO5XoJyDMiFTjNWCyYrSvEM6wuKGBqtmexvqm0q7zd76Q/MkhXnpd6Jj3kQXdpFrJpUBnJD+tlAaqwZHZfEPIyKOUb3u7MDWrp8PtSJv5EdObASaXloqKSXyQV9rzQs0D9WYfu+SjnPpcp81MQ1nQzPgGQwLDuNq9RIAgNy+GuSPhaTWlTPGAI3KFCpCFdvqGjHnAFMyZ4FQnUjXJEyEwp/2gwM7XWjA75C31xjD8ghZUk9CyabxNinHllKF8sK0FPhrQGQXgwG7E6YrWPYqbVTj02V5pe7tdzmaQldZUHNBzCIR8ATFPNLyaZ19RuNqPebMmqkcml9BAmUw/W19YS8BWbV91UHJPhcYz7h94a/fKFtbi8tekScKsvf3Y6z5RlPZT59y95kCPNLmsd0VDXpX5d3ejERdbXHfWljbH9uoSXTn0+CZHQM4zOci2stY5g8y1ddkirHIUkLZmF3W5XftrCQZUx7wqIQ8Ddkkq7udKIK+stgXYrVtUCUVdUqzUsNQjCJ9WArpXXCitSSlhz6oPuy29vqHoRCCDgvjn/zbDynHzjwTUzd0mLO+lL5ypTQIEmxv6YX2X+QHvCMiB9AmiVd6cjs9SAKRDu92Mk1AQA6bvMulSZKg8u3mWnENG00tFgUPZlGjlmPTkTOi5qi+MPR/DHmSIYnoL1DrvWgGhtQP4sUHOO3Hw0SXfnFTM/lxZU1FoVoZM9wmpCVQl3al/F4mLdhiqdkGmVhmYSMGeid+3ECWhwbK3Ebiscxwg3Yb9ASpMqPtOYzFIeDU4ig6fu0CfDvKFer+8F/nVqE4jEL4IV25T51BXtL2v+KHkyXRqxsboalzY34uL6qrSamkCKvdmkBc16zqOXCxEwojF400a0JQMdkSg0nMKejAYxHapFF3CyllBL5dBUOQAk17dW4obAaXNVr5AUpSFTszhPIOYe52osyExxZWHG6ZrGYG2lHdevXo6rly/YGGmpXtp6AEDRv8USMUOVB/uyEQpplIw6NIjy4Nmw34vRoKdKktlKPcpOZ5utVaX58tZaXLm4GVsseaJin8p0ZsE8AJJripkkzvmDMlC9UP7cP+kP5QZKfcZXklOQyUiyhzz9h4gywgKYm1+KbLnc8ld3xLgNNSiYdGxoUYdv9QYNBovOtZVP9t+rKk8NpY0dZTCP/WmSLAS+BMCERI9ChsoaymQqPsrTzRBpABTzWKbjhyDq40yRW4qi0Glt5uCkyoCZ7IoiJXPpiuoGIPTARV3+6F6VjiZMPFWe7+o2LVS32xRI0SmMKYXZpaOe4VgnPDczUCoMTvRZ0A9WMtZ3UcGx84PyYnMFcOIm5otEU+cnAqeTk56XlXUyyQhHHKeZTR/pubBTNghttdOM61cux91b1+LqhXUxp0BmsC/mPcqWV4HR05EAVfH3bCM5tAaHprxRnqyQIISSTzE4Hwezd5s0iluXN+OtW1fj5sUVaWV+yWGSbzslsDwnPJ8rnQCwR8/8gpzSS/rR6Fa6EdcuX4rbN67FxY1VgYqe8WGyUoUJSYMxHPRjIHBg2J7pEg5TP3bScPgQdiLzk3RjhmK6Y0RjYl5c78aNK1sCpw2VjzQt0sBIpt51g6Q0kK6pVCQaLDQQJ9FxyUwyOA2iBzjpgcUaDyby5Fz9o4mmNkdLiz5UAwSZXwrPaUztiBFStFZWQgWYcgfi7GWqjHtRGR0LlPqSj9INJC+qO7uUF48SkglTUT+K085pWAIq3/9hyHV0lsiakwq5LOhsBQpGstMd7GsXcOkWbcXiGS0DbY+YQy+z3OxYlZZhqGBQo9WaN9sMO6uY9J/9RiVALTQnuwKg3FFtviJFL7tkBf3MqRwK9tC7rjFPMNd6aqVZJuSkLxlyfDzkhXQGJZwe5Frlugm6KDOsLX3t0mq8ffdmvHnrinfpaE4OozHeiyZrCyg/aGwWKEeu0pGDaRFm+qJY1Yldblkatkl/1ugoamJ8VuZ859bl+Nnda3HzAgMHmSQz+BygSuHKMofIm/MH8JHwoqCFAwZUNm+4pIS+fvNKvH3namy29GZ/PyoDmZBKR1caLGmTKud6R5vCRLF5zk65utdUYF0BWUcAymYRVfb+m/ZlKtbj7tWteO3apbi8sSKNTClDy0ColVTiL8tz5j4zUp7pzlaB6R3hlTUx63JOkzyL8vdl+u6730WUGVqT+84UM6nKMnyRMFPbnW5+haSkVcSg8Innjol3SW7mAfBBNgRWcwdjoJmXf6Qw6ykdIFQ4uhtcAriS4X4YypI/Q0SRogT7uyoLVBb1cmG7E1BCC+igkFCJHMvRHHeo2ok9dczv2KQZSXDKEgGc2t2ONKemziXIaqnk1SAxN+vkljUnjyDqGn9oWcmkKZ4ppot7vs+D4jyzoRuAG2mSKnN0dOLPOkgzPSAAIxyY4UnDkT87JQqQqjhzYnEd2Kr81pV2vPv69Xj79uW4ttGIbhypZRVIibvR2Jgu0ZBr4iSljPR53Mu7DY9jo1Pz0sH1sUzCSS/Wm9O4dXE13rx5Me5cqcdlmXSACpRlrxzOASpzW+bcKVaGc56TniAw1B9PBVLCHmk0pLkZf/b2nbhzaS1W2Pm2fxDRZ6uscawJVVaadWkMik3vAyysDIoAommt6vnmakvprjvdtfFxdHV84/oF7z/32o2NuLAijUPMgLnaUDhoImjjM5Ubne/uO6ManGq0SIRVwCR0Oh6wLAv9mLpBFgqAeoG4X5z+MUQJ8L0i0zn83SLlZ8bALajeaEZ3ZdVaHOH7g2Y+peEjZABKDFul75B5Z9ShzHAGI3C2GPQOwWZ/HwVHyS+B0tzpGf1epbNAvJiWPxWduTXErfeIMdGFKDQLgQqaNaSxkxmZoP1n+deo0kPIEdMsj6Vjp14jUL0R1VY7pnx31mgLYCKOVNfsk/ZoZxDfPNmNZ/snHtpnXSN/zlBUbFHbTgNU9jXxa2emKB2UIJoPJaQSVPdpcClnfU7v0DlODJ12K66uq9W/smpNZs60YkxPY+AdcapeIWh3lDKz3QvP6ZrZ13R2r6yuquUVkI56cXQyiP6I/hnFw/78istmspg4zTdpDtJO6tI4qtKU0FzalWFc2+xIW7oRf/bua/H69Uux0a162VpAxWlQEkqan/sEEU+ySUfZkVYSzD3Aivs6BxQoViZ/dtorAj4GIwQIA6X5RCA9ZtBARAB0VDOCqXQDTA0JYyh/o5P9mArMVnXz2taqzM8r8Yu3bkvbW43rGzlCV6d8BcDspgtf+JMaOcw7wgWoAU/GMmdqmKS8xmcPDuW248n+MPozr1HqpDjlZQaXybe/68GCzBnKO5/HGKSIz+Hme3lH9SHwXWtX49LmSmytr8m8o9+p5i6Ahly1Ju0eXuddmAEeIgg3lPB6yoYtheI6rYbyHG4rQSiP/oPPfCfr6k9NZw6cEHQqjWO2OgBSTigcqcDHus5pBvKhckbTSScmkMPsyjlCOqqC8T8QsB0MKt6j7un+OL5+Ooh7T3ty+/G1wGn3eJQtW5VRImwCKhANIKuzdKWQLtwyOC0qGMaxQEpjYXEyTJ0ciSvMK/l1H4ME49JKJd6S/dSQ5uAlXBw3jKNy0DsJTgqfa91HG6JVtbavZ2zOu7rajDajcsxRUvqlv0RLYdPB3TAQSVBnLEU3io7i6dQm0jhk0sldXm/F7ctsuHAtfv7mbWkgV+PCqrQPpQJxoDPZWeOYP4rDBxEZ5UgiOVG6dQSY0DqYHMmX9jwRNviIN0BiY4WO/bXoSlPCjGHkDTOOzmCee9hdQNqqTpVe9qWbOv1sobTeqsiEuxjvvX4zfv7GTYFpOy6vJTC1ACFGMZV3yg9woLxcftSD0oZmSf8VBt5U5XkwjPjwy+344vF+PD+ZiF/ECwABpLSR7vx5kayl/AMEL8CfCQpl3fpXV/ACMJhOter7/T6DA0ofnzdNWZ5ZAKPksPIn66q7u8G8jUykbLx4jqaWoJTcRgIIOdOb8cNPeVzm3T8lnblNNXN+EpWk1l8FDTDBaux3RruKPkUfjanImYuec528nFk6gg9Opl5GY783iqe7h3F/+8B71+31pvFg5ziORtWotlejL0agb4Bqy6pbkCtRgZeVicNEwPQ06DhliKWfWLOr1pvzuUT+0lxAUVGL3hbioAmsterx67ud+L/961/EZr0vsGLHWmmBgJGQJ+deiaUYSiqEC+mmD32oWDA1Z1JtlPzYPZrF0739uPd8Gve2J97+an9/Pw4ODqLXk1YiYSQNLaFNU8LZ0Xubq+24e+NyXN1aiUsb3bii47UtgEFa2YDpBQxxq0zImuiF/Dvfxbnzrz+EVc7Ljcg/UxcwmXkf08RaleJmNBF3IJXl2W4/7j8/UJ0cxpPd43h+1PfqnsPR2N+40RGOBtRtN2NdNiYbQ2yutePm1Utx6+qF0L+0DoG04mjLb3fWcwd5cgoGkHhHfASRRgOg3HjYj361G5NWIx4eRvxP/+un8V+/fBaPD8ZxPO0IAJryzUvOmd+3NkjGCvqHwAmvABODK4AEmg+ak3lVYaIxMZhBx3a70lfeZFZfWo2tdkVg21LDsRaXpBVvyNy7tNWyBkn7pSLl9aQXkzQnWAXQJy5iLo9lA0t3yZxnnaDvCuW/LZ09cBI7YdaZyVnIflqN47FaCloOPdcTg5PK1po/RNniKOoUBPmV59F46v3Hnu7seqGz/eN+bO8exOPdozhSsYyqLa+fPa13o9FZ8/duVoWz+vRL0SGIpRAW4GOmLMGp7LRPYZ23VAIO1lfq9fsGJ2sQMrNm4350AAgJUFvc8/71evyP//r9uL4q4ZL24wmJykNNGgAzxg1QCCkal1p5zBNMU2aOT9CiAG1dlwLPRgFP9gVWBxHPyffubhweHak8hga3nP9Ui7VuK25cuRh3b10U8zMkL61D4TANCQaejgAnlavSDcBDLucsgczvUrlQIqWwsiYSPqvKtwcAlA9WUfA9pZl0YHry4TPfFx7p0S5m9vNDOTUchwIOpZe6HAz67ntaXxVwXtywu7DejvUufVBsU56mp5TDaIyOoisTtemEKzq9j/hPay1dZu2QZobpGfE7qXRj2GjE59sR//d//3fxu/sHsSfAHMzabqQMSv7PfEHzfqiX7n8X4bPU7M0zZR8PDY7/xOvW31Q3kxPxUj9WVQlsRbHersfFtTUB1LrMva24evFydAWkbdVPuyP+gL1wCg7Agpwa11GWifsYVQbUJwMbzPSn4WEU0xu2inepKSyQIld/Ujpz4OQWGYEXU4/rrdg+mrhVnbU3vRMILJ5sLscPlaEK0GsWipPeIHb29uLpsx0J5543YGTnj1Sc6SAXO8ixVTifNXjlR6nKqMBMGUbMzHQKN2GG9Mj5fCamTbMRdZ3KLcEJBRoqRRWQIz5/0lEkFHDCSRcxGLQFUm9dmMT/8Ovb8edvXo2VpjQneW0o7rokczoYSPjEjQIkVg1A2BV0wfCYsPSTcS6x0zX3R9L+GHmiPwrhpnPXzqkriDiIX4IN49LCIjaYcsTPuXjX+fcgA+WbrxW5yxyW4ATlMc+T0hdUHiH3J8pRotaI0R1UH8IWHbMB8pbhOide3iR9AJQ3v8TpvEwnz3Qp7QPtSVqTBNwtl3MMeOcH0BApGgv0um2ZbeKVg1krdsf1+Lt7+/E//+dP4rPnY2+WwO402Tf0/Ym6gVdcBgYlUss5R5UCfWniaM9RqgBU9A9KW6SvTf6aepKGetUp2tyU1njjQqyoFVkTeHW7KzmRmHJQtmlACLmpExpA1pDni4EbAvVL61Xz1vDkKFZXhHCTkcpZvEOjp3f+1HTmwAmU8ZY8spmPZ8344uFO/NdPvonnvZl3hAVM2P2VykB1YpIdM8L5TguGh6mZ6s/CZsey3dn1g5YT9d5f5SNsqmbDieIopx6YeSTg+acrVzICmMBTAlQ5cgcYIGip6eFHTKZ3aCEx6/IOo4AlOInEDIATDEgrxizpu+uj+FfvXYp//ovXYrPbcIuHidIS08zUurd4H2FT/txEFiCE6LFJo7+7QwD4I9ESOOkG9o4fgIkysX/SQFLkKL/iVCnNax/l5rqjwnN5yfFu/uaxLI/ymtB5p4iloIWPkhoSRHZMBkDo30OzwewyKJVO3jPEpExTAZ66ybnTqvOyaDGRACa2fJ+T6pctsQAnp0RxsrFEi73LxTsH0Y1t2cT/8eMn8e9+9yA+28GclDe9Qx2eBpV1kyTeMiiR6KK0qD/+DFKYvslvNj9V7na6w1QS8lutDaWJj6PVqkdbKhQbn9bE124olKf8TlTvj3tRHfWiK1XpqjTNX779Wrx9+2psdVS7wxN/miQ13mlg6mZaA39aOnuak50qSy3egdT+D7/ajv/lv34cnz4+iH0+lBWjTettd5y6BebjNObCAFRoP8wPEVMyK9qzowVmEzEbY1VwsvuD7PK8vGfmLeK2PS6XELMMUDNPxBwKMOiQZ6QJzSnBKYW1DLvUnEiPvwEjeKcz32FzTb5Xu97txy9vr8R/95fvxdULrWirAACnjp6FwAmBdLtm5iGGApy4NjDB1IYhx1qR+NfkmM9SglP5hH/xuB2k7MyJW+myZEqX+SH5Cdp5xiGfQ+Vx/szEvcVVSUyuzd5DngPylGV24mKeYrLP+xR1dCj6wWGSlNpBzvch/0pXURd0/ldnwFwGAPh5H7w5OMk/Jg3qls4PYiUeyZz8f/7m8/jN14fxuczh0VAC7pGxMhHfhwAdylBxi9x/6Nv8kiI5nWZ9opVzO337e0w9sImvGwlOPAN81cBJ9WVwxOl0vlTD4i268q11CaSZv7ZWn8brV7fin/3y3fj569fjohSm2eDEfY+y3RW/ZMqj1ET+pyVY/EwRAkMfBcPlzASoNNjBtuXO64NhRQBVs9sbVKVJ1eJIajju2Me6d649mjSldbXjJDrRq6zEoLYqp2M1d4odVZhSQL9CftWdAghAmTfkUOoFOICOhCDnW9G/lCAE06XjV3+8NL9XCm0+N+k0xRanuKzBiSnEcL3hLLZ3T/zRKX07CTPyCa7V8IMJpAfgG4xrx7k8EarSStrqdsrNZBCV8bFazsOoj4+iOTmO9lQtpVxHzNqZjXQ9lWYmBpYzM8s5v3IpxOncvyI/jqd4VgK3o/8WpcAtiDJ4yRGeACKd2myltzrpK939aOheS3XfUnZb8saxXTjOm0o3u8owAdOjkAIivi+0BqtwSWPGI6KMi7J2eWfqdZucZm4wfVmFYHv3MHpCBm826qbgu3P3fShLRrEqnaRmmZf8REDKaPEI/qx13FmP6+EqbC/fSX6urka/vqHr1TiYdmN/ItkYNeUasT+mQW+K/xveVp3NUo/VdqOZTtWgKmsokwZzplLAaaef0z+ezhw4wbxswz2TLUIZNpqtaHW60qSkgQioQloTmhDWeWpFFLxUVN2PBvOZ2Gpbz+VnUPiTlLsTlvDs3PzCGDhVEhVVVJadVW1a5QSCUlMpncVM90zl0XeXj4tH9m+nO5kAn3sypiRk97Afe0dDrytuduVF1VxFLTzAlOBEvxKtK8fCn2NAg0St15EHRGSbTg4gKGI2FWBDqBZVhYUoJjQrNJ4Vz/1u4RKk0/mZw8swszRKIj08yXR9l0MkMXdteuqIdol2x0fb7o9iBjfapYCqSj+bHPdYGsYzo/WmTVDqUxqpBU35SCriMRihlRE+TqlEKvHv/pWECsr+8LjvwRI+8UHDynlChHMaVKTHDlFMzSljpyQWzvcUbzryBQOU1/m2+9d0vyogw8jN2d70l0pTFs8HciA3kwywyzOy4XXqladc1aHoi1SAlLl71OvkV+c/AJ05cKIiqIQEDJ3X68GGi4ATu4IwijJgC221COzX1lNps9MGndx0bNOHAZON6AhVBU1RWRVQrhJJ/1Q6TIt02PmFg0kK0Cq1FF8pPYCSKxU2IpEk0b/LxJ3SiexP/nWJQ2iyShIO0JyGarGP+pPYPejnpyx6iheHIAF0GpSmuTNI6bnCThAQI/MHh5WOAJDggsHdV8Vooe55gT0/LgAJbw6pEBCcE5vARPkAJ7gX/BRuQXnFXehFX0sOdVgNCdukRx1hypUSPKdL4TNY0JA2ZIcuw+c1RQcxfMH8MEY+2diBSYqM/hFb2ZAkMMlxlFAaoHQ/y4zyyMaKhoEleZ/vHcRRLxuGsXjFfKZ0nhY5z4o3w6Sm9KvyNSAVgD8HfR1xuTBi4RenH/KOJcaSLSNmjYvpGY1msi1fSxjoBVYJQjnok7JAoy6wUr4BYLZqh+uHHuqmxojhhyHVxtkimLTVablfAPlqiJdZKgOmKme+uh+nzjIgHW+pzUxxGLL8bIWWghak1lqJWlPakzSxybgfU5kQU5kEM5z7JlRNYv4EJ2CICktgyhGwBIISmJj8Ntec5Bb04hXX6YtTgFEuT5UPBCSZFQdjjcbVeLZzFHuHEexUi5DRiW2+sXsRmMo0GSTxLEacO1c5TmVQCuP8HvHKG+kRk5dmm1Oi80xRCorhswCwuQDZlX4IaUHLV/j4Q2SwcMNBXxD9g7T8pI18kA7iSjDk8xNmtpff2fGMNGP28/G0F2CTKwrJ8dopvNTKFsDkRkYu0Vih6z12anny7LmEduZ13THx2UX4NIn0FKU5LxenVvkwQPmp+M+DO7nEj/smdeQen+5U3U+JRsnYJlM8asFmCD4KpJlFXpcDsPkmj/yTj6YsjpX1jdi6dCVWNzej1RUHKHtVVsZQsbG0MbPnfyii1s8WiQFZhIxJctLmDVAtAQw1ygeZ3qYIfzT/ZrQUE55NVJlM9huNiiPzllTJak/kBnKMlA0VJk5mAke1zvQ24GQ/qGJxJUCJR5SAMU4VjpuDwhItX734pBRa3QVEODq96ZArFgljYbXt5wext38UA2Em7zADnLlNrkGlRanRn44+Tz8ZToKOncEJ3YMhevpP+Awj+9U8KiY//t5QGQP8/D5HforQSrcIdfleClNqVnnv25QlsHgrXUnADqWeJa80Fa19NguZZ2/RbrNUdYHQFi5XJ5C2AIvIMa/LIO7wi7gMTNRT4cpwcfLLEb8I5eHRUTx9tq37zLsau2GzcC+l9/tQWUqliZkARakWKVZ+SuBPR/+mSmgZjIoZ/p7lP+0X19yXX/zpCIhVOVJ2k9z0guV4jgS+bHHlrdvVppcNW7Up8EJrFUihRX5XLf4pKEviDBEsxsibvwlTQTIXZ3V1NZrNlhinsI8l4O7YhFnl3eaKVH1UfI+M6TlixDwZ2KNRn0WzrhanJlGtSUz5aBRwKkBJSq58qbWaAxOaSgFOCstzmxQuHwF7jhPBvkROVnJjHqGXPOZj+7TzonIAhcBpV8B0cHhicDJoSXiAIUXnWuS8BEzKIM264qE9FE4CP6G/gekTmMFqQSdqUf19lwTEgiKXguLSLkhXKs9s0XEW8bzn0sTlG3bFi8shLGiRx3QO3UdCVTOgEqejViBjEMn0uF5LR7gStgQpXMbj2P0OqeM9XBlH5okGJMGJYwokrACQUbb4oZE7Pu7Fzu6+w2NbKMAJYT1NmqeX0tTR105vUc6Ut/JHraAVWTMS/7mJEUDh+PQoBwHKgQDAKzUqViflyFSanPWdjuIir2hJaFBoTDQAaEwQXzC43FVGZR39qQluPWOk0lPl8MEnJh3TMVa7zVhfaefCZPJRFmfa2qpimgXmPvH5h16qC9XqfHrB92rygbpblRmBq+AqDC2jvtNKqoLUes+F2+hHsWUsZVyudCqbN2AmM4JI7xCG2QvhL1wKG35SsNENrL6rZURUABsLjYAVIT3o9+P54WEc9kqNIMNllkumVc5LvBYCqXQ6dMLIBCpxlJ3u6miTTPdKBw/mMZ8luuBKUnh6jkfS7nIlngIE0nGvcPgVFaXA2z5mmC+7xXNCY67S3Om+TTbF645g+qRUX7mNVFmWmQ6QGn/kw/1PcjMaDfoYK9kfSToRUoS4JWHuqKHrqshZLpgkAIwneu/psBOPjqvxfMBSbWIyIRfD74x4klZS+30d5NJCG1LKCDfrC02cOVhyAgl3Qyhv/hZRR2odp9w6BMoAfwOVy0iNsNoy3ZOlQDi6n6tlKO/IgY400Ezl6jYrsdKcxkan4pVB+QKAMqfqc9RVwVMuPxAhZWeMihJjPoxOaTRjMjA4eTa2HKqrP4dQxcC485EITD4xI70HFbU4GA/SS6TmYg7qTG46EbvwISWAZMGXE3Oj9yJ0LjKFNx8BKyrTTj6yTwSG4yjvvgsDpTmVbR/CBGOVT2H4dLRfYlE5NCGlR5KG6TiU90fb2/FkZ9dTChD+qdKI89wlCR/rT+ca1Fmt+HEYOk5IjPukKDAXmvLIMrRyMm3tdJ4T71IAdWGXv85dOoU5104kGHlcnPt54XeZFne/7UpCUPOLSUpLQovgqizxg0/ODOOKC4CaFs79jUUYNit5R+/i35/vKF3ld5FKqbWN1rQXncmJndcZwJ/eP1DxfPp8HJ9tD6JXW4+TcS4v0xageU12YiJrp+DIUc6FKxsl5U9pzcm8KgH4Rg7gd7RSd3BqWx0A9UBZML9uIPVnBBjXVM9iX2Z2Z/kwT6zow1M4NKnEW531YzY8FDCNDU5dsQ7z5yYy+Zjs6+84/ffDUHLxmSJYUBUkTvJENOWg02p4vW92B6ElgsmyVcnKS/ZPoUlKNlc1FozM8wSy73YU07LLsBduQXmH8EvKuIltWZAXPor8yEd5jktgEYMpzSM5vjg/ESrty9TYP5aXMhlKH6afMFeXBWByu6B5iEV4mH7ypDvEt3DE/3Ia0i1T5uzbjvyU5ZyuSNw/mhyaBLUUWEqOeyUtx5e1vYh3EWd5J98rtUffUVlmnYPw1H+aRgAgvtE6nh1E3N/tx9ODURwMVO5DvanC87CK/BESfk/DQctpLeu8/AwKl/yy4Lv8g/JNnns6gLsVuC41MFzx/gthZOmxLvwaa19Jg+KLBGGTgS+5nnLCa5nKPz2R2jNIKjC+I6MQlYOVbjU21lYSRgxYZeXZp0q8rPqySnElQ/xwhf/HkCFU2hHL6bLY2fO9Q0/KtIg4IyoAMRBf53u0zAJUsKGyRh7LXGaOy5J5Ncg5VuZRHMvzpOQCRCC1QEknyrJu7Qmc6Gs67vVVmipRlSdTVjCH6Kc5C/RiMrkqaz85oNwUYWN9zfsceiUDfME7yqeX55HfHAz5YehsghOSCUOh4uqU9ac31lbdl2StSRxYLvQG5W95tUz5/o+ZSCGmIKNpJwKnbYHTs509m6nkxx38+AOcdCdNoASoF3NcsKWY8tWiAqjtKI8XyyTvokdI69AjjKu9w6PYPzz2iC47vVQEXKyewJvejcXv/TjJ2nFx/m3K/OcgRkRTgLu5sSFwYk5YPma0k4mc7riD/nBg/83pzIGThdVorqMFMkfsNqU5dZq1nPtS9FWkJkFl+FUT7/+A5f2PJvpS+JCZEbbeuBrPD/vxZOcwjvqRAKUC8Exo+TUoGZiKo1yZW5ebwsr8F4z3ChB1X3S3zfkhH1AGKiGVCX069LR5eRaZcc9lNx+c9FW+MpTrDdcB/Zfe2y+HeH+85Owt129R4+aJbLzgC7pAWo1abG2s6ZhAoEcpU2am5JPUu38YOnvgpLIqVWtvp6QCZVuf9RXW72nKdqYCAKaiv8JAVhZwijAuBXS5En+c5H6qatMfMw8Fuwc9aU/7J3KTOGHOk7LAtAmPUimvyXxL4Fy0kslosOePP8+nSaWILYBaPOMiwJyjD7CYjKk7zAJ/thde0+vgeODpAzQA1qhUjkzfoGEsueksEFmd1zz8wFFlwBIzLA3j7hAUJTyTtxKcIL/8w/HLmQMnCswCJg6j2NA+mba/0o7YWut63WnmeOTIXVkZvPNdxN0fN6vBVh6tqQFODWtPO1Kb7j16FruHU3+awyxvf2vlvAqcAKgSnOf540lZGrhXgyyYLg9yj8u71h9UZh4TZERMxccUjYdPj+L5wbGAf6KyncVQph1v0QCwHnuDnSt/9JR1nHWvGncDVfJGNlxMu1nrthOcCgHhuQFKzq1+EcoPRWcPnCguMQqFSKedC1blyC4g7E3WbbEgiMAp2U++s4IWampZcfyWhJ8fJ5EDvoPikw6+Hu9Pa7F/Mo6vHjyVEJ1Ye2JyIJ26i3wVmsIcnGnt009evTqU5kzBCwhdQZ5igcaESadCY+EgNrX46uHT2BX4M9FkxhA8apb4jDfZiaXcZ/BHS3Omzrxm/ScvzE06g1PNwLSxym42OSeMT8Mgb3kv83WpuH4QOoOaU4ITYudRBcpT4MQWPxtSn1j7mj4nvrlagFNJeM4KgPJZwtWPlciB150S5OLQno4G03jwbNdC1BM40eKTW3KEAOZoHXeUt2WBJMc/oJr+QxB1XGpOCc1FOeiK4XdPVNRNTLrnhwIngf6+TDo0qhmz511mVa97zmcfP+To1R9LNltdzVn/mduUh1KjbklO0JxWuwUwyTeyBHuQRwab/H0lwfxAdObAKYsal1R2eLIw29ZaJ1aEUgYnOavyOPmbv0Ph58GubC1+rERa+bbLw91q6dEJWVv7+eEgnqqpZx4OHbnczz4UFYTzREazD4EjfVLzzL9CRLYZvR2P+SCGayAq+5nQjJh0ida0exLxzePn7gw/xqRTmbssVWYIKxtATNgKvRiE+fFSUcekfyreVxZyao00IZUB66Mzv6nbbMSmkIkljb2kOjwCgKvAyG8CU8EzPxBR+meKKDjWAqfg3CGuazr3mER27WIrNrpN6RYAU5p2fLEOg5br38xlU/dY8wf3YyYmVvrzGjnPMp/xgW6ad1892o5nB/04VquPkNHS00b6+y8yrbJh+QwYjeFhbuVX+q8OIWwI58kxM1d1zfw4lQ9fDYhBPLmVXV4ePOnFR59/LRW86xnVfT0YjiSsfPwqAtzdcUwhLrjoR0eq8kydkpnbjlWjJSACkge9Y2lM1ei26rG51o2Lm2sxEWZjddD0MZPX3STya51JeSXfP1RuVdxnjCgwzzmh4HIymafay7EN97rAiZ1fPcNYBU5Z46/4IQQXNus30QpiW//YiaSPR3xewvdSfBgr7Ung9PxoGA+fH8Su5K7s0OWbO/b7J5P0kdCB6112FQa5/7FriqdOSKuIj8M5MzYLfADyoc6n4pkTgfuOTLn9k5HXAGMBNj77gM/KbdtTs0AL/fHzCzVNY0z/2HjMpqR9p73NB3V8CKyGG0Bqq1VHbgwC5A15KfjE5Isfjl/OHDilJtGQoLoKrDXZ6RnbFl3cWI1NvrOjt0AFjjoLV7pFUUEDavCnVVcBU06q+/ESJgn7qE2lksMm2d9Wl2DVY0fgdO/xTjze60dP2UDYhgInRvBYKRTimzADElKp/x+Q134QmghMENBms2lwZ54Sn3WgOGEOU2Y7hxFPWJJGAHUijQmd2x/ICpwQcpRrNA+2K8f0+bFTaj2qe2mJ7CIzkQalHPkzL/qc2EJqfaXja6bh0DXCGlFp1sFj/Czk5IeiMwdOFBpfpgNOlB6FjgOcutLAL22sxYX1FbcMtrNt+okh9dylzfsWcwjgchXk5Y+QYBF/lqN80BKSdzpy+cr+aFSJB88P4+H2YeyxWoH8e3XDWSXGEkTPoDcaMfoixEK4HOarQ5i0dAOwvx48wEaczF3iGzrKa/+k3A9vPw4HY68EWX5UnFM0klsMTgqh7GD+sVKZMs/0RmM2e9P1UZFMsCLDNDYlH5e2NgRSadJZGyw0JwMxef4RMMmZAycXvkqQSXGADneoADrFKegLGx3Z0qtWYd3KAUxiUGtK8m1m8yhfgtSPXVDdmrF4WIUdWfKbJ+8VV2Epj7o7xtmh+PHOTKZemnfTijRLOkRdWMqhGNXbaf3oO3NPnygCHLO7DewqF1Z1QBRZBfPZbsT9J8/j2d6hl0TmO0avvAZA8S5lRh1IcD09BWZzuf44KUFF/AEg64w+Vfrc3Lda9Cld2NyIyxe3otNMq8NyQsOlfCER1rRVTotsOtA/OZ09zUkFRdvFioheFZGCVSlS6NjP7PR6UdrTerdjn6VmhKBmYWfhexqCKgwV9ocp+j+OWMUwRn3B0CQFQ7mgm4zRJjZuOFLzDzh9/fi5d/NlqYwqunoVgCqq16+lSfJjbvX/WxD1jMbJ9uXu3JaphuZUuofPduLh0+dxcDJwRzjrfnmdcPEIjZrNfpWbB1cAJ5Xfj7kMMUNxE89TksakBg0HMI0GPX/ge2FzPbY2a/5sBYsDC8NO/FXKgptyARRPfyg6c+AEW8A0QpW8RiNQRQBMLFVEa8D3QluqAPbQhzntj7I2T+FRgARAFe5HTYAvO47MyOdIPIaJqhZeVccStuxMvH3Qi68ePounO+FF6mn4qw2WLibvAHHm04v/04L+iIXrtMkdwwIlf3ZCedBnpyJgftjzvYgHj595dxXmkgFMXiNc/mCxHA1OoaVhsFkn92MnN7zKA10asDdVjubMVIiVTsdbt3fbyi5tGP7FD9nki/ixsHAh8s0fhlJyzxhRbl5yl0KHgVBXVdA0crQM66utuCCbusGql7pBZZUYRIuwEE2dJ2L9aKnsEKcjk05xwIrVPBG0Povuy4RjvaHH23vx1f3HsX8kjcC8Vbbv+lXmyb6CyUvff7Wozge8nMAzOjlQOX3x9ZN4/Gzbuz8bdhBogIlzeSp5I2dPU6KFpv4jJlex0l0T3+cH8iXNot1uxrWrl2Nzve1VZEs+oB8tQQpCW0ytC5n5Ie2KMwlOUIITyVcFILA6pU8PDZYlVNbX1rwkREOVlEPpKazUV7pkvpIBf6xEDptSCzEp2L0YhmGvPtSjgewS5j4xurR32IuvHzzRcaz7fNIiZ7Mk8+fcI1g/cuE6bUJA+WC3Ko3Iu4moGHAHRyfx5VffxPPdA5UX38/Rl5fPrDXJ0Ywhmimk3BCDKSye/FgJ8GSEkpE687czIpNU6tPaykrcuHYtNjfyY3k3ViLyBp+RT71UyAUA5cc/GJGmM0eUWZplyoBK2CtgqiRrzADSwxy168SFNbUQOX7lpVRY2xsBz8871CZIldcts+DC5bjMdzs9p6OQ+iYRcmZe31BALHMrl6M6ycTprcLEBo+i0SpLlZOwkAKLhLWi3BASX4v3eDqVGeLJle6gpR1LE438Q+Ta2tOkGg92juOb58ex3Ys4VgDszTdQ2tiHr1adRH2mB+z46/Tq/RccrKA86mincKWzybH+45KrNF9y8quyzV1pvr/DusreHZaULZwAONOCI1040inPRZnM/5S1HFFL5sYkYz+eiXiEHV2YDX4gBfTB7ji+etqLvb5AftaRjzT9GO9kQ4ta9HVUfYqIdxIdaaSrutNUOgkZv3/IFbR0Sdr4JQrwLdOejWbxZO7gn+QL8YRdzk3KT08WPALxRqn1+XMcmfks3Uz4aNz+4IkdnSvHcX2jFncuSy46avD0LoNISfKvuqRcdeIQa6oLhlwoA9L0Q9CZAyeKKUVXFarUs38drcBs3PdyKSpTzxa/eaUVb929LoEUo02G0WLavipr1Oup0tjTq67Mi8GpZ44vOSr7Bcc9CS2jYNm6IvSLSmPd8vFoFJMR20pxX8LGczEf7wNMfOWORkPHLF+4k5McCaJ7m1GhJXAq3vPGmjbfpAHWBQbyP+j35UVqektCJe/eJLHSil3d/vDrp/Hlk2EcqBxm7YqFUaIZlQYRD4SdAiiFQb6ZC+Wj4kA8YFIzasngzrtYs3DlbiWMcpXOS7oov98FNP94p3QpBSmC6SiDsj7S5FoAUyoxCDhzuahNJYh6kbZAFXCvJv6oSfPsjwTKarQGeuXhbsTH3+zFTq8Rg8qayg7QYfNOwmJEayRNXA1dVWJPPlUWo1lb/taVhk7G75S+7JZI6TCP6FTNicIxVDrNfKfHkdHDqqcscE7foNKMU+LJqfnBDZ40Zjd68Igzbcdv1gm+KSPVX42+xmacHPc8ybJTm0Rzehzd2VHcudQWQMmyUBx1rAwFIMxzfQNjNEpo2uS5wdJDFYGTgDHj+9MTJXbmCJlfLi5Vjx1rgrvNVeGySsGNy5txZWs1mjUx/XjglqQjUABEmHENY7QwkUwvVcALl2pNVGMs1Yo5yaxhuxorCNKv1YhmqyWbvh2tdssqdAOTUoZ9rcGOL3KKl3NS2R+OotcTkpjmbZ8c54uIwYwSFF58ohQVF8nG7NZaiecHvXiwvR/3nu7Gk4MUxGa3JV4Vw7rQ1AoqTISYmfWMYjFJ02mV+Yv52GykK/skSgf5XMG84HyPX1jp+7oipqKCnUfAs3D+Un6aH+DihzTn6qepTfJSaoVykn46hDHpxnq52mh5DtOj53zcuxsPnh3FQZ+PqlUnVfGAtEyiy5IGFtEYEggSjNDi0BTR3hRXkdQ/RE4Ggs6f/KappJDEGy3xCpNCSbMhRuDiJPMO/hyC3kPDJo/iL44LSh/QgjNKBwmU6fifjMz3LWnNF1YacXG1ESuqV7VZgqIEJ5exQyCPGdoiLBrL8vxPT3DEmaPUWlRkOF1zzE49FNMEp7Yq4fKFdly9tOW1a0KVxHd2bYHHSMA0YMtmuIHWUu8VbY9dAp2qSWHOneIx/8sRJ6+OxfgjCcyIo/g4Jz9Kk1H4fChKx6JH13TkpdwiOxkRoUkqGWJByRDkST+OG7cEXgRQ+PEZTA6DC2wPjvtx//Gz+ObRjsAK9ooYstTKTMJV60oGafl5S+HRMsuxe+xsrDSTbgH3VE7Nu7dBSsduJaUTKCy5uvJRnQqoJxKg7+lqcnWpZuyE0vI24wvXQJvRERMdI4udbhkgmMiVR4/cKo0uKxUeZUVNjpR3OEPYHQ8e78ZX9x/Fs539GLDSgOrM5V9Wrqk8ZjknSOEoTftW/KX/0pXgWjr96lAVeLq/U+maoQXp6M51pX8snuT7NzRxoBD+YfVNRg758Di30M+Pva1bW0tdgLj5lPBUR4zmsl8d5+SIhnTiOh15rfBLF16c20QomHXmd5cZeU0qciiXgFXG96cm0nimKNkFlyJmOdUZhWtwUsUDTnxGtLEacU3gtC7twf1SgFMrTaMElaLDWIHMl9VYdkW4WXGKT4KYLSDgJNaQw6wCkMxgNvt0rpbdfuU4Z5sqt/Yir1qJ7g7DEvIfrPeMs4y/TAOR5yt5bWDijoCJrdf7SszTnYO493hbWsJJHCltmHb9GSaMNIQ6m49WzaAMHlhQEDq0qoK5bWbqnG2QlneUTdePxpIDnGoCp5o0kO/rqhxVIN4WSuZ4TjMtncDJTs9kenFMkQWIVFfKB45RW+b10AgYGFTe+EaLfL4/iIfPnhuYekMBhcoMsWRCb/Y3UbJlhWQ5Z7kX4KR4XO7cmvtdclSmHZc6cht+4QaXvqUwBFJTmWozOeKF09B+F+YsgERumSoCuAJS8gM4FVwJZc1nORi0ZYJ5XpzuoxHzVQCguKIG+eqli3Hlwma0pTIhH+hhjq0As5IybMVBY4cr4voh6MyBk0kMQJ8D/LRcrBQl6zg1VZ5t5WxVrcSNy+sy7VZipSmGReCoGLQlKk9vMKK1KH9CW7iyRXFLrErMfephHzoMJQgIN0Ku9+mc9zwinydAeg9/+eWdUpMizTlRDvYg4nQvM0F512lROpyeuS/u5530BeOK1WRyMO9p91hCKLXp/rPD2D7OzvEe/RCVlRCkeOE6Otrt9F72WygcOT7zwISogF6Oh7hheJzyj6MfonAGNMpHT07FuZwVtkCRvhYEOYETbYm0ZFlQ4F5hADSy03ldFc4kSh0ZRODj3RGjmhLdXbSm7SMB9lHs9wQMtZa0yHaWm4LDZQkvE1eFEyBSBuYFnalq5VReJSBx1+hTuIKod/gGXqB/lM1cZxOZ9BP2hmPWP7UHTwGu9DuJN2Aq1U25jDDAlD1OWV+ARknmCfhUzg2LyooyMx8qrU2dbKx1bUFc3Ci2gFLa0Yjz4/jk58w5PFDwEnGp3BKgfhha5PLMEJVfVhBMAINwX5UkYMoiVaXrEfb1jYsA1FZsrkhjmEj9H6q1FzOzfTkTFb/dOpQsWgBCUfEWjEIQASX6OrIzPmfgcmxIoJsS7IYEhy4CnsMcPEe1x5RjU0+30oqSWMrYkpbO8SPKHOKrZKCFb8h3FPZYpgBbR9GvcjScxfZBPx7sHMXDvYhD3esrPbgTvcB6UHwczD75dgJoTFR/EkSILg5CLsDAedcLdgVA+cs0XCmwp+OIYybBnamuEqQWADVPD6lUWuVTDo2VFLEgH65qs6inmyfSInt67URBPNgex1cPdwxOrB5aabQFwDnaCDA5VOc7eSF/IcqDtCmfApPkBd0CmOwLl7yYdZmuDGFsrZmUiS8FRIyCkb+KtNBWfSpHWIQtcAJwxZtp/tcFvlJzGKkFcAWyAJVCWIqDd7MBNMgQDk48hqUA762ttOPS1npcllknjMq+JpVpTQ1LuZx1vkcJkFtSCkAVZmSRtx+CziQ45fArSZcTo+g/f1RRTBfA9mZwigXoNjoy7bZWY2tVJs2oH8cHu8n05h8qISt6WXuYN4SqmqyqbGHQymxSqGKrYrAY9dTAH8ekf2g37ek4YP2SQYwHPTviQgkBtNCuSrMwIyAi3SvS4NtLlHdedKXP0nd5RUtbkyYQtbbMuFxO5YtHO/HRl0/jm+cCLHkfKR0TAdRYHDppiPFk+04ajRhLi8h+qapXN2Byp/vQJAhlu+r0vkzOiDQBlctpOaq0Io2oIsHERSGgHoUqBJXdaMY6J59oRaR9KOEdSbDZjnsoN1B58NHPPtMGlP9Pv96OLwVO24cDgVbF+wAC0IBTuTRKmccSdBD8LGEEFychztLmqR7hJ68WI544ZQPTWflgtJD3DbZjge4YrUlufCLeOYqZXHXci6p4qapnFfkxIAswXL7+V/hFI2o+VSHBM0nlMYn0mV8F6Cuy4a4IlOjauLCuBlnP2Sk4gSk1J0Ir8wRlbhOcEgxVIT8QVQYDeiTODrnQUHl17gJ2K4BGQ+uquxSo3KDSkSlTjSP5+/hhxF9/eC9+8/uv4tG+7PzWhpibNbnZkwx5cPXbUT30N/laxxTNssqoKrglHfY8WgUtXjnyld8ySYs5PlGLPVNaJWQsYMbuKWqi6aMCSJjWABNmH4/CUDiO3UCVMcGIyUToBU5Z3qf1NLPCOHoiwahVZwJACRpahwCzOu3HimT6xuWN+Nmbd+POzQuxtSawpi9O99l6Wrhk4DRjZlYcopKfIUujcv7n5VA45b0sLzNwITinQdRHyl2eZI0UMdPvUp5zX4nkWGo+WOh81DsSKwwk44PRKJ4ejOPzh7vx+f3t+ObJnky6qXijHeNqV1qWwJm0q96qFTQzNJw0oDjO537ZZac6ncjLneGkLxu4gpx2vaH6pU6o49SUxKdq2Nqy9/OjdGnQarjQeFlAkLw5Zh9pFNBcUlvCURYGRMJWbtOEo144lk0IfWdZPp3aNK6t1eO9O5fjn7x1LX5xuxEXhE7V/jA6gnSxqYJC79RbxOH4CIX6LPOGCqDQFM9SDv9kdAbBSUyikgUf0JIAp3KSWrKoSl2FPK5Kg3A/S8QjIdTffHEQ/+HvPo9PHx7EqLkex5Oq+19Qo6mIrAq5QhCpcOsNZgIqP4/Aop3CBZQw5dqtVnQ67ei0W55SwHpTD588jWd7RzYrotGNWaNjjQQThO+3MP1oSRMIM74UxmVXVVxiWT3jKoWkZCBSwTWMJFDiCsBDU5MQ1GZDAdRQ8Uziuszaa5cvxmqnKWDS9Xor1tu1WF3pRlcoxb5/gBQlQb5gXJZu9QqJpJcYdCwZNY/cV5roQ9GFtzk/FRJqGgiyDAAcHKNqlF0JRIgVDg1vKEWjL9cbjOK4N4ij414cHB7F8Uk/do8n8WR3EI93aSwEBFW0xJa0pwSBaoNOcUg8pHJLiMg+rsx5wkFR6yqHqh3ABUY5jcvgZOIqga7d0DNpRDNpRvT3sN7Y9SsXVMYyOY8P4uRYWrYaMUB1oMzxbWRfvDkQYI0BJz7gZnE8gEMRkqKEH6UKvsSZN7NeIPy0K6N448pa/MXbN+PXb16INy9HdBR2ZXAUK1UxpdV48kg+4PQFEBahOyzCLPnvT01nUnNyZ6HOXSF0/qE5zcEJUvWJCcfSVuhjOdDtTx9Le/rgq/jNJw/icNqKQ6n2/Rkdw1kpqOWuCJkWHglSuAg3YXuGOQwgIITB2jKJWLBrxVvryGTcXI+11ZXoCJgqDTmZcL/7+Kv4/JvHsXs0kDBghrQ8pO24FKcrmzhKYV9KeymYMIhFqGCOFBL5JoziHGcGUzgMHSNUbC7KWtGYD6P+scBHQCRgAoA6YszLay2vFrq+tuJ0r3ZZeKzpTRZxLM1CGOwFyARXQIo+NIDLoIRzrOJveFx/9Pdl604W/Jskv8WPiAD4X3rO23pMGJwYeHXXoMRRP4yGYoINZKKxfC5TAAZCKvaV6+vBcV+AJCBK14vDoxO5Y4FTT9oTEyjVSMHmzY61WJY5PhaqIdZ0qrsPUA0cZjt9SxZ2OdIBzctaAFGdLoNT1pOFeZ4lvUUBocHKlOs01YAJKOgCWG1V47WbV+MX773lDQb6RwKnw+MYKv09oev+cd9uTy3asQCL1U4ZvMgBDObIKS8e9aXjPBtUBlvcYCh+j1TTICmHq7VJ/OL1a/GX770e799pxLWu6lDIVx+LH9AS6XR3Cau8xU8JTsr1nLcyQ+fg9I8gi7IKECoLrrSfsy2FxOpMqpO2cjwRE6geHqM9fX4Q/6///EHc3+3HsLYSg5pMP1pQ+aVVVvW405J5Nswqj9FJNKSBtFXRHUXZUstKx/qFtW5c2lyLK7Llb167GtevSo1um0/cZ0O/zv/yn3bjb3//hSdFsihcb1qPWmfN84z6YrzBoF+s7SzWXmr1oO8CJ+dJV6U5ly4ZqYAJXs0354CHFgDzImwpeGiamH7uPxMIMQcGYAJoVzoCLbmOzA525rgI6K7wFXvd+wJ6YibRKKloVwCWG2Ddg9fBJA80FeeW+cI5bTyXUxbmBPjgkLkJZq9SKUvHGhImMPcZ9RfuxP5RL3Z292Pv4CiOpCH1pG7w0e6hNCWOQ76RIz4LmMIVYsxYh3eGYGPCSQ9VwzBGGOU88pXJcDkttBCnwvetFVKqSjwlWJ0xbUIZJ2y//xI4FQWENg9A0be00amLjwaxtdKMn799J/4P/+KuO6c9CZKqldc9Vkh4+jzuP942z3jziv5E/JT9aiFejkZbeVWYmKH1pqKSJq4GiYbJH7mrcJvjo+hMT+L6Riv+5Z+9E7/+2cW4s5VaU008R+NUo8+rrCw4Qxpadn6n5lTyHwTfnIPTH0kpoFl4aRLpTiF8XFtydI/RDTpPe1KRR2r6D8Xgnz2N+Pd/+0V88NXTeN6bxvE05/7MmqtuiStoSmLOJm2rzutirlZlGN36NDakaVzbWou37lyPN25fjytbNZtDdDCikSC4CKtwKHoq0Q8+n8Z/+eDT+OTe49g+Gsa4sSoZWfHQNouaMXKXFU76F+dJmT/ymmbGEjjJwTLleXmdBEPpTTFthpBCtuysGZrvAK30l9MixNjKCFqT8wMYc65jXeVdTp1gBBINcU1a1+rKijTHXNyvKk3NS3UoHACoJOeqyFZ5m2u0Fc8BG43smLE/noxj93AQ3zzalok2ljbR92RZltbFrANyS9MO7dPzuqQ59eQHLQowQuD4LIScAVRMEK0JUCgnBHCi52wH5b4mBLRIG2VMN0HWRR4TmORFxxwsyfBw6NlZegg3wZA7+S7AiTlifOvZEe9UhkchSzpev3EpfvXzN+Lnb63HprAGA9YKJ4qVHKOIh/2pBzOe7B3Hg2f78fWTnXi0c+SdnmlE653VqKmBg1+Heomy7HRXlGeZgr2TaA93pCXN4ud3r8Q//+U78fatWlxS3C2xUEMmf1NmfkwFcLxIUuF4A3UJTpmvktyozfnzT0tnDpxg8Sy8Qq3lSgWdd2FfrsWoYiauGFofq9WRdh9PexG//fwo/tOHX8SXj/dil87RalvmXxfWFHPSCyETTowlIyzWWpW4st6Oq1srcX1rNW5e2oibVzbi8kbOoQISpIi4ksu+GkbEAKcn+9LUfv9YTnHpYlRflet6MX2MRPq6EqCUk29VfuYGlwBTdojzWwISzzlyrcxBCgIfyXUZAoLCMLWPvpYf0ENxLrvUthQiIMRRLudpEU7xXNe0zmh8XfextQ1gCDJB+nMLMTcABTk21Q1yQJwMGph8TwKv/JcAxVK6nLMbykCo0pcWhPBx330tjKYVoOOOW90DpJgKwVw1OpLxg5nmddb1DCelV0BBenhPOVGR+UgR6J6fKC3+cLw4ZskzQKE/5RlQ4vtB3kFrwrRLcCpKB+ByxkQ2DQEn6TvSutfblRgePItbl9biL2Ri/cXP7sal9YhNaU7l6BlO0Spd4g0dT5TmPS8fPIyvHj+3JvV459DrdsE/zGXjY29riCoTyoWymEqL2or9eH2zGv/qz96OX717NS4rLuGgNKqpeJqZ9gocrU7+M6eAawFMXKtsk3iaZUN+fgg6k+AkPvERgnFKKgsStC+JGdOjWiumUm0YTv/yWcR//N2X0mzux4NdVbZU/nF9ZQ5OTXHKSn0WW9163LiwGnevXYi7V7ekNbXi4opASa2Qv6FVFJ5PokpEm7C8S4MbzKR3SY4AqI++OonffPBZ/O7Lx7EzqEW/0pZ5p9a/1g4WQGO1QqjIiX9LKlhD/4CTGMrPxTjOMK4EJu5xnqEsSP5dUGW4eQ4DEmJSsucyuFtQy3Md81xHheXYSJLeRNPivIrEjtFcASZABIHHk5zCytjzN6eA6I9n+of4/swgJceMesB9qvKUsWKBJRxPWC0AByBiXhbPmAJgoaRMCo2J7x1LcAIAa6r/msqZPJDUiTS81IQcu4sIh4mF8wCA3sN/AhN+F24BTovSSXAiT76SmxR9P4PoSC1qTI7i/ddvxD8XYPz87lq0FMea+Ahw8qCO3jFYo+2r/NC+WXKZHYifHcysST16fuCtwO4/3ZXJdyyAaogR22kdCMgZ9WOnnTudfrx/pRn/x794N968042uiq4mLGrS4Ipp8ysAmFdpL1zRLOmcfOgRTn7y6oej2l/91V/92+L8TJDqv2CJguUp4KXChZmTUSQ8qDI6zWtqSQc1ND3h8eExHabHXkWgJWGgpWtHPzaas7ix2Y63bl6Kn4uhfnb3Qrx2rR5X1QKtih+Y3EnzNhsxV0Wmn6LwHCYwQhWKUNR1weczgi2ZJeM4OO7F3uGJTQ+3dBKgJAIrfxeUuVM+SHZxB6K1Jl95N58sruZvvXhubwsm44m/PNctHqWmk8BSUxmh/aRLIQcUcBUKzqNGAELu8OK+MzE+Kxgwi5mVOfnUwjvASFjKTy9YNQH/Pfl3x7ZUBD/nfuEnZ0Ezw70iU1wApGsgr5x8SBweseMZJpxSD8D7a385jp5dTRmZlEFARq5qQNcldaSM42xPuTT0XNcejZQ/gxNh4Ln0AU8VjmkEPCFEgjXPQT64dBWGal7mE32Xk96BGrm1+MVbd+LdO5fi8mqIz2RmqSFDQyeXpAGQzqkphJGmNRM0V7uVuLhRj83VlViROd2STQ7vMaGY6QmsVsDEYvolV/TC6xea8cs7F2TOXbLpWFOQNYE+M9HR7t0gkhfVKZoX0GgNjDIkG44faUoz1zfz509OZw6cDEMqNI5GfRxXKnBaMBiV4nVB69omho6+o9ph9dqZ2KPX78WxAGrYO4q25I8RjE21ZmhL796+En/+zt1477ViiQkxSYVZxSO6VaUe45+RLSEQUwJgbirU6dO1lwdWdMwfnDFs3R/F4+1d9xPUm2rtJOT+8Jf0FmktiZC4l/JUPPGtvJ+X5bnOLExZLnmuIydFSJBfnVOWhYWZ8inLRq/wFuBK0ngbLYRO6pHSzQjZkCFvPbO+qDwAVriJtAlGe+hotmFssFpy3JPDD3N3GCInjASuAqQMVNI5BIq1FmXk4QnXLXOAECAAk36mpp7XdSS95NwkofINjvNMKBeWL/khiyoXA1OqvXYJNJh08mXgsUe/UwKSdQif4xd/WbZcc+JnRTjJjeIRxYEbHe3Fn7/7mkysN+LO5QhhTazCPzKtmjL7eMd4IWBl1Va0cK8YoQDp2WJHXvZjZKeUjZVWXLt0wQMWNIzj/okOzKEae0SW7fjfu7kRf/nODTWwNTekgBPAxDuAN1oqGqdNwQKUSDWO7JTpTxlDY9ddpcfHPzGdSXAC7ymqBKe8Qk2HWWCSLExVOr2MOiZIpX8eVdT6MDfmSOB0tL8Tw6P9uLrZjXfuXHML994bN+LulVrIkpOdrjjltypmYIiWdaH4LCBBicikjqvC2d0DuXA1q2InkmIvcyEm6On9Z8x5ktrgLbARSkwhPYPNHYypOFtihsyPT0327f/FezD4HJh8nT+L5+UPB8QOxi9YUmk1lpkIRxeEpbLiE4pkXl7WW2hQBWMDFBxpDLLsFbvcVIXyXY65aRVmfdYUBuVCOPRB+Tzd/L4qK1Ond0mOKjbxJss4Z9lnqrhRmqIGjfJcmVJoOnfF86+0ormSuQSmLC/8K1p5wEQFoCrWmjL+eb7Io/JBHLgstCLcTEkRXgo3U0/aAifWU/rLX7wr3urGllSmunhhta4wGDETPxHfiDiVb775VBSKSKDAVwxyxEXa4DlGTNeleXWb7C6UQIbmf3yw55U3bl69FL9642q8f3vF5lxlgvYz9pw1ZqrDVy5H6kyppIFwKeg+WShLnQEmmg/P9XL+KcnM45+SziA4JaonqXCN/qoklR3s4jLE6YIlKugHyoW8YBu11vClynoqmx2AmA56XpLjnbvX4n0B09t3rsaNrUp0kcWxmEm12RIjswQL5p+BZ8zo0sgduKQkWZKKV8QCKuZIEfdUWhNMzTyb46FMyf5Yx7G/++Idm0xObIYxJ5hl6ToFQOT7+SRdAlQCUzqYy5kvQ9SPj3nq57Ak+fBR14zg+b48WFAVD34BXcgmn9Jamk0AA+bBmO/GlM+qWuaZhHCK8FcEwN9yKjOV8WgykGmmFl9awwQn4ZxIeHjGVpbypVRknDQoCCud6DY9SZDSzKJ+lD/zNjCfLbx6C5jPDvzMV3lNTvyROGUnsPAnMoVLIMk8JzBl/uysrWUp+ihHn5PBSe+RHAtunrlwuXJ56jkdz8wle/vuzXj/zVtxVRo4WlNT6W7OmGIgcKJj2pqkDED4WGGXa1Z5/hL5UOIaAlQWSLRGpahIYbfdjtXVrkCq4W3GN3T+zpuvxS/vXohrArD6BCNZ8OMyKMJEJhQOne4szwLYku6SyrSj4xqYaLjc+FBCSx7/RHTmwAlGpLOOkrbNbKfiV9nhIESTCqRloVIYYaLloJoYBWLx95qak0q1pZZtFjcvr1trunN1Ky6tNdzq1CUEDVRvCU5TjNaAmWEYOZiIunJ/hwTEfSNUq9KC7d+QwMFUmTY9l9Ywra/G88OT2JFj1jgmU6mVJIMvOQ75Iz88Lymf8aR0Jdv4PJPlHx8LMtQU9yw4CrEEJnd8Kj9lB2jpoPzV2wi239Y9+c3sc19lqPKrNFQmAqdZFSdBeMmRsDyK4ctrFgD0c71jAAPMU4Be+NJf1+6LKc003UWmMt8qdT2DJzI/OqcxKh11ZV80YLyg+KhH4lkGJ8WRM78FhIXWZBDmXZIgZ83J8eou6eGaHzsOLmWnBz9o2Jc2VuJf/vq9uH0lYk2NG6NmK7pfHR0rQAGUOIdvISe1jrRLYEfvC0wAFBZGZCIteWI1yiqalBoCr+CquNqy9xgxXV3pRKtRj8sXNuPNu7fitUuKSwmpqSFg8UD40Av0qTGlD5GvEyQC7r+jIKljHJTliD7F6LCYlPSRGwFo5vVPS2dutM7MKEdRed6K+y8AhmQkSpoDFYy9PqKzUOCAQ30+Hsh3q6X3IvbFI0cH+7bH2ZqZPiSPQsFgYm5ALRkEgRRju3MAPgTYiE/xKkybdCROPpnuh0qPx4HO+Dj1UA+fq6H86989ir/+4Iu4v9ePYbXjNZYmMKfe81C4mVKvipn83Z3CQruSmCkuMX9RU3jxUXH73PfzvPBi/3nO3YIJdYoQw/i0igk0uMV7pV+EDZMt38/n9od/3fN8JgFzaiOMrSV4LMJJ8tuk3QeFTSAFZVg+mR/RWCrThUZp4j5H/ZT9ZNxjhQclw87PoaV8QRNpJXwobOgVICVAUT++4zKdg5NH4eTMSFkOaEsesZMnNEN2XoY/GhJyayAKksitVTK3SeZaR4B7dbUWP79zOf7N//7tuNLNSZBtvbdSk+APe06zI+ejazWSTG8w3+keIMFRmVEGpJEqn4xSwomNdtfdAky5GOkxW6rv7A+C7zbXN9pxUQjYEp9WJ0NPzCQXzCEbSdtkYwxWYmCyKqOcbiAz+Sb3DIrv4X24jrLMCZrn4PRHUclQUArgwrn8/GxxNymPvuN3ylaRZmXhb/novhf7gsr7C8o70OItCNWbD4CHfHmqVg71uSeAmqjl/PrpNP7dbz6M/397d/6kZ3bVB/x2t7rVkkbSrJ7x2OMFG2MwmN3sLjYDwTiEEIfEVUASklSSH1KpSvJDUuUU/0SWH5JUiEkCRUJYAmZfHQMxmMUxMTg2wQZsjGcfSa3elPO5z/ttXb20RprRq1G31Ec6fe9zl3PPOffcc5fneZ/ndz788faJC0vtmaWy2vWzbaMGxcWd5e40Th4vQ9g833Y2nmlrjOX4iX5HC88ThIux3SvTJtmm6yltyhe6J7bfE79XXoGqMyN7Zd4scQ/kGvDT1Y1Cd7hzxK682o/TP58WMIE5qNfvU90rsbtfNlCXSvS2ZvEpMnOc9bezVQOfj7vr9Jl2/uJWfwDUA6j9JYYXn2rLm0+1B8oxvf7lD7Qved0r2qsePNNefIbDcIRQM1StgNbX1ssx1DRWns1mtmZO1HsrkWUK03Odk4KpLzuW7U5xYeVXQaFntZwzTfUv0wOhNoWzHNFZESkjGhsZL7cCbk2rNwDUNm3juvqSUoJMHn/aZE2z4mWYOsPf6YCxVkUOCj2LUktmcSh9mjlms2qvC9KZlzFpYMw1Y3ui2bt4zKZWKqtFc63YuXt9ub3kvtPtwbMn2rotjldo1FK9vwPbLFZlNjc3+3lOTzMwdjiTol15I1ZTFU7tB6bkpE2htBE6lzP9jdiN8AoMvXlI6phrtbEonPj2N3gljDkTTgP0agj8tcSJHtkCJ2hyQqPCCvrdvCpnhZWzsmmFNdlDP28qp+BGwVatPhzQi3uXueeH3Nr3+7kHagXz8H2n2sP3nuzPxnln9/rydv89nYnL9sqt/N28DgZfMwxMVyx5wkkWvM4k7rbKbtnw5vQcU2F/G2blBy5TnuqC6WpG2WptFk+9vVxOvcJbBYfOOR106M5puxyKw9oa5PW/wknRp8tQH3n4wfbSFz/Qbws7y/L+Hj9atmrijLzSl5kseRFeLfk9/3PZQCYD6yY0jbJuUExpNOduWoyu48xpQ6umWdk7BSadGMjTccA0EKcJaIqX3io+U2eV92+qOUHCGdjKV9qFiyaRoqNvq893ty72GyF+d/nwA/e1Fxfec/pYf1apnyZVG332qfb8TKcfBVTd6TzvCPaDI+e0YGB+3lHez1e6GTvYnEzct+kfemC9vawc1EP3391On1zt5xTe9+N1HSsKqq+WZb+zktrvT7UnI+4T/Z49T8YOtZPD7T7D7w2+2WDsA9RBMep3DtBLd0qjk+7XE155I6DKc1BWVrCngCh9VrL6tj+nVtDXZuWUlmq75iFIzyG97KEXtQfvu7u2b1WgivWvoJRDcqiPirug/Wc5CBw5p6vCkXNaOHAWZYBl9N4fzTrdKZwGhQfpWnvpg2fbKx6+vz10z6l2YnmzLW2d68+9rFUBB/eMtlxJ2ykHdam2DfmR6rSVHYfSCEk1ACBHNDkl8Wm1IER94vFOgOk8aXJQe6unPQduVTVzO90p9Rp7mpR7GW1xpm0OtDL2Vofu/Gs7t76y23+D+YoX399/8uT3c8eL8NL2VtupVZVHIPihfhNhdEgVvXN647nBkXNaNJTh+dmMO0meAWJ6ddkdxaUtP/lt/YfDn/LSB9rLXnS2nSkLXtm5UA7qfHVG5dfqifvYrGV/f0fCsp9vTOufywOlD6dZOIGryczjnGbYB+MMu6OSducMBxrqWrvCIQ1a7Gm9aEF0ulerY7m0wimcnNZSWzu+1tZWV1p/V/fybjtbq+CXP3R/d07eW3/3ept+O1c67w6xbMBDub5d6LNNPrDRmzmCq8KRc1owdLMuS3T7d7qdDWvFUkbswNRAOF2G+9IH1tory4r9Wv3ses3CswfzlFNns2Zab0ac1jqFs5XTdHg9XU8DZRpmHbuxi18JU8pU6k6E6SxpwK6Oaet2OXXPXVVY8a5faVktTaHdnJf69ccXavKxavL5+xffe7oc0339YcvTdc0x+crJWjXmkZS91VJvomiXbWy7J+Ke/hHsC0fO6WZBGaHfSgl9fcNxkrdMLvmVfBm4V2a8/MG722te9mB75IEz/X0/y1ZQZex9Uq16kxMK1uw9w8sOa8I+aAoNoH7d02sAzNAaKo4MQ9MgvHMgso9OZnJGE066G7DrdOaMepq41ZOw6PUt+nZ//a6HdO8/c6K/q+mRF52qiab6GfVyPG529Lu/apmoasLZKY/U38RQ1w7FTWJHsD8cOaebAG5IOxCf3l9URrjtWZiaRe3pdjZqC7fdTlXWw/cu9bcfPFLbO6snb0ZYdmt4per235nVYPAQJmczGygdu/OBs+3G3vU0uCZnlLA4uMJJ3WnQlyoznPQzOqYrsfS9p8MhLY6p9O0BXI8OeMjXrfxTa0vtwXvu6s7pJbWds2oq/9RWHX57c0DV7E1zRDu73TGZeTzEWqSmvCPYF46c04JhGvyztUn96c6BPUqrSDd7jw5U+ula+7/k/vX2yofuaS+592QZdm0BHIwvbbX12v9NP5nZrnrTVq/TLZrTIwrVdd3pdLufsEpMW7/JoZmzvQ0A+ilnf1H+8rHuqO4U0BP0EIxT706I/nrPTNoN0E5P1XF0X6ufWiZVX9Di9Kn0le3z7eSxnfZQLYFf6Z1fDyz3H/aeqG5xEK7vnG/tEe59NSH168PpnVh3Tl88VzhyTguHyRqtnjwHwxJ9v0zcCsqrcL1ypf/AafNSK5/UXv3SB9prX/5QOai7asbdaMtbvrjmPGO77W7X7DsbJNNQqk4ro+6f27YcqxQfw5zeBskxGXRcYD+K7a8k8ZS6p6R3PfDnTQJ3EHDafmJCB905FXbH5EFIIa1Srz8FHh/ozmmmc79L648B9EcB9En1x/aFtn3+iXbvqdX2mpe/uL32lfe2F50ph1RdWv6qVsCcWK2sOB50zBrV7vR+rOqjStsth5fHGI5gfziEb8I86DA9XCcE3aGUMcYIk9rfaeQ3S+WsHrvY2gf/+Fx77wf/qP3mB/+4/fETm21zeb1dWj9b27u1tuVLITXKbAv6l0IKOKb+VVgOqg8yzrBcUm0F+wcia2AYcJ6pgenk6a7dwR0U0+18GloMcNjOnPVAaPaw9NP7pqeAmV73VjK9Uv3Xf1V8tspZ3Xm6JpBztWI60V77iofb6171SHvNS1baQ6dqxaRc/8LJhemHuyahDiYNG7zZ5KHVWTjaxhFcCUfOaeEQdU5hX8ZfYYBTvLsI24tyPhcq9U+fbO0DH320vecDf9je/wcfb49vlLM5fqatrp3oL3vzA+NOAb0ybIhSP1jtTqgGYjmw/praclD9JxJaklcV07pnnbzC7aAOiEU7J9tYv8QvNXRdXH7b5ISeyhd6RfBurW59EHX66VCvPdVxaI1AXa+Vczq1sllO6SXtsz/tle1VLzndHqpVk4+Vck7L27Ui2rrQ+9zqFvStpFaKbqfCN8noNMUWJe3tBUfOacEwmd8EkyGW4VVkMr/pzMkcyi7l9zOhlfV2rnYNH3tqu38Z5rc++NH2R48+057amrZmG7VycijbHVOtlPqrL2zTipLt3LSlQy9nKTPsLVXLeKhreKycU/88VG/94MGinZPvEtrKctBd47x43071DV7vj94n1SH9mbBiYLq2F5M2Oa/+ZovyWKePXawt3Ep7/ae+rL//y7u/TlfXrFfx9aXJ8fevXszkmCahCa3CJgGntvBQzNXVtD0/givhyDktGBgygwYxygmygppOPqb4btvcri2bV91yULtL7U+evNR+7yOfaB/62KPtY09s9G+y+Vhkd0Kzbd302tqi63C7HNV0164cU133z1lX89Pjlr2lXpYz619HMSh27iDnVGhrxzGkbyatlHZKF9y/axr0uIcbEN4c0M+Xqrz3w3vjwKmTJ9rJ9ePt/tPH2ssePFMrpvvby2ovd/Z4q9VUa8dqtdRfl9OfA9FytVCN9zutsKj1D4/2mPOm6YjehOLVeIuT+PaBI+e0YDAA+l2agv49sL6amVwB87Ot6s++uJtT6HM+ftzbVtba9urx/oXiP326tY98YqOvnh59/In2+JNPtvMXNtpTz5xrz5w73z+73d/oWVvC5dX1jq3i/f3c3Tk5BJ/dnWL8vX1DjYOsgVGjZuLo4MHCnVN35pO8Xf/VgF7pmukOotaul6b7mdI5p/5q2yq3vjb7uOg9d7f77r2n3X3mrvbQvSfbIw/e1c6eaP3ZNI8N9K3c5vly+lXXRFBba+9W72/kKhswUUxbOb1QTq+3x/n5kff0wc9p9XQEIxw5pwUDxzQt162RHHpfdk5g+n2XgTAZZ5/bWW45E9/Q2yrDPl+pT15s7fGN1soX9Y9L+rz2Y0882R597In26JNPtyeeLkd1YbNv+S7WiqsfrnuLwVIZe8X3HhuwpTH0igFbG5z0u0gHFBbtnLzAz3asryVL97Z07oJOk4Rwq8ItPdV8dv2u46vt3jMn2/1nT7f77j7d7q2QU7rr1MlaOZVDKqfka73uynkK3FegV622vP5my0cubb1L5/rCp8RL196iCX20YHKG1Wa5LuFu9ZfvtBw5pz8PR85pwTD9dmtyOH0lw2kwzlk+A53ew1Pzan9V6+TIwM7S8XZxiYNabl5/f6GSjSdwcbPV9q6c1tMX2uNP14rqyWfaJ594uj321Pn25PmL7fymzymtdEe1Mfv0Ul89dec4WytgpGB6TccUP2iwWOdkorBu4ZjKGRVxKydvSPU++PXVwnJIx6tTTlXi3afW2913rbcH7z3bHrznTDmmE90ReZtEFe/uA1aVfm63Vv3IOU3nTB410KYS1e8+cV+rYW9cLT/WbaDX605xs0p44LacmVcKLnFOco9ghCPntGDozql7lMvOqc+cU3Z3Tscq3wvClvyebqe8jm2g2X3lRK10jpdjWm0bdblZdu5JAebu/MKjURdrDPiayzPlvTilJ89v9g8nPFWJjz1dK6wL2+2Jcxc7PrMxfabbOs25U787WHx5Sdr88L9sBFemv9DQWy9mrs3FZY6fDfoKZWl6X5ZnzNaP11btxPFyQifaPeV57ilndObEajuzvtrOnlxrp8oRWR35eOqJWhr1L5cUHU6zO07PPZVT6V/h4WgcfnNM+rxWTFWjt7pdE81WXW+XIL3/C/3WzsrZ7yhXL22UjJslhVf0Hi/7OHJO83DknBYM/VyhnM20uYtDcIA95U8rK7Mnl1GGvl3OSWle6FjtG2o7ZvUDt2eOqQ8KpdCYGbrZ2Duk+0cqa1xwVn/22GZt9bba47XEeqJWWE/VnvDpcmAbm1sdvTt6q0bLxS2rqkv9rQn9SyjFifMrZx+b2zVIavXm9nt/b3Vv0/ZTixPUxqWYqYFYK7VWK4fiqMotxoxQsQ2eVnklvTOcvYy+Qe1o1bFUK09vBHB3TJq3TPpii7I+uLlSzoGTuac8jpe+nVifDrbP1Bbt7OlTtX27q7Zsy+Wspu/CrVdVLqLr3GxSKMwdO/OHXrUS8ykmk4zDcw9p9jKck0c4nPvhqG+xI1NlVWQ8c7KC7usuq+ve6hGMcOScbgJMJ0w5ZxL24bUHU0oh455dg8mJTeafeL+9bZR0mEpOt6U5PmUnZ+WAfMMirGy8O6764/rpc1vt0ccfb5/85GPt8SeeLIe12y7Ukuz85nbhM+1coU3GsRNnyskdr+1iEVq5t62eONW/s+el/r4oesl7p2Z8LpVTWqqyS7u1HVmuwbkEw+ONgTMad7gc6nMVS+Ws+4ORRZ4jXy1ujy9v16rlfFveeqrdfbJ0UTKsr+y0UydOlJNZ7wvRUyfPtPWS4eF7TrRPfel9fdt2ovKPl5daLQ/Ut2mFHkVyl67fqasWuYi+ShJ2JLO+qkAYnDmsCWVNukmt3IQIBTDFlM8B/d49xJ57BFfCkXM64MCQ++3/mSF3E++G33MqznXNHFkNOjs2h9/BvhUsJ7VRf6qv27mN5X525fv657aeaU9tPNGe2rzUag3SPv74ZvvwR5+prWGtnFZP1Nx+rO306X6j6Dsfmw2lWjUt7Z4oLEcwc1yLdE7bhf32f60olpbW9pyTH9Ku1XZovRzi2eNb7UWnl9sjD9xVW7Ht/l6s0273Hy+nWU7t1KmztVI62c6s7hZu9+8Orq2ttWMVItfnhRJNfFoR8S97GnYxhR2mcMor3HNER3Az4cg5HXCYnJMugtNwiXPK6moKYQ3uGnS5M2dFBdTp15Xnd2byfVpoo8JzW1vtyTKBZ7Za+9BHH2+/9bsfax9/7NLMMU0HupeWL3ZEqQ/OXVu6cmDdOdWWb4ErJzz7HNP0bBLnVNuzkm3yurVqKje6Xs7wwTMr7bUvv699+isfbPfddayclW+5+Tx8sVasrNc2jSPyYYnVQofgOb+ry+kZpFJElwfWnyleuYNjShiYVkxH8EKAvjqCAw1XDhPOSHzCgp5ZfwyaCnSoLUvfrlSYLYtB61b5idXW7lqfXhd8/9nWHrp/tb30obX28INr7YH7TrfTp1bb2jErte0rMGdLHbsjgkmbOFwETOvB6XGL6Ys4hbvC6frY5DZLjqV2Xwnx8AMn2iMPrrYX33es3X96ek+WdyrdtTY9g1T+qcvPMdFY12Gx3D9t7nC7H3BXQhzSn3NM03XwCF44qC47ggMPfXVUw2TPMU2QqwkNnskpOVNxAAw5pRrH3VE57O13C8unWFEYvOWj+s8vPFR4+sRyO7G2VHXKQdRqqDumvjKaOSNh4fTppOkQfPqc0uKg1n/F53Tw3R8jLafUD5A7upEwPbbobplzJAfepzjdquu5I28GWKtlkae2V2o16M0P/GpVz5tPKiw5dtDva87CySFOPymJI7ocrxp7SMdH8MLAkXM6BNCHxcwxZehMMBs0e7O+ATZzQoV95TRDDsqrWvpzPeJV3tM1q+WA3PyG3up4rJzScivH5G6YFVNfHcHJQV0KlnOy/ertF71FgW1THpDMHc3JSU0rpqD3JfXb+VWHrJ56X97y/baNdnJ5u50qyz5ZWBvTyqeXnSqDDnrTT1Wyslxd9mPfaHfmlPpKFOLpMk46P4IXAo6c0wEHw8WwydDZD+KYfKDTZ4i2Nzfb1sbFdvH8RsetCxttt9Ladg3wGpwnVmpglwPyIOBK2ygjKEdQdNzeNvA5g3EVMTkg2BubcAaLHapTe3lTQMc4ieQVciQcitv53TGV7/Qub47WowX9RX0lgw+XnqjVY39rZdXpP+qdxbP13Xs8oMsr1N4k+yTdPB7BCwVHzukQQIbmfjANommQra2sFHqNbGGNvr46qAHnCyHHCldng3Zpe2PCrcL+amCOalpJ+GnL9MqQtCeMW6jwUoWeV+huQbhIE5raqmXZlaF2hcWTp9uxhr/pNciVXCrwNFl/oqyc727J1R9uzQ94rZo61upvhl1v5Yg8VOlVKc6eRid4NaxKvc0juPlw5JwOOMwPj/2gD5ra1uz4fVcNyL4tqqLOm7zwzNPR/QcstTWyXesPLdbg9XSzw2YPE3bnVNhXIoj2FUTFuoNgJtUKxzRzSN1BdSclv9dYIIRml6zjXlp3mrDSS2a+xpXfz/mOHAfVH2wtPUxfuymZu+OZVkddgqogtKJCLm8LmLZ04ml1Hvda7n+P4OYC6zqCQwEZFlM4Qh/CNfB82WN3Z7sPWtdKTiuhlIFqVLdXEUMZei5I2Uu7kwPqT357Ajwua++a65pQnR728hVdEJBvWteUO+2/CXTqFLQOnE6dtqpdryD2HJdHI/x0xBPa03Nf6pMo5k3upF5uISU8g370WfBnh/4MWOnIm1ejq+nlfVem97euztJSDuR6TB/j6nmV9VgmvXcEhwJmRjELgUEGvFd8bfVY/wlHz+2OaBqEfaVQOJWtyEoN4i3bvZXa+nE+lVZZm5te6Ss+OaVLFXYcHVQPYRmjsLcGFwNk876q/rMfzqnQO6p2qi0/84hj2t6d0jwZPx3bz47OyeLhTXJ5PqrkmlZLnXJdlzezlXM+V2F/jKBgcRLcXtCdRDkejmN6NfRKxziVOJSkbW/Ta9ldxWEcmLrBpINco7O5udnjoXXknA4dPLdhFOe1By6tkGowW/lc6g6GMTgvv1QG4s2a2uCUprxerodlSN1kOCZYBrjgYY09bmT6obJVEJxWUOMqykOkfl5T0Y7uJ3bHVE5p2Yccyqn5nVt/n3oBLoNgCkfdjCWuhqkxxe8E4CS6oygnwoFsbW115Fx8uGN1dbU7o6RzTpyMXyMEc72xsdGeeeaZ9tRTT7ULFy608+fP91A++idPnuyOCb3u4I6eED/YcHmVNA6IPnxncTkZMhVe0ZtXlgMrBnCtOnY3L/YnMjdXLrVzyyfbRvmcX/yNT7R3vfej7Q8/udQutLV2sXknURnlymZV2ez1p7tZ5QB2PSF+vJxIpXuCvD+kuQjwqEL9s3IqB7nbV2/FczlDzzetV1vHly62h88stc99zYvbV3z+Q+3Bu0qUEnN191I74fyoBsmxcmxcKXq+dFJMT+QLEpvCef0mHFV5OW2C+evbFzgmwFmAccXDMXE6Tz75ZHv66ae7o+GAsvpRdlxZZUXFqcmT9qIXvaidPXt2Lw1wWsodOacDDtfjnMDl68vp03i8TAGslGOycupfcjleK5ByTueX18pBtfZT7/qj9u7f+pP2J0+uta2VE23j0lp/M0KcU+5mLddqi2Na3inn5Hd1/bd1i3FO3TGVQ7Hy6Y9bXqpVUDkmDsqm7ni1xTk9cHKnfcbL723f8MZXtheXczpeVY5t77ZTx8olbRWvO+XaykEteWuBddWzOqdJQ1dqqq77wLwyTaW5lNsa4jA4izEeJ8MxffjDH26/+Zu/2d73vvd1BwVG55TrODhx6ffee2974xvf2D73cz+33XfffT1NntUXOHJOhwDmBw2Yd077wX5llss5LZdzcoi8vbpUzmm3nNNqe7Js6Md+4UPtPe//0/aJZ060ndVTbWN3tTsnv6vbLXR20+94lXNa3l2brZy2K29xv61zTjY5Eysnr3Hx5ZRa6RV6Dut4rdT8vu6e45vt1Q+fbt/8ps9oLznb2npV4ZzuWi0ua1V4qeKckzfmesUJ5zSvjUmvk24Tt0ibINq7rMWU5qTvFIhD4Yiy8glwJH/2Z3/WfuM3fqP90A/9UHvnO9/Zzp071/OsrOKc1HGtvjTXHNAjjzzSvuu7vqu95S1vaS9/+ct7mnbQ7TT63yM40GB4zON+MF9qOq+ZQ+c43jl0rGayldqyldFsFrmna8J7qma9rTKeXYZU9PrZeEftwTK0jsNv7gz8nrcYwPXkAHFbq7Q9aaY2fM47Rn9xw3mGAVT1is/lkmcaO7MB1C9m8Q65nigmL/HJMcm7slUrKPGJoyntToGskuIw4pw4mjgb50iPP/5439o5T7KaeuKJJ3qY66CyHJitmzw0bA/jlFzrW+GRc7pNYG+ABcsJ7YeTcyoXU0YW3Cgf8/gzG+2p8+f69aWVcjuXykCsNvqKo4ZjngWq7VsckyfLp+tFOifbRs5p9lOTPUdVbZfB9pVVhR6c3KwV0vlzDmMNmprdnYFXKM7Qzdbi3cFM5GfxSVfT9RS/7JgmaS7r8XI45U/l7hSgQ46DUxodB+SYOBZlwJgvhMpkMklohaR/xHNQLg2t9fX1vVXXkXM6BDAbHrOrKyGDaG+AGUwc0V6tCafhzTlVvMp5i6bXoWxX7oUa3Y8++UR7upxTfyiqrGJrt3LKIZU5VTjh9EZMDikrJ7+/47T25+35gC1TrecmxyQMxkE53K6457kuXjjfnnzi8Xah2OazsA4859UfyizsSTPHMg9X6E3Y8XK867JaneoqN4V3KnAYWUmJc0KcTCaCIEi5xJVJmrh3ayUPzjuzI+d0CCDDBYzxKyE5wv1wclY1tPtA5Jy2azTbkHE3G1vb7clabl+oWexSDejuvOKcrJg6ck6zUE0rpu6sXD9XwO3VcW9bF+RW966VKb44J1+lqa2CLUJddnDQ76cofQWFXi/fqXaUmuteol9OeVPJy+XGcIrfecABWdXEcXAkHFAcSpxU8vaDOKAR1EXXqoyj4rA8UgBBd3Q9dgQHFvrA2BtjUyfHOKYZZlq5eAjT7838+Hf6LVmlz3620X+m0VciU3ylHMvu9nnVyt+s1CBfao89WlukCrd2j9WKqnDZS/pr49bDtXJiJ9rOpeB629ldLVxp3vXNmdkC7i7DWtWUE7uMtocTtsq7BCv9stMbscqVbFvL620TVrv9IwFwpXgpA95eOda2llb7RyCe2lruHx597MKldr6qM+uNHWu9gn6XbqP4894UMDkaODma2WDhneiBDnvq5MpHhzh9zmuKy7/TIA5odDBscLK/yzjC6JCSn2u0OKHQzMpLnNMCR87pkIBu93FI/3TgFc5JB1f69GPdMqLtaatlK+RHr0uXai9vv8NpFa6ucFIX287WufIHRbmKnT+30/7kY0+2c+eX2oUa4ZzT0urxcgLlrMpBeVH/TjknDmp7F5ZzuuQZJK1MzqmihcVPhZOTmmE5HWs0YX/es9K64+hOKtvFwuWiJK2cz+7KiXJKJ8o5rRauFA8O7yu9ZtkdHx8tvLh0vD2zc6x95BNPt08+vd1KhJKKc6o/5ciWtXHpYg2Ara6/7uRnODmmCfdiVWh6husy9o9RzJxSsOd1incGjPbGiWSVlG1ayuzZY2HSAmM6CA0rJs6Io3LtHe+j0ztyTocAdJgOvXhxc+9BN9dZEgv9FOOZp59mCTU2vZngWGF5g7o2mKwGHMzslPMql9GOn1hnQe2Zc5fa448+XQ6qDMTDmbXy2Nq62DYvbpThVFr/rZ66nJ/zhbW2urrejq/5WMB6W6u4T52XR6gyE3oiqUx5hg5TCz0OsF0tl/PwE5lipVgro670Xm7ybr2dYllmoULc34R9NbNiYHjGpngpGZ+uLd2jjz/ZnnqmnGpVObZatEr+qlCKM7AySLoLGnB/mHInnV0Nj+CFgSPndAjALHL8+PE+s7ibMTmj6ScD2advz/bv46pKmeztpfXZzhapHMBKOZeNrUvtE598rH3s4x9v5595pm/51mplc7xWHce986lWNN6RNL29YLMtbZez2q5V1+ZG2yrkwLY2t9tuba92t1Yq79getu3V1raEU3z50vGifbKtLp0omifKHRXuHi+PstouVd3dzQn9LmWtVnhr1R5c3bnYjm1faCvb5/Zweed80dksHnfaxrkn2mOf/Hh78vHHW7HU39HEwfkpTi3dZo7z6s7oCA4uHDmnAw6cDOcCOJcsp6UL44yEHJj4+Psn6ePvnvrDl1Yxy6vtmQsb7c8efbw9+uhj3dH0V4vUaulYOSOO6UStUrywTdwbJb19crUc2LFyYByZRYmTgZXKXSnnw9msXKr47oTHKu1YK2fajtcubm1yPuWIOKzlckrqyOewOC54vLZyPjG5Xk5xvW219Utb5aQulpO6UHydL7oVXtqouhtFs1Z3F59uzzz5aHvqiUdr9bfVV2Z99VWOKb8bPHJOhxOOnNMhAA5mXAkJOSErpayW4qQAJ6Q8RyZfetABth/O+nHvxsWtvkW8VM7o5NpKO3msVk414I+XAzi1tNFO7J5r6zvP1PUzlX6uHb90oT+hfaIc1no5ruNV/njFfb14rXDVl2w5kuDsuudVuLJdzqVWQcfK0axWO/LlrZUTgsfbZjmjjba2Ve3WCunETmG1e/LSM+3EpYoXnmzn26lluNFOrmy2u9a8QK9WjhfPtc0L59rOVm39arW0bCu5tPcS366XIzhccOScDjhwOs6VOJZs0eJ45IFs8SCQnlWWuBWVX3wL/VLfq0f6Wqzid5061R560QPtFS99cXvxfWfavafW2n0nl9s9xy9NzolT4qAKV2vlwnlxBqte8+sNmuVcVqxqCjmela0LbbmcULCnFXJOJ2obtr5SK6Ll7XJE5ZCq7rFyhJzWcjmkVg5m5WK1tVnOqJzTXeWozixdbGePbbV71rbafSd22gOnLrUH7lpqD55dbS+5/1T7lJc+0F7y4D3t9Mm12jr2A63ppXP9dyult+6cjuAwwtFv6w44xPFYAXFScUhAerZ3uXYuJY0TcxYlTb6zKukbtXJaqjI7Reacn6yc2+n49IXd9tjTF9oT5zbahe3pwczHn36yXSw6/XPmdb215Qnf1p8p2qoVSn8LbtE+tna80+4/LSl+629x4xDeas26xTHydIfGtQckHdp7nYkDa/+AUqdq63j2+Er/COax46tFu5zsalFarXYKj1feaoUn1461MyfL6Vb+6Sp3dn2t3b1+vIc+C+VmXfm/2sIWs7UNXdTn0u9UYHdsUR+Ksyn2ZeX98z//8+37v//720/91E/1n6QoY2IUqpP6oNtJt4OaYB58sP3Df/gP21/5K3+l/7aOjXtiXNnexpFzOtigEyEjYAzpbCEHpBOtiHSsfEYh3U8BOCp1lY2x+JDmzrHV6ZZ/0fGVJG+ThB4juFADeqPQq5IuFm5sbbZnLlxo56r9jY2ddnFzd8JZ/NyFp9sTT3yytotluNVOQm05k9I+WKnVzPF+Z3Gl+F0r3tbbifUTnUfp/fdVxeNdtSU7U/ytrx5rq8dr21rOx3vjWuFybSM5psre+6R4/5Jvhf3DmVVsveQS7483lV/yfNXSSvFz5JxuCNjZkXM6gitAJ+rM9773vf21FH/0R3/UHyfQ+Rn4OtI1YDC2cK973evaG97wht7p0pTtBlXrE88uediR8yjS3UGxoVrIOEuu1VI5q7p2o+tiDfLz5bQ2KmFze6lt78BqR5nCzc3z7fzG4+WUtrohdgPenT1NjKH6I7RSWisHxEmt1qrHKnBtda0c0+xHn9X4UjF0opZ0vqXnE1bH7ELL+XRHWkSYOZ6K1N55hE9aiVsple9qx10UX5wTn2ZXV5vhqqj2ETxfYGNHzukIrgCdaGv2jne8o7+W4rd/+7e7AeTOXAxAmNXTPffc09785je37/iO72hf+IVf2OuHFqdUQ7WcEGMpAyrbcYdLWL6iO6h8spxj4KQ61vXscaeO/fnNSud5ulNLfqWJ953dDDinanq2kprFq/keTkU6qLdazB0vfnycoa+YKuSYpruMdc3JlCeyBfR0vNeilPeZnNNSrbaKqGc6pfn6DGe2vXvknG4UboVzmmocwYEFnQg//vGP93fneC1FXjfx2GOP9VCa11E8+uij3Vi8vsJrKdTjmBhKVlplYtMjAR4NuORgeredrAF8qhxBf2Fb+bH18jInL+209e2tdurSZjuzvNXuObbd7q5lytkqd6bKC+8uZ3ZPYY9X3r0Vv2+9tQdOFJ5s7UUzFL+/0uTdW6uhqc6ldnblUju9fKnoF9bW6+yx3drSzXgph7SKH46q8HgZ9Iml7bZeeLzcK1yfyeHZrLWy5BoO5clmeqvrqtLPyI7gcMKRczrgkJnGLOUsKTNR0p8rTD/L2Gm+qHss6GctlXasllCrtR+abv9PjwJ4xsgduukRg4uFu92J/Xm89Oewfxa8l9+p1VA5kULh8Z1yLoVrwv7A5RSHq7UaKt+3h8eK34nP4qvCoI+D+qTVStHvv3srx8TxWlEF9mLl6I7g8MGRczrgwAFxSlZLHNTonEawKroeMHj9Rqx/6rtw79UkY2iw93xfAq6VVzmGPDbQn13qDqKVA5tWN1Y2qztLe3hsL748w5UZLlde0ia8fD2VWSmn1vlwkF2ro1r7FYY3fNeWodqcsOLFg9/A5fdwXNKeJipydBB+eOHIOR0C8HxTvlKRFVOc07yTuhaMzmlyQn7MWt6lwv7ZpCtw+uHwSjmJyTmNDsoDlrXS2nNOV6LtWLZkPV7lju2Wwyo8tlvOaMDRYVkp9ZfYlVNa7uildpd5Xe4OKU6ptqk9nDkojqnroxrrjonEruERHDY4ck4HHOKInCVZQYmPq6Tkw+uFqXZoCMsMHNI4Pe54bC/s344r9+QNmuPL1rojWODAD5WSpK92ptetiCfd01DLE17yQ+KVckjLHZfKwV3+VBVK5ZzKoXU8Ogg/tHDknA4BcDxWTpzTPDxnx3TZCxRMjslapdYiHX1Rt3/IshzTTndM0/V0qlNDvzuLqlz/Jwc1kbl+DvaBPQdUWPH+epWOnBR3BRQqc/XWA7h7GbuD6v8AnqycOCYOinO6Ie6O4BbBkXM6BJBtnTtvHJGV0xg+F+d0GabB3t+RXasiqyPOiFPa9v6mWbgdJ9VRuSudVLmP7kT6s0h8R6V37PFK30Plpvc3XVryls0xXrg84fRiulo11V4tjmlasVW7iBaf04uhZk6qp02rJsBh8sB7DurIOR1a0LNHcICB4+GUHIh7BiQH4oBzGvF6wLCdHJPhC53ocEqtHFFhWcR20YpjuuyoyklZWXFQtnhVd3JS3l65VTh928437nZWLrYdn5OaxX1WCuYTU73cXnwe0bKls4KCs3YKJ8fE6112UN2Eu2OCgCOKYzra1h1mOHJOBxw4p+3azuXMKQ/CgdEhXa9zAn0b18+QJkfDAXBOew5qhtPWLjhbPanbkWOCVkS1oivHchk3O8Zh7XJQsw9zXsbLDm3vw5z92upptmrq9OOcmGpwBl0NxeieYyqoetNqiYMSup70dQSHCw6lcxq3MfutGlznKdbnMmhvBcw7mlE2casmD1Ta2rkey4tHxvl6Ywj20mYDPduzKcUrWCZjcBesr0mEl9zVK6wxvlLLmOnuWLWHUAd161+tZpad/VwVfb7cFsxB9jyuFpnLuLy7Wm0pDx149xbqny0eRzjbRnJgtfUTVqEpTYndwqrjXU5Lreh3aSaOoysYoJdRT0cwQfQS3WTFHt1Fj1fT3SJ0euicE6FHRc0bGkh6HBSQNyKYr38rAC8jH3FCrslpO+fJ75QZUb4QRKb9wiviNVD3tmZVtQ/u2gJ5psht++mxgRnuetAxt+5njik4Uezx6a5ZOaF9kQO67JhcBzmmP4+ckued1K3+K6eIRW1ZCfVtZEcrrMLl0ldtA8mxU450u5zTzg6ZmfaxwpJzEr/DqL8RoqPbAUabiFz7yT2WGyH1Rls0SaZ86PjVwVgm+fuBvNC9Xjh0zilKEY6/1zFQKYoSPQ8EXUd5I+S3O9dS6AsB1+owcjlrGuW4Vp1nA7U4qAnHlOkE6kqs9Gqn+69gr3Ml7Dmsq6ID6wnLkzwrXi47q3tFixOvnNTuperr7c22vbPVdsqJehsCmPrTQCjdlZOykhp1lT6PDeSnPbGlww7zMsW+R9uZh3EM7Keb6AyozyZhaI35i4RD2SNRzKicKNOPB4NRLkxHwSh4pHEQIPxBgLft7e3+CefcqZvn+SDx/0ICHaVfx4E09vUIGVD0CelTmIlM/HYAk5jJjEyRMZM0HJ3KGM4j/UW38zYZGgnH/EXCoXROo6IgkDYaqXjyxnKJw7GjbhVcrVPDIwPLmdN+kHJ3GqS/x8ETTFrKxSaSN2JsBd5OEFkje+RMCOZtR9yYmHdgYxl04Xz6zYBD2SMUHAVFmVHoiPOzBQRRMLyVMHbyyFsA32Y+zkkczPM+1r3TYNTBfB+DeV0FXGegZpV9OzmnyDfuIEaHNMK8fqLD/cZTys7XuVlw6HqEUig6yokig3FIo1MKjHWFI52DBKNsWTmJj/weRL5faEjfj/0doJ/oKPkcfbY5o13cThCdRL55HUUP0qKjjIX9xkPqg7HcWD64aDh0zomyKJjCRqWNs0QU7oVs3rjoFbD9NbBDPjrBWw0jH+nopI0rp+SN5Y7gsi4yYNLHydPvyQP0Sp8ZqCYA8dsByBWZxjOncawYC3Q02pxrGD3B6PVqkHrR76LhUDqnKBxQUBSZjnEgaEB7AZuXsTlQdkveg4y5i6csTAcdRBidk/DZeH02I7pdIX0/DiZAV/qa3qA4m4BxRMpmYGWw3g5AHh+zyMcw2Dibp4PYfxxXbgRkHMDRjub1C5TJ2AH0pi3tLhoOnXOisHmkKMrmgJ544on2yU9+sn3sYx9rf/AHf9A+8pGPtD/+4z9un/jEJ3oeY9UplEzhB8ko93M+BlJ+VxcjAmPZ6OFOBHoI0pW+ZQfeDuqNoOzgQx/6UPvwhz/cbeFP/uRPun2YuPbT62EHdhCnRD42z/a9e/4P//AP2//7f/+vo7Tc1eOg5ifsIEAPXdfyUxYYP9mVLBpekHeIE2pewDEtZcQzq8kDKZs015kVGRhkiFkdZYWUMpTWX6ZfaEbxtY9Tp06106dP9w8B3HXXXe3+++/vCrYNzOe+r8anUFriuR7T0nEg9RiANlIuQF4w30Zm///zf/5P+/f//t/39zQbaNIAowh/AXFtkPGbv/mb29/7e3+vff7nf343QDKFt7TzbKAMnO8P19pI2yl3LUg5coHIi054CgJpQLmxbahddMYV8mgDdGRgxlFJR5cO8K6P2YC+F7pmDw888EC3Cche1Il+9+NPXuRI2ZS/XkjdUZ+RN/TGdOViM2mTg438dMEh0Y20pNPJ2Jdk9655+iAv+c+cOdPOnj3bQzZEB+PkPfIIXWvbe+3/03/6T+37vu/7evspA8Tn5QHyD8QHDjBEyAgUTFoAQwxKGkYBZkeDZIwGqZnggx/8YPu///f/9hnBbBiDjBErH0FB6OqIe++9t+OLX/zi9gVf8AW9o8Qp7O67794bgKmDhmtxvIiD8Dl2vA4LpHPxbSDIS370kA4Ln2iRA/7e7/1e+zf/5t+097///X3WN9jC03x96TG2r/u6r+sfOCCbd48zOvTRHA3uahBZYizak4Y3OtImlCf9WhB6Bol46NEFmrlWBuIT4NU1OTPg6MB23XvV6YQNWCWzCwNTXX2PPyEcZU77BqC+pptHHnmkffZnf3Z7+OGH28te9rI+Yekv5bQvDC/o4jnyS0czfQHTzrVAGRia6MHUxTu64YG+6CF2RJ9s3+rQisiYEKcjuhpXhyM/6GU7xhk99NBD7ZWvfGX71E/91Paa17ymveQlL+ljgo5iU2iawDM2omc2+p//839u//E//sf+XnswtqWN9EdA/i13TpggDO9NGAxEYAKOyqesGGs6Xx6GP/rRj7bf/d3fbe973/v6aiIv+Ld01wnKKJt6UUQETZoyjImSxwNzHfPa1762o8551ate1Q2VgaqHd8ixoafTGQZ5dJw0tJVFD+AlgD+6MIDwnI6F4uQWV8e18pH7x3/8x/uWhMzKgXS+cJQVP9I+4zM+o335l395l0M9Bkju1L8WoDn2A9pWGFYXX/EVX9Fe9KIXdd2RGd/XgtADeASu1XUdewDoAnnsJrZD35zQBz7wgW4DnJK+z4ceDB51tBXcT08JpZEJssmsounMp7Xo0GA1iJRRnv4gO4g+8YZ3fEuLHdDZtSD09E/o63dyoEc3kQXSGX1wzLaqxsTv/M7vdF1IUxcP0Vf0AaKL8Ebn4Tlp5OKcOepP+7RP29NBVpP0pGwWAtI5p+/93u/tzomjTDsBMuAjoL4yt9w5YYRC9xqcMR5DDEiHFEpZylptmAne85739KWjGcHgtl+OYUNx9NTXHkg4tikt5WDyIEdF0VZTOodx2hLpnJe+9KW900A6cqSP5iijThsHG/qM7k//9E/bL/3SL/VVkNWM38zFGIWRBeYaLcZouSxNu+iN7SceWVyTxapASKcZ8Ggrcz2gHPrqAAOIXv7G3/gbXS+u5cfZXAvQQyv9C+jINSArGV0rK66vDTyT0v/+3/+7O2nOiD44efRGvQWik2sBPmDa1G8GICdlNfXqV7+6y/r617++D1L2gfbIf/p5TAO5vl7AP9r4oFP1ozM0OV/j4Td+4zf6eOCkTV50wVmoC+lDqE7oBVMGhv7oAF2T3yR03333dafBUX3xF39xHxfS5KubOr//+7/ft3X/4T/8h27XaSdAt/N9o8wtd06BecW4joDpYGkUazBSug74n//zf/ZOMLB1gg5itPOADkAjkDSQ9hMfy1Gca0o0iK2WLPV1hm2Rjvmsz/qsvu1LXYqE4gY/nlwzbk6VU0h75CQXOcwwv/iLv9jlycymbgwzdRKH2lAubUubHwDS8J/yY93oNiD9ekAdMoU3OqGPf/SP/lF33K6VGWlfDZTBX4wPXWFoy8cnB6WPDTarJB8S/fVf//WuO87cSil6Gw0e7CeXtDE9/I48p32YOP4MQg7eCtr3/8jMObMLdgKj/9BTnxzC5F0LxrqpB0d9cMqckpWSceHaFja6iH2AUS/SRgxv4tpQL3yO6eSH+pj8n/Ipn9K+6Iu+qI8FjoR9W03qU5MH5/Tv/t2/65NJaIVenJP4mH4t57Ty9re//bs7tZsEmDBgMUcRGOsNzwYSBJSW5apl6s/+7M+2//E//kdfaeiILO3HmRUkDLiGo8LHMPmpl7LhC2hHxzvXMhOYoQ0WnQEoMfzHEEJHKJ3hzrfhfIQ85LP8ZVhxbBlsMZ6AuDygzVGu0A0knnaVSbmxvDauB1InPJGfg/6SL/mSfiZh8Kata0HKRRaAJpkjtzwTEGM3EH/6p3+6/czP/Ex3TmyA09c3yoe3IEiYPJAwkPLBgPioPzQMFPywSf0ldC0Pkp9tp/xYN/FrAbnh2LfRBZsjty2sCc14+F//63/1lUpW3WlDnUDaB/KDILxrK7aQtLEs2hAPZDdRaJNOpCvPHsjPhvGonzhS9eUDce2M9BO3jebwrExNAsrp25S76c4JRNlAJxjcgJCYAYS2d9UJzlh+7ud+rgvMGNN5GA7zAYIGcw1SJtdgrJdOAbZ0GSDSlONcXDNGqziH7mSQTqk6xbXy6kcmaeLpeNeRkaNjXGiRCwa0GZyHeZmAtBhYrhOO5cc6yrrG1/WAsqEP4pysIHLmBMYyzwbaheFpvDb5cN5WBb4cayCyAecqbINO2Qt9sgXoOjQi9356mOdvvsyI4WecgPSTCcojKSYsg1Q5dpDVQ+pFtoTXgrSbtshHLo6YPt797nd3fZjUbOmsuOWnrvJQPDzP8wLSDpA+fx3bGNOliceGHanoDzxow7Y+ztnY/ZVf+ZXON5in7VocJH7LnRMhGF6WgSDKNagx6gzBOYzPbf+3//bfugfmFDBvWcl7MxBlCYAmiOARZh6jhJQRJh5QBj/SMthcay+dAm0nOEtt2/ZRJhRHM0YiH6IrTH3XZl7GZmWQ7an0a2H4HdNAZHItxIu2YqTSQPiB4tcDoZ1B4xp9S3xLe+cx+oZxXi9N9ILo4ZMNiNPtO9/5zr7t/cEf/MGuK7LIQz82A6LXgDIwdOfTyLBfeuLjdfSUvs81EDp4t5rBH56snpxDOZNUHmqPbNejF2XpkL0p75ozNoFZNf7oj/5oe9e73tXvxEnHA9psNY5h1AWIvPshOSEIf2jB2A3QjvzoL/onP96c/2qX7PJtu3/1V3+1j/WA9gAa0WFA3i13ThrhlAhOuTyrMIOa0s2QP/ADP9B+4Rd+oXtn+ZjUYRnEykL0KG1e2FyP4XwaGOMBNPEH5KfTxs7HCydpuydUnkJ1jvwYjjrpjNGIpFke60DL8sww6MPINl4HR57lBaS7Ds+jc4T4kgdHemM7V8N5+pAsbjnb1rlJYGCm3LUAHUYcmsB2wBlFVkuQkbOXnKUA9fCdfslAIh8Iz8FA+FIv8flQebRBeHOtzdBKOkBLX1s9WQmzC/wYaELlUjdtPBukr7RJJpOyg38rx+///u/vtkIX6GUyU57sQXlpL/mJXw21B8VDLw459QG6INd4ZM94sVriqE0wVlPvfe979+x6BPpAcwR0D4Rzwtw4M8SwrJY4JjOEO3KWsToiglAIhaGBcaG8xFNmVGTSQa7HtBGk70drLB/aQLqZIWdQOsmzIFnaB9HUeSNd8nJOtqJadskAAEDFSURBVHXZqoCrtRUYaQC0tREdyZcXjENN+bEemDeSa4G+Cm1GaOXkUQJnTtrSP6F9LUAjEw17yLblR37kR/q2hV4YN11lIKYeJNeor8B8uf0gdedppHzSI8tIZ0yDdEhuq2krCX3JUdvyCpXJILteoGfOzjj4yZ/8yX7mahtnPKClTXTxErrhZ16eXM+nB/bjS1rKjGUD+NO2PLzoP47UZG1M2O7qT+MCjG2oF/4D8q/lnK7Pqq4CGoOdUBEO8yDMaSyOCRDS4LJ//4mf+In2Yz/2Y71DLJMzYNFJfeAaREA0ko+WQcNBmLmguG0kQxGXn7yggRVe0EcbrwBtGKMQV05I+c6gfu3Xfq3P9HjXQWPd8K/uPMrTvrZB6EaX++E8jGljPHzO6w/keqR7LQTqjbTIQHfyIzOQLi3lXRvASQNx2OxB/9OdrZzBaKIy0JW3Wk49YWhHLu2iDVxLT56QDug3fa3/YwvRPYwNqAfUBdoLgvARBOrh0/bGSsfgVD42M5ZPnXkI38qzITcBjAfjwgoSrXl5gbSg+mMbSQ/M6yIoLe2LQ/pwHUg+CE286kd9qE1HMvrRox4caWDkKXp8rvC8V04aTqMUAEFmxlxTqjSGoTwBrCAMbmcL7lxZIkdYilM/9Oc7ILTTcZyQ1YvtldBBrVnd7V6hbYhbltI9u6FcluDopJ2xLRiQppy0zObiDNMKStz5y+gcQyv00g4H7DzNVpaTQ0/5GHTaSz2gnmthrpM2pgekgflyoQeSdi0MjfBmkHv+52u+5mv2VozSlBn7XV39Tq7oThlpBoAtgMNTjsl5yni+BKI/EF7gyEuuhdqAdIkfNuGw1pkYPvGs73NGyFEpIx5HmzbFRxjzgsBgloeWhza/9Eu/tD+0qGwG+n51Q59OoHwrD87Z+ZI7lM4k6SP56oz1Q8N1dCueNKiePPogpzOx6ASKRxf6EeJ7bCN9B9AbZQGJG9M5rtkPwu8I6l1r5XRDzzkhxigBYpiPAUIQj59GGeIv//Iv9/00b8vzEir584pHJysvcQrM0pFyGR1H5Kluz6AwFMtrRgnVwyPlacuMba/sANY2wrV9s3Jo6xA8aFP7rgM6Gh3p+FOe0/vO7/zO9i3f8i3dOJWPzKEH0GOA/+pf/as+KOkBDUYhL/KTES/aEI56me/kpI8Q/sNjaEiXJs/19cBIW31G7Xmvf/Ev/kX79E//9O7o8UteqD3lwpc8IeOVz3mYmDy7ZiC6M2srQK90RQ8QpG08A3IElNeOstE1PTJwjgifcUiZlLSNpknFKgUftlHZjrANfGoPL9pDW53oDkSfgHyewv/Wb/3W/nMh7bBJdaB8PKoLx/50jX5W4v/lv/yXPlmzRfnkyRZX2eg0dGCuySZfWTTlSc/EjS+TtJBToj+oTnRhohUXQlu2+bFNnugxE6s84zdlrxfUu2kPYSIeYlGGNMrRmfKAvAiQJaA7cpaulJ+OpFjCKy8uLW3ESFwrYxbgiPLUrnMQRkhYBqpjlddmeMEfuoxBZ5i9hQzTgaylubsQthZ4CN/qouUarcgHgTJveMMb2rd/+7e3r/zKr+w84BGkXNo1GBx0OhTXPsONcwp9qD0QXq20pAUD2h6vgTTAKPFiZqQH6clLeC1QLnpgiPTOiP7m3/ybfULQhgFAt9oAkUGdyBLnhBb5OSZnbyYGsiuHvjIw/CkfkBb7QFMdsnEG+j+/CfMzJE8xZ2WALv4SGkT0arWir+nXyj2TlgkkfaPvIYcGIhce0NLeX/7Lf7n9xb/4F/vPnvBFH/JThjzaBpGPY5DH/k2StrXGAxt0jiVPu3iIrCA0pUEw6lm+1YibFfRgRaKfOGrp9IWXUQ76gNqiFw7KmKAL44Fe6AjfcUDqhgdxekZrvFN3LVDvpjonxsLwMElgSIjkA0zLV85WjmE6qzHgDNooShxDIIoG8sTjlBji533e5/VnbT7ncz6nb6kYBMEoXqh+6HUhi0Zop0MoATIQHWAWx5+9vjtIMcg4GnXQCYa2tgzSr//6r++G+mVf9mWdT0A2ZegEPWV1uvbG1QTa+MJ75MW/wfNbv/Vb7R3veMeeToQBZXMtrj3XjN8Kx1bDSjKQ+tHFswF6AB/i0S8jRzczMP2gx7BTzrW2YOIGHdm9YcHht7uy5McP+ZXDP4gNATTDS+LKZhD6aYXJgXPKyoXDZxP4VR69kS/X4U8/QH3uAJqD8FS6OKeVvgHRNZkNrLe85S3tG7/xG7sdWq2l/6A60R0+XHMA2sYjupyAbZzHJ2zlrFbikIA60Ym4dPT2SzMpc8ocprFhFc9hStN+9Bse1VMfiOda+/jgmKzi9JkdDv44LmXIkMkIPUjWpF0P4OGmOicEEBNHmPDpeGkA0zrf8vm//tf/2n74h3+4d7z8CCMeRaOZNKA+2rZqlO1nBJbSZgSOKl4bpm5oGTzjdSDlgHSGYsZ0IGlGF7qFq6MYojLiwHXo4UvHy/MbrLe+9a3tbW97W+cNyNcWGQxeg4bDoSO6QkOofTAanTQzlrs2//yf//Oehs4oBx3lWlx7ytGJc6G//tf/et/T4xGkb0b5rwbRPz5CG+CB3gFa8vBNB+JoC7WFNyju4Pi///f/3tF2Ov2KfuSPvkY+MzkkzUSgfYPwcz/3cztaRVsdxP5A+k074WsE1zBl9I/tDIdkQnAm5ta4QSpPufCEB896+Y2hn/NwDIBDZNP40Ca5yBQ5Y0NWMBwT+iZrdys57+gzPLlWVwgB2jBl8KN9uwhIH0LbOHyip5zydJK6UN3kp0x0ZdJmq7ac+XGxkD44cqsk5fAXXuD1gnau5Zxu6FECCsNQBAIxDtfSdYrtnGeYnLWYmTCgg9RFI4pKB4QeRWLYlo0RvPnNb+5LaB1A8cqgr01xgzB1hPLGjgVop3MgUFdnWoWhiy8dwKmmTEJ0QWhqUzs6i1OwnDajxwgii3iMgxGb+dXlsDhR+siyO2no+tmA2RWgET7mIXIl7kzojW98Yw+t5LSHPyh+vYinHKSqiz9y0LnBRlfpq8gpDw/K0aFVkkcGnKuQRxpQNk4t+kpdcfT0pWvp9Gar8lVf9VX9jA9yUnhTFmQ1hx7adCgPDTiCNvAf+zHI3URhB2yO7GhwHOiory2rEiumr/7qr+6OEo9AfuSB6M/LpSzbcZRgO8cJmoSsrKUrnzquhYHUB6HNKWds4MkzaCZHfa6+sRbe9R2QRm71pY/lxLWRfjcurErpHU2Omj6UJ9NIR/x6QXn2ddOec0qnJyQYZBxQGmGsQr7ne76nz0g8sjIMNJ3QGak4xgzMdKY0S/Wv/dqv7U7JmY4VCuWl08QzmFOPgQjl4Q2doLaAsvjQJlSf8inJIETD7JYZLR2LLtnQFdehroWuKdzqLnKoq01x/CgT3rUr33V0KC1xBkt3nJMyqbcfkI1B4YUstnW2O/SnzbFdbV4LlQ0/QBxf4RVq0zXa2pRGD9EJeTl5q9HcmRtXIeoB5ZSXrj1tuVYmA0bfMGRbKYfPVgd0HVrhg11pAw19AKPPyKA9vIdHof6Vpq46Bni2imwgB8SveMUrOg/f9E3f1PPUh+iybXSgazwBtiSeNtDLZO3MCV/KAOVGmcI3dE0/EB1O1Jj4q3/1r3aH7ce5bCB6jYwZH3hCl47Igp4y+Jcf/tI+1G5kzDmvraJVprM5ZcLTcwF0b6pz2iNSAgmTRhAC6izLQId9Hra0gpKnPAWOHZiQkkLD7EX5znIy0Cg1HRnFAvSicGkwHQyjbHH0ta3M6qqy0w+T0ZUXJ6UDDC5ypA31I29ou0Y79a1W1Ec/bQszALUdGuHFdTpHPdecky2wM7q0BUdQPxAjUcbsTme2w2hpG4pfL+I79CJvZJGP34Dr5AMy6A/bAc7Vykn/ozfCyL/6CaMrdNmBs7xv+7Zv64OQg7CKUiYDUXsGlzR84QOiLw9EnmDKaAdKG/uDLbojaSVshZKVG3u0YgORRx3yjgM89ITS8MExmKT1Kd1EJ/OOIRBehOkDZbVv5cZJeigWfxkDyqcOQE9edKU+DL3oZdRH9AbHctGJFRV9sHltpv71AprXck5XbsSfA2CWsBEmECXqBHenDC6OKSf+oxDiysPQISzFmhWcLf2Fv/AXurem/HTgqHx10BFSZIzTdRdwRj8oTR7U5s7O5FTkoUn5nKClss7XNsVpA2hjqjfxrr3IZKlrC+NgnezhCYgHlIV4AcLwFVowfKbM1SB5KZt+CX9QGUZE1tC9FkYnwgA64S0h+mhrV1n9RA6PS1j5ucngJoC00EMn6DpyowdCyzbL+Y4bDgzZioZRy1N+vs/Dt3SIfuwueXhInjR00r40+dCKgy04dOcEvuu7vqufK7rJgE7sUT2ovLayRQJpS3np9OBuLQflfEv74Q0NYXgIf0kLmnCszjlqYc7b6IH9ag+t2AHQfujler6c/LSbdKgOupyRba3Jwdi0YrOryTHGouF5OycQpYEoAYjrHIdpnmly4s9Z6YQYMYjiQejIY3yf+Zmf2R2TGdPeN8qNUoXqait8UJB0kLR5DKQuniBIGZ1s6equhz28c6Sxvnrz8ibPamu8TT7yPcoqHh5BrhNPG6Gd/JQZ6wWSNp+X+pH1ejDy4TsyjBhexMeBFEDD3R6DMD9LkY9W+g+o5xpoc6RhMLCDN73pTd0O8lyVMuEx/IHoC0jLgFE2dLWXOuJwhDFNqD3tmt2t4jkD9qkd9EfZyTHyBuVFPgfM7npZRebsLfXZ/X58BkLHWGCTbni4a815Kqd+ygjRGfUx0pMmXxoEiY9poywgKy7ymzTowhbbpMFBybsahOZzgcvSP0fQGMVGGQGCcEAUryP8bk48HhgQGFCW8q5jLDw0QSneLWvxKAmIwygYpH1loPSkpWwwdYAy2mWA4SMhGRx2clC2aTpE+ZQBaCknHA3QSsF2NgNSvQwq7cUg0QmfoTkavLTUF0LgOvVA8iJ76kcOIcBj+utaCMJTrtEWRz+8pA/RFU+b6X93pDjqgHrKQfFcpw0g7tzPDG1rapY2QSirraBywrFPQhskPWlJT53IgI68Ue9jXYPOqgiKSyPv2CZg49L1tTT00UFTnt0D27CdcwNFftpGSzztKw+SBp0n2c45/KYTK6jwoB11YNpEVxi9pb2kKRdZpCkTPuhCHgx9dUKDHhx/2FnYVjqPwl8g7QTmr68HnrdzCoyDk0CEgGZLt+ctXRkqoeVH6BHkRVEcAoN0R45DoGyzBcHEtbNowD++KBxqA7pzl4NRThJEyemoQOSmD8+DeHTCISqeUzYYI7gdgDzktkq0bQFk9hybiUlIJ/pWWXkwgwCoO+pDXzjTcPfJIMy2xSoBoMVRHGTAr4k2MnNGJqw4pthAdEGm6CC6otdMapAebG9zB1ZaaNCH9tRdNMTm0YZkyxgxXrKVXDTckCQYipIjgDjle2TA7dLchqXIQOIxzgCh44ndbeKUlI1CwEhnEZAOhgBP0nQ4+TyLYbZyzhAeAspFBvUZk3qcklVDztmimyBYtBy3CsgB6UZIB1aP+t/2li7mQRl6MPCEuY7xm5Sc89hG2daxg0DOcw66/iJPbMuE5fzNNtdkHYgcbG3UQcDgp1tnPXTCYZswOSN16NAdRqAeGi8EaCftZ0JfNDxv5xRFBhgYBO5w6QhnDgZnOkCoo3IdZQp5XwfPVkzzT7aaWVMevUWC9nU+3sMbNACAGcrhvG2FMxDlYSA6SD00DCCyOxTHO/qpk/ojjdsBIqOBZxtnYiK/tDiuUVcJo3PGrRwdeyAvz+twVPLU1SdxaIu2g0UDuTIxidNFfsuZcRIbIH/i0Ud0RWaOyOTomMNEafskn76E6GkrNnwzIH0VdA0B3sP/IuF5O6cABQEMUw6GLeUd+DkcjgAggoFRGApmhBRvpnTrOJ5YuTgK5UZ6iwD0tYVuOje8iXOQ+OGcbCsib8oI5+NocdAMMs/chO+UgbcLkE3fQKtmg9D2hf6kpcwod2xh1IuyJigrBHdLrZjSH/TO0XNO4ql3UAHf7Cl8uzlkXORhy1FuEDmTHvtX13bOpO0A2llc6gihsnFQi9ZL2gJo4zPoesRFww05JwwyqCjVNWW6O+fMxcCktAgYIVyrl2txy1Z3ZByCclTSOaUoP/Vj7IuEOJw4V9fazOxswHBOeOOsRohs0UNks4x3K12IZjpTeLsBuSCwjfNTFTZAF3QKQcpIn9dFbMlZkzNH53xWCKkjL/0jDg8DsCM68UiN1TT+yUHe2Io0tiY+2lBkZHsckweQMyaSpy6blHazIDwFtDmPNwOedw9jiCMCUSSF546E531yEL4f8/H28sWtTjwzYXVii0cZoW+pr5wOnHcOiwI8ZiBpWzu5NkgciLudjLcRIttoTEIzpCfMrZ7wDUMP3i5AV/ov/ZybAZ4ezvnQfBlxOhrtQjmrAk85O3e0aoL0nXLpE/SsoA4ykC880kee9SILGYSjzdBNruXFBnOHLofg6tJJVmQWAMplRaneIgE9dMOb64Q3G27IOSUMw4wxt9EdhKcMUCY4AsHdFTMr6AQrqCg5Skmdkd6iAE1ONG0xEgaQduNIrJ7cLuUokwcz4MZrdeiCg86huDLq3W5AZroDOW/S/3TA4dAHIDunlHh0mLg8jsl2zjM0yac3tKB24uhvhi0sEsI/B+LmCL3Y8uI9EN1Ef2SC0pXjdIwLT/ubvNHLmVvKgthgdLlICD9pS9sj3kx43pJgjEFFSZAXz6smdIp8h3n7CROB5bsjlu2c6xigGYKy8/MR9MbOXQTgAU0Ggj4e8aZdaeGbU8Kjmcx1DEF9kHKuDSQ0nbm5cyUt5ZVJ+dsByBYd6H+rBNsXIJ1OEzfY5uV2TS/0aiDmiXz1OLf0d8plNbJoO1g0kJcdcUh5rCS6ih4yBkbnFDsRpwNbOqt2qybloIkvNmuMiNOVOou2KzTxGV7hfnC19BuBG3JOlDMyzzidNfi90Gg8o8ISN4DFGZtZwewgno4B4uimbK4XDeEpnZ9OiKFAhsJ52mpkgKinXAZgeEt9zglKRwNEjrR5uwB5bGENRDJHTkAXdCAE+hMkn/48hc355zY5iD6jK/X1z2HQHV5N0HYQVk0mKUDm9H/0EvsYdQToxXbOs39ZMSmnDAyt1En6ogFNbY/9kWvt7wcpcyPwvJ1TAIPx3FY4lrBmCWmMkJfHZBQX5anH0CjdysnjA2YB6ToFogEZazrvRgWeB/TwgHY6Aca5ims7g8IjDvhJeZD6caIBgzSOOkYUercLkCcyuyNlK6vPATnpJLoyWIXRbSYC+rOV88SzCUC6euqzA2FoCA+DDvFJ3twYMSYi07jKEUonc2xI6Npq0lGCmwSuAxkfQFk06TDXiwZ8ag+vuQautZ1rkPiYFpC2X/rV4IZ6GHNRrgNgA5GDylmDPMxQcowpdQJuk3quRQcoc1BR53NMthycKMggE5KJAaUTyS+dgRqs0UfyRh0cZiCL/iZnHp9gC2wiMo4y72ec9Gb1nGfbbgcgr52EM8ecNZFfSDfAdXRCB0K2RgeOEYwJN4hs6eJ87iR43s4pBpe45atZ0/KV8ikaystduyhfCJRzAM5BGdSuDzIyLEYUzOwVI4MBcYOWgY6DNRjdHXZIX5KJczIYOSrpGXDByCweHYgbeJmgbpdBSDZ9bzVpbOj/pANyj2MhzgtIszq3muSwx8n9ToIbljhKs2KyfNUhOkA6pPAMTEDxjDYd46yBc2KUrg8yksGshtdRBumQ3DFCIE4fdCNPGeVvJ4jsBpcbISancQDC6ApEB6OuOPm8fTIO/3YATtoZXG7oRAdAfLSfjBEI4pxycyDpdxLckHOisCjYIDRz6pAoUnrCdELQtYFO+VZP6Kh7UDHnBIwmjjSDMPKCMS7flo5uIjeIXm4HIBPdGIDOV6ySA6Mu5iH6oAvbZOdNbGEcwIcZohcTdnSyn2yxhehCqJyzN3fpbO+SfqfBDTunoK2LmXNcJQkpNjOna/kpkxWIwW87YFt4UJGROeCOTBxPluLi0sgoBAmVYZzKAenJux0gDth5Y37kHRDX18pEfjDqIAPR9kV4u+iGvOzaGRz9jP0PXM+nRS9WSu4KWzndLmdwzweet3OiWEYHGeDonEDylEtaQAfIY7z25N4c6SsjwoOK3l7oHdh+H2UQcjoxKgOMkwXkAq4h2ckZmQOpezsA+QzCOGGywQw+4ZgeJy40+Gzt8zS4tNsB9DV9WE3SD3thC+QG4jA2kXR6MmnTh22u+J0KN/TFX4rMysB33/71v/7X/bNKORQfIcqPUapnhnDepBPckTDDHFQI35ypVcLocJInHrkNOgeZ3lj4t/7W3+rvJeKspKce/UkTAun0wiDlez7GRyj/2T/7Z30WljcO8hj2CGnDl0n+wT/4B/0HozFwdVN/UYAnt8l9xfff/tt/u/ealPQxENemtvEc+YAtPd28/e1v7w9gLpq/WwUmMK9H+e7v/u7+7B8nxTboInoYZY1+oPHgyzn/5J/8k/78n63drYbYN/7Sn2zS2P/5n//5/gVv70XPQ8ex6/SzOiAyqn+tT0Pd0DSFgSiVIY7bFyAvZSLQCK51ml+xe/+P72IdZPSljNyNipJhOm0EssExP2HwdoD0aVYIkSvyJ3+UdyzDIG3nYrwpf9iBjFkxBchmPHDO4uOYiPyATjgkvzVEJ2XvNLhhiSkb6AjOaZwto9CxE0Di6irvMNWzILaGBxXxaFbgmPZzNqODIq9rM2WMSyidvPKim9sByKbvoxvyCgPRy3yoHBuwehpXd7cDkIMOxjEBpD+bjNGJLe7ttM19PnBDklM65VE25wRz+Cc9RirM/lo8Ck8nSYOHCeaNjGyjfOSlD9c51DQA1VHudjG6yAP2c07R0aiv9Dc0EN2lcxcUpMztAHRgYotzItv8aip6yUQG2Aa9JJQefd5JcEMjhHEBioNR7gjSdMZ+eTpKp4DRYA8zgjhtzsigg/Is1/NA3UE+X3suoF8z8VzNBuZBGUgndAGju9sJIud+MJ+XeHTCKcVBgavRuZ3hhp3TvFHGyOaNLYpWdpw50hHKp8MOOwKOCHBQzg8yM5IXzuvnsAKZ9GdsYEQyjnImnrKuMwjnyx52IN+ok6vBfB4dZExkzNypsJCVUzoCzBuZuIEaAwTKj4NUXYM3aYcdyWTAWhmSO69WtVrKqkr67QDp+3GQzQ+4XJMb5JpORp3dbkDO/XSRtPk8MOpk1Mt+ZW93WJhbpsQoFsx3wnitDIelvNDBn3OZbIEOO1opkYlT8ryKxyTIR/5x1XC7QOSZl2m8ns+PLQA6mXdwtwPsp5PA7SbrzYCFOCcdYCXA0YzOKWHOJICymRWAt2B6oZZXptxO6EMNXtRPNrfKOSdbPHJHJ7cDpD/HLUj6fhyY+w1GNpEVZvRxtcF82CB6ET4XmeiJXuhjftzcaXBDD2FSGOV56O4nf/In27/8l/+yPw/kDkWMMco1MKP0dJgB6zv4HsLzitYY92EGMhpsZDNgvXrYN/iAVRUZ3dWC2e6Og9lgja4Ow0OYZPXs1zvf+c72jne8o391xWMX2iEfHqE28UaG8O/aQ7h/7a/9tf6gqo8a0E/0cZjBYyceSPUgpXfJ+30l2aOLeRmTJvTCPZ/iV9eDivrzVoN+wTse43TZ5M18CPOGnBPQCIZ++qd/ujsnD1N6OjZMBWxzdA4M2P5g7G1ve1v/7PftsJqgj3QeHXAMjIts7tRJz6woftidEzk8gMk5fc/3fE9/Ktoza9oZDTTtCmOorj1G8Na3vrX9nb/zd/oHJOLQDjvQwa//+q+3f/yP/3F/M0EeKZiXbdRJ8vym7k1velP7p//0n/Z47Ea5WwXhL7zi52Y7p4UsVRDCDNQowEAgTIYp5TCSa47LuQxDvR3QOZPzJltWIf2QEehQuiD/7QD6jyzpf7LGBhIGYhPSIT1YeeVGgXz1bwcgX/Qx6mSEMS06AfRCH6Mz26/+7Q4Ls4Q4mBggSFznmGEpmpJjgK5tAfJr9vlOFE8HozXSPqiAR3LB8Bs5Rv73M7Z5+ZSB+8m9X9lbAeHDj3fZQPiQnoEFIguQp085Nf3uVTsc1Hydq4FyafcgAxmdN2YiDs+jnYvHNqB0Tik/Lk/anQg35JyiUOg8xfkBGA0R6IBxsILMCjoh71dOvdAEY0cmLeUOKuJ5NEhp5BOPs3UdSLnEA+pdD1xvuZsB+NWPXsKf7Uf4kT46m/SlNHqw3aQH21fbA+nsYj8Y6R4GoBfy5kWKSSNDVs3iytBF9OTa6trreejksMm9SLgh50SRCTmn/EaK8qUlPwMuis41Q+SYnFmYOdNByohnT6vcfN0jOBigj62YbF+ddc33kev9wIpJ/wLlHRhn9ZS0+b6ODYy2dVABf/SRXwQE5vXDOUcPgN3TDX240eAajpPZnQI31MNRGmU73DZLcEwxyBiYckJ5WVEk3wGaTrC9Q0tZnalcZpTxOnWP4GCAvjExOWuzhTE5xYHoK2Hi+lK+69F2DE5fCM6raEAc0TyE9n55BwnwyGk7f2S3I99k3w/kRS6O2ooyK8mr1bmd4YanH8qkfOdNTt8ZKogTkZ/4fp1jW+dFZZaxIAarbBySeOqG1hEcDNAn+oljMhD1vzSY/BH0Ixj70Z0tL/Fz9jSukkdUfqwj7SAD/qycxi/KjLIEXMfWoWvjw8rJu8NGZ32nwQ05pyjWbBjnxEClpQPiVEAMDKauFZPX4HoWxDUYHVRWS9LgERxMMADdnWQH4wo3YSDX6X9ggvIJc29SHfODAYNWfvAgA77pxIvjrKAia/ie5z9ySmfnHj3Il1vIPerhToEbck6A0jJz2tb5zlYOAOXpFCGkZIpPOtAJlq8+xgmSHkNUVh0ziDSGfwQHB/RRBo+BqP8NxnEQJh4bSBzKM0HlS8Hz5SFIeuwiZQ4q4Jtz8uEG53Fx2PO855pc7Fw8zsmE7ciD7Wdc3EnwvCWOEiHgkKya3LXJ0j5lotiUHzvEgTfn5C2TOkTZOLfst1NWXpbIR3AwIH0j1PceGjRRuU4+1HcmsZRNnmuDzyC0crKdiY0EruagDjLgmZOmj9wokob3QOTZTy46cQbnwxrGRXRwJ8ENueMoNA7Ikt7PUCzvdcao+JRPfARLVyun97///f38AeiM0EVLuF/dI7i1oJ8y6AxEP70wGJM39tm80wEZrJyT1zXnnCUr5UDaGfEgA3t1p47DdrPAhC0N4D1x+sg1jFy5k/0Hf/AH/Ux2vKN3p8Dzdk6UmMNqoVnR8pVx2t7lFirlMzLlg8qPcR3h3Om9731vPxRlmOpl5ZQlsWt5R3CwIANNv9vasQOQ9AA7yGCM7cQO8i55Z0/6mSNL+YByY3iQgWxWTnRi0rbifza+5UXW2Lo72R/5yEf6nUwryjsNnrdzCuiEGJkOeNWrXtUdlA5JZ4wGth8wRB3xnve8p2/xdIS6HJ66jDQOLQ7rVgBe8DAOKvGRJ7I8F0ADoA1DO2lpQ3wEaSMf9DPqC0ifnxjgIiHtad92jnPKITAIn8oFwcgnoDerhN/8zd/sE1TyUgf94HzdRQHdhF+Qtsd011kBJl3oGox19YcVk3MnugH4zxZvBPKEVtA4+OAHP9gnbscf2h3bg9GJdDRuhl5GiHzhhYz40W50AhIfr+FzgeftnDSEoTDgGrNeEeKX+Jay0iPMyNioQEJC++rf/u3fbh/60Ie6o1KXs1NWfmg9VwEXCfu1zTDGhwev1ziiN6huOjeGFnoxPtdJUyflci2ecvSVsnGcytwsiKFySAbiK17xij4YwzsIPyA8jnwycgfAfsn/vve9r+cBId2gnzD1bwakT0B40yYE0tLHyQfiUN3EgWvjwZ3s9FkmkeSLoynfdcroO8cduWs36ms+HPlbJOArek9fQPHwC9Ku68gEboSvqebzgDAFNAwp1JLeuZO7NpxLZgl5MB0EQ0MnUL47Nl65wkjdwcnj+2i4NpPkOaoXGsIHOe3/YQZIOo1syjxfiD6iTxDdjTqTl7YD2o+TlJf8lM85zny9GwU86Wf6yCrBZ7Q5JzdIAN4imzDxAP7YAP70/S/8wi/0yYo80uWj4QyGTWjzRvS8H0R/6Od8h97Jpj284Yn+PHCctPBIJjTCb+TEpwnbjsIzT8qgI0QDgvSbMHG0yGz1RC94sf1VN3dE5TunlUb/WbEuCvBBTnzi28IBXzm2wY9rusIPGMPEnw88b+cERsUC15g2U+gQq6cwTQBI2P06UToH5PULPtBon40WxcTwGcWtgshAxtHJ4h1frpWJLq4HInsQjDSkxeHFQUmTT4eB1JFHT8rRWQZyaAtdLxrQ1U94cBhu5WSCwjMY+ZvHQAaBO1Reu2MVnUcL6EBZ9oDmWG9RoA0Dm37oFj8gfOoDulUudxTTN1BcGr0rn2s240YB5+T8Ce3oQgjSJ9ETVA4a/N6R5WO1tnfKpox26UQcPe2F70WB9tKP7NxxjXYzfuUbt3keS9qi4IYsNQoOAp3y0EMPdQdlBg2M5UYkHAwt5w7vfve7e4fk7CkrKOXMVLcC8BbnREZgMDEGRq0DI9P1ApkSBoFOBtpClzGM+SDtSBNXRzyDl7G4yxOe8AzRXCSkbe3SBV6dOb7hDW/o+gr/1wJ01NfXbp//+I//eD8cp2P02UJWBYseBIDORh1Fr2QID/LIIz99k3LAdeLRs7pWke7aOYub7wfl0QDCpGsP0IkdhfNY78qyM1HHOJBnNRU+wusiIbKirR9hrvWV80FfNMZjeF4U3LBzCoxxCvz0T//0/inlDFz5UX46IJC6hKN0W7t3vetdfQal7HS4/EUr4LkAPsMDw8CbmRJ/0sLn84HoB4QOI2Z8Zmx50vdrI+kw+rHqcHMBf3iN3vervwjAp7b1tZUC5+SREv1PjpH/q/EgHb+c6s/+7M/2wchRmZnZBTp0Tp7oalGg7eiOnrQF0s9pF5AxYJBGx9LVC630Kd1ku2v14TowypF4dJRrW7cPfOADe596j90JldFm7G+kt2jQRlB/ZCHhpXpsLfoBkQE+X7gh5wQwOoJrneSVq97C6CCQgVJaFJmVQIAA6hFOPm/8K7/yK+0nfuInukdOWeViNC804IFceGSQgBHHaKWRYd7xPhvMd+AoJyAr3Zl5r8exyI+zZMR0Z2C7Rls4GtAiIXIbeM4bTU6vf/3r9+7aJh8Pwf2APm1lzMYM3907W3w0IP7pObpaFKBJd+lDmDbwKl0fW8Fx/DCrl6D+Sj+FRzbD3u0mHHXkCXoQmfbThbTk0wknbWv3a7/2a/3cB/20ow28aft6VqnPBbQByaYtvDh7cgb2y7/8y/1NrW5gsLfwFBjjzwdW3v72t3/3LP6cIY1HiVAnSXfehFnPaRgk6UhCZpArpw4IrQxyS0ZGaqZxhmH1oJ6Olf9CAz61zziF+MELgyATvskgfr0Q+RMmnmuGwFFbQQjpUF4GQMqPQDfRkwNYDsLAYLTyoPqLBv2JH+1EB9r6/d///f6Apfxn67fIP8qUw1/bIccE5AL4V+5mQHQbXl1nMiWDraZBqT+sDJ2xccjq4I8dkD/lk4eOrbb6Bra+jAzRHVA28qdeaHEKdGJHok/1sfbYIrvM2Ho2PT9X0HZ4o4fowNnwD/zAD/RVUx6cvla7oQPETbpf9EVf1F/PzF+QNbqAN+ScQiTKDHFK0im5JgylGmwBSgVRfjpCqD5Bzfp+0oCWDsiSOO29kNCVVXyZXTMAGYTlrEPJGDC+hdcD5EgdEPmjCzpyQGwVoR3GmToJgXCM4w3iyxaLMbsG6C4a8IJXtLVDHnpicAaigWy2V24/CO9A3ACjT/JCkDceSI8MY70bBTRDG//sVuiabOTQDwblD//wD/c7aN7+6ZDbIItssX+8xRakkUmcg8pHQKSnXpxK+lW74rmWlwlbv1qRQvHoXLlFQ3TNAUGTjS33j/7oj/aHpjlZvAN6wsN+fMynub7pzimdCSgpHSHNNeUZWJbBOiROKXUifDqBAQLGDRm1usoRwGyF7gsNXVkz+chgwPk9oLtKjJSi5UeOa4FyQNnUSX2YjuKcPOtif59bxqkDUhaGDoizoK8v/MIv7GnyDMDoflGgHRD+8Q3oRJ97Tue5HJiiEfmyjbJtMBidZ7KRDIhFQfQ26pZceLbyc97jC0Mec+CYTLgcJudk9YQfGNnTJ+rrC3nGgmtbM3KZrJVXzipIXNv0ON9PI0/u2uFT25CDyKStjjKLAjTxpQ03qTglHzJwBiYtMmg3PEaXI8ynuX5BV06JUy5mhTqEk3FukB92Sg8orx7GxHUKBnUoGoQ3W5g1xJVhDJ35oiOMYlzv1zHK7IdXywPoAddoCsnhsNYM6sDeDKLDOCdbKLKqpzyegHhkC8152iBh8gAa9EV3jIEe6Cb0x1UkWuJpSzmAJ7exDeqsZsPbKBtQLwjkpbwy0TfayqQ+1F+upYe+la5rg9uA4lzDV+oCoWuQttGQrrzVBhrZCnFO5DGggTqpF35GemMeyHXKAGlpE5KHvjkiZ18/8zM/0/vctRU9W9A3HJQtlkkg9dGF4mw21/THSbEh+sgzQ8kb9Qqjx9CUJ65+dKF/oYGuPBopP/JyNRhpj22L4824Y39kdwbsMR+rJ7pJXW1qO3X3g5QNiN9U5wTmBRpDjUENW2k41BuX90KoTDoHjJ0kT0eYPXUoB8cgKMNg09niMO2FrvqBMQ7kB+bzXMvHhw7KCs5saSnLUH/sx36s/dIv/VJfFRiEzkXGu1OMEow8zUMGu/yRh/AfMAjM3FZR0ZF87ZJbPDwLQyt08JQZnvNP/hjCkVby8Eh+EDnoJDwHGfEoKz4NGvWVzwG9uHbGusrAgDQ0AHrK038O+AGZ0EdP2bQdmgF5yc915Ez5pKOFb22wVROPvv6RH/mRfiuf/bFFwDm6Zn+cUx6bYZNj+2jiNbQ5VuPBZGPQ69sRIjsecz3KhoZ8+jSmOG70tJF2Uz6ofGimjGsQG5SXNuXRAXvzEsBf/dVfbd/7vd/bz9pMEuyBHpTPBAnRCb20kzD8g5S96c7pWoDZNMzAdAgBpUdB8nSyDkx6BIDSKUNHclK2OWZhiskMSihK4xSiZBCly4+BhH7al6+ePIAffGTWyG++LGkt7c2k0hgGnvCGj9wuDs/opg00OQZyQtfJU34/kK4sg/ZdOAaJT+3JQyOdqdzYHsCDOuQwkN05NZDojXyhJVQPf3H4qY8mvaYPbNOyrVJHuhAf+iGDUzp60jhRNKw6Uie0AVrpd2nikSVpyutzNsQp6Bf8oIs+jEx4VA/dyENXaMgXAuWje22QwRGEvrZ945hMQB5p0S4IPXolG57Q1O++vUbm6FRZNKVFVnGD0hjgbIV4xQd+8CmePhVGJ/QO8K8NYwG/bJEdao8dqheIXOpoR/vypaff5QuhNLL5GZm3hLD57/u+7+ttWS2RV9v4Qkt59QEeR30DNIFrbeZa/VvunACmbHsol0d2uGhgR4goEOOYGgUgsGtlGCIjUd8qxq/YxXWM8wgrF4NQeUpLRwvRCboeIeXSNnpmTkbqY6E/9EM/1FdKrnWajsIvWkKdpf1HHnmkH0ADeTpKB6IbgyIDdC0dRN55kE9H9Gb2MiAZh7p4FtJLykpDa6Qnrg6Zsh3BFzC4IF7RQY/elInhAqEBT9fkVx+qp93IQVY8hFZ0ZMBA13Rn9ZuVFjoxcO2EXuRSBgbUs2Iwo+NFP+FXmVEekL4huzJopl+U0w65DDr25M7Tz/3cz/UB6eCbU+I8yII3iGau0UEXfeCOYniQp73wFh0J2Yo8ekBfv6AbQFt++AVpd2wbrYwnDpuzI48xkHbZDxxpjPpGXzlp9GBMsTU6+MEf/ME+EdO3PLpHSz9HF8L0u+ukhX+gjcgvD7i+5c4JMwSnMLMb4SiUx6eoMIIpgMF5kA8Iq04MIjOHPTBDEmZGBXEG6kRZ2pGuE/HBSaJje4aGzuCQrFQYqmdLDAJ0LXN1UBQYXrVBPlsnz7FkFpdP/mBkHeuOEDnHUDmhcwaGI4ws6WiQNug39dV1TX5O3UCGZDY7Rj9kogs6SZ6B4zEQ2xl6cAgq9EyLFSJZDRCgjcgTvlyHT3HOSR3840F7KReDxjeMLMA1XWpDKB3PeMe3Qal/3JyAnJY2yEGeyChkM9I5BLJZGRiItitks1KybbfCQwOPcdL4GOXU3/Qqj4xksDIlo/5XTl5kwzt0DdBSz8TBtvAK1NOWPKAOQGM+VAYPZAsd8rsbSBdsmmNht5wLG9C3Qtdk5JQ9qmKFaFfA9unDWODsMhnCsX9GuQBboBN9AsI/iM7CO0DnWs7phj9Hfj2AUaijOROHapaKWS4nnwJ0GsaSBsIs4WA6kGKU57kJyjFYvUDbF6s1eVYelKcswIcOhZSZDtO5+DMT6bg4okA6KTzE4NCxrH/jG9/Yvvmbv7l99Vd/dR+MykQOfOA5gEY6IhA5R1DO4GJwPvfuEJ7BkQGkjnLArB1dAvzJg/LoxM9LoifXBlP0g66BQifaMYjpgrMyWMnlE9K+5W+VmD7Agza1TW5p5Bv5IIefpViFWqUw/qw61IlO0u8A3egaRJ/S8ayOfDKQRb/ji6NwxpYJURm08TA6qfS1uAGL3+hz1GPaE9IRe4tDYV/OHL/ma76m/d2/+3f7Cipl0VE++tU+RJsj0Z+eF8rjBfhMG+qOqxQQPQUD9BPUz3YRfjJjIqEX57TSowty0YM+ZfdZfWWFNLYB0VVHHH/QtXQ3hHJcwOEbD0CZhOoF0n/66Nk+R37TnRMmNJqZktLNnHlWgoOiEAxjLAoGOmTslAiLHjrqAOUZiHRloGudo3MhxYWuupCRaNNARMu1joFRMEBP+2gog6d0mMFKNh3veaJv+qZvan//7//9bhzywyd+wj9QPwNhhPCfdHXxg45DSd+kt73EHxqjXpTFI0A7ugvQD57UM7jwji8oTgbykYezNoAZsHpAHvrf+Z3f2d72tre1173udb0OenSszcgkHW+u8SVNaBBYjel/d4CselI/fXI1GPWiDsg1uca+1r54+jxyh8ex/2F4pDPy4l1a5FE3elCGzmIL2tHfVgC1E2mf8zmf0/PV4Rw5nfAnLfZCtw7dHbhbsTg7Sr+iq31tCsOfa/lBIIwdJF170YNQPahM5MQ/unShXdejvEKANnnIIZ0caLFLTs9Plcgu3xGIlVrqhx/tpC+0Le9azukFO3PKoMGUgeBRfgIbAGYuy0egLGGAsq4TTweMHQSEUTDluqZoS1azs+WtWUrnB60IrJKsDiiVg2I0mTUoEmozbcAYHb7kkUub2kMDHwZtHpDTkcopr0wGQjrq2YCsCZUXcuy2HdoJT+hDne46YXQmDugNPwDPdG5FlJmTPugq2y7loxO8x6gMRDIyLvTIM8oJgeuRBzTM4lYZBi1daJsjDP1A6s1DZEl+ZBJXH69xriY9W3b9EpQG2Z028YqWftS3aNBN7GjUmbLhkf5d6xeymAi/9Eu/tH3+539+lw8/5EMz9ABaaKY/jQVbQTwbB+ErckZ3uY5+1UdLKE+aUHlp+ESHA9TP9EF+IZSWPPZPHoA3mDbRgxkX0Yc2xG3Lvu3bvq19yZd8Sa/P2aKPH/LBADquk3fLz5w0RuE8OGEAIRk4QyUoZuNYYJjHrDiIYDGeKApKTznpKSPdddKDAfmhOZ8HtJl09IWMWDoY20lncUocr6WuWUV59cKLMHxfDcJXUHsMDS16yhlCBhdQho6jmxjvvAzyId5TF6QMUFe7caQGH0RPGXX9btLzU2QceQ2dkX7S5ANO25YrDy8aHOn/gPIA//gBSXMtHX2YfkgbkTuQcuEjkOvQiMMZ9ZY8dPGKd3rOYPbTKgPs677u69q3f/u39y2zuvKFyqZ9EN7RRle+sZByca70AaJXfT+2m/pQvfAnHHWhPelpN/RSP3wBaVBa4kHA0QYcoZCZY/q8z/u83pcmAg+Yss/wAOhTW9oH4feWOyeNYC4CUxIEhDWYMcb4eVzKj5FiNoJAEGVG0WiG9pgWxQRCIzhC6gaTHzrJ18nawl/aBNKtIj7zMz+zfdmXfVlHDopMynIiDIvc6gWjh0DojYAXbQPltUVHtkOcfgxSp468pk7SUw7EWMb2Uh6M6aEZucXNuF/wBV/Ql+JmfvTwpIw20lYw9MK7tgxyjo1RG3jqGpgGpTquA/N0ch1MWvLVnS+rzZRJHhjTxvSRBkg8fOHZj9v1tTNGqybnLmSKjdOLetpwjQf14Zgm5KCycqMHOo6+RwRjXyYtkHLyR5kjT8onrgx6eFB2lDv8AbzJ128mpa/8yq9sb3nLW/pK0bkWGlZ+bjBwUvoZHXXoKvYW/Um/5c4pwms014TGpBCDlrUGN0MngI6Jkabs1WAU+NkgAsPxOh0RSP6YjucxXTxy4d/s+cVf/MXtTW96UzdUB6KMDe+RW1mgfmijMUJ4mo8rH31xeAwkS3SGzIjT+eENqBPdjG0pM+psrDOC9MgQh5yyXibnJoC+y6AC8lJGGAgtRpu4epyTvjdJ4Z88EESe0Ine5q9B4sKxHHSdMBD+Qss1nvarH1DGQNPnBpQD8K/6qq/qjpoNcEYmodRDj87US3vRu3jSgH6lA7TRoE/9mxUUwBeaI58wtEDaTXwsB0HKuhZP+bFMaCaf3HYDfkj+tV/7tf2GiBWTNP0I3FTwNhHHAvo5EBnJPvJgvBs3jgg4J+3EjsALduaEmTAJEjdozTZmHR7ZwFN+HHBhWJ1gQH7SInhgvs0Rkj6fHwWOdFMGH/jFI0MyqBipzvqGb/iG9uVf/uV9NmVoAI107khTGhxhbCvtBdTDF+PXodqmM06ck3JukFk2tMf2gkkbIemBlAXSyZv8yGLwaN8WJmeHo0zz7aCXfDpMG1Bddw2d05AL/ciSbWvKBhJPX42QPGH4CaRs8lJWuutxcITfAD5NOGS2pbWlgeJsl07imGK3YGwDuJ5P0464vqUHWyY2pl85p9CDypI7aa7RG8OUgYG0mXzXaV98vnzKkMkEgi8H39/4jd/Y5f6sz/qs3l/KhFa2dc5z9WHo4jWTM5COPhk5J2NIG/Pj5AVxTkBjgTEewBjv6Y6XAS5u2+LAFPDcygCCohHlJhyB8BQbJYMInvgIyqXsWGasI1/bjNT7iqyUnDN8y7d8S+8sTsmA4kQWCWmX/PhDX2fSEd44KAfb4qORqRedRQZ06DLyBpIvDGorg0Cb6gFnRGZMRqW/4oyfDdBKe3hIHK+uOTuPAHB2Qu2aibUVmZVTPvyB0A26Tp6Q/JE3edFRaKWsNoFyAXGOyRZWnxuYf/tv/+0+EeXMTd04kZGf64HwkwGcnYQDdk4KvRxcsy3lwjfZ0r+jTMpErpRBJ/WErrWXFXHKA3mQzvHiuOLNb35ze+tb39qdCWcMwnPouLnkQNxNqEwwaIPwIC1tqWfV+drXvrbbc/K1S38HxjkBAlgO8qiM1LKRo8KoDtI54gx2VKi0GO+oBApKZ0ZJQL46wSgsikYDyGOYDMbMoZMs5b/1W7+1/aW/9Je6gdraZMZU10AIX4sAtPCOduSCHAIHoVMhHjipyDvWTZ3IZiDFKJ9NL0A9kLqutaFtqwjyG0TXAnXSLhqRJemuyUTX5LF94PCdZ8hzSKz/QXga+25E6ewBggxqeZFRCIQj6j98WMXgg6P0VgeD0yTkWTY84ZNO6C+0027sR9q1QFl0Rlr4wIOVubY4RrzQU2iP/UGnScO/MG2P/Q/UUUYb2XpJYz8ZQ2ze+PNIhGMKqyVnaq9+9au7M1YODXWUNzbDu98M+mE8Wwx9epGnjLbUxw8bMob0tZtj4Sk8vyAPYfaGquFA4lEYwDwhOSYCMCgrJ7Onh8MI7ZkoodveOTQURgnookm4KGJMB8IgSGcFpCsvjcLyIFuW85yUmUMeA01Hq5cOGOktCjIQ03H41p47I1aXno73lK+H+RyWu5unHENQh66UD69CMK+bhNGLfPUZoQFr1UgHn/3Zn92+4iu+og/czKTPBmiiA9BEn0zScsaEV2npV7LZIjB2M7Knnp1nmJzYx+h0YGQSlw7Qh+jKj7wQ4INsGXCQI+AYDFCzujMRDiKH1soH1Q/NEcY2ng3whtfoOvLgF2QMeBTGA45e0UMXxsR4NmcMpG5kDh0oLl8b0UXC0dmwaTbvoJtzcn7K/unE2EQHgvRhFgHs0E9evO9Kv0mLvlIGaBN/6H7Hd3xH+/qv//o+yaGnHJq93EFxTpg1M1AAIEiEAe4E6CADz/NLDFcHMVadpxPVZ7DxvoQFUejIhxDqGHtnSsx5ju2S5SyFOQ+hRMYqrlxmmRgmQBu/2tUZiwL0RwNwHaNIm/I4I88/wfyMg7GMz/Uop44wtAPoBaWT0WCEDBNaIXHSBirdMGJ6ordrQeQA4SNy6C9prqM7ckm3nYkD9gyWZ9TyLJYzDvlmafIZrPQfDIhrP/IKtaUv9bdVCjn1MRnT70H9n4EZWuEfv2RIX6TdtHUtSP9xDqEDxdFGj12TMz8p4qzpwXNp9ML+6SBOGz31Qif8hndpeNcm+clswiEneW1XrZL0dQ6qUyc8owWjA+AA3+LBQ8K2eNqkY2X0pbbDCx45QttE22V8aAPNwIFxToAQmIbKGCAYdk0hQJzgnJWOyoOW6aDxocHMrDA8aEOnUFpmC4qxXE0HZbWk0xitfB2AnjrpJIpEG12I16QvCkKX3OiKZ0C4HhEv5Oe0/Q7PasobHBiwwctA6IaeQHSCFj0YgFDcgLU6NFAhfVghCaXH4LRLJ9eCtCOMM9J+nDw6sQdxaaPcyqnLKZENkiuTlDi5DOTwhZ4QDbRg+p9DNfD0cUJON85XvysXvmH4kxZ7FIfytAO0kbTrAeVSPnGYNskQG9Y3ZKQHfWsiMmEbExyYVSdUBkbPAF/qB+mAzZPX3UYrRai/ldVm2gXRA96kGw+uRwctj63JEx/p0Kd+BOwQbyY9vJBR+cgLDtTKCbPyCAvFCTV2unRlCU9AHSCujDCdoqOytITqqM8pcUSQ59ZBQqC9KJsiKS2DZ+wUxi90LV8e+s9lsF4vpLPSzth5aTcGyLGIm0HnH+RjMBx4HHvooJHBmpUSZywteXHk9AATH9u/FihHZzFk8fCdtpTRh9Hv2LY8MgnpQsgZha56BqUyHBaULz1y5CxJf2c1CKXha+QvIJ48tABa+AZ0G5BGL8oDda4F6KujbuQWD32yoqcdsgJ8sP3YG3BNfjJbYVnF0IFxoJw2skLMzoBDZjPygLaiI3TV1a40fQVd40dZoFzGnHhWSsoljFzRLdnCt3x05We8yYMHxjmlTARync6N8jBMEIqQRtj58jopXpmgQsoRKqM8JVCikLJiwDEUOCoximSU2oDz/AZByi8C0MI/A8GTtvErPYYLopfIJF/ZyCUvWx88Rw7l8I0WnWiHnMqErvzoI20ro054ul5AI0YaHqNvcqYv0A9tPAhTL2kgvAH00DBIOWgyuwboGYhxdmipi58RlYlcgTEfyEtfB+RpPyEYaVwNyAH1W3gCaET36Yt5PYefkbfIT4/Rmzx0INkiP4xzUi5lpUuLPOSQBsKvPGWkz+tKPpA/yhNURqhtdcPnvJwHyjmBdHyEEB+ZHoUIjHSA6+B4HUBzxPm0EUZaoaFM+AQjr/P1FwFjOyDt4CF8yYOMRV6uwWhYMUAQnkHojXKJM3ZhdI7G2LY2xK8FqWNlgx+DBHAg4lBb+BMP/+qNCCIzSBoIP3AsA1I/sqTefDtgpK180kHaiPzB0BWPjqVdC5QDoRfe0RrpAdd0JI2Oks8RJR8d5eNA5nkPn9JdC4NXA+VSN+VGvYUPbQpHhzXKE8CfSTITrjLS5vk4cM5pPm9kmBCA8PJhlAQIGpSXgZT6I+3UAaPiQNoOqCctCkQ/dEMrdZK+KEh72tZOriGYl38/nmKMYJQjGJAXTN7YplBe2g5PuX42CD2zuvKjw8Sf68ginsGlrHyh6/A2QnhOPG2NKF39gLQRUo5MMHS0mzwQOq7FIQif4Gp87gcj7bQNohN0xrR5ByCetOhJfJQ1IF1byuQ65aTBeblAysnTxshvaArDZ3gDKSMt9dDiUDnY+fZcTzJcav8fWP1dSKRu+fwAAAAASUVORK5CYII=;" parent="1" vertex="1">
          <mxGeometry x="662" y="506.07" width="62.2" height="70" as="geometry" />
        </mxCell>
        <mxCell id="0KBhAS2ODoQ1BvLWssxc-3" value="" style="edgeStyle=orthogonalEdgeStyle;rounded=0;orthogonalLoop=1;jettySize=auto;html=1;dashed=1;" parent="1" source="0KBhAS2ODoQ1BvLWssxc-4" target="0KBhAS2ODoQ1BvLWssxc-2" edge="1">
          <mxGeometry relative="1" as="geometry" />
        </mxCell>
        <mxCell id="0KBhAS2ODoQ1BvLWssxc-4" value="&lt;font style=&quot;font-size: 14px&quot;&gt;&lt;b&gt;kube-apiserver&lt;/b&gt;&lt;/font&gt;" style="rounded=0;whiteSpace=wrap;html=1;fillColor=#00FFFF;" parent="1" vertex="1">
          <mxGeometry x="802" y="511.07" width="120" height="60" as="geometry" />
        </mxCell>
        <mxCell id="0KBhAS2ODoQ1BvLWssxc-5" style="edgeStyle=orthogonalEdgeStyle;rounded=0;orthogonalLoop=1;jettySize=auto;html=1;exitX=0.5;exitY=1;exitDx=0;exitDy=0;entryX=0.5;entryY=0;entryDx=0;entryDy=0;" parent="1" source="0KBhAS2ODoQ1BvLWssxc-6" target="0KBhAS2ODoQ1BvLWssxc-4" edge="1">
          <mxGeometry relative="1" as="geometry" />
        </mxCell>
        <mxCell id="0KBhAS2ODoQ1BvLWssxc-6" value="&lt;font style=&quot;font-size: 14px&quot;&gt;&lt;b&gt;kube-controller-manager&lt;/b&gt;&lt;/font&gt;" style="rounded=0;whiteSpace=wrap;html=1;fillColor=#00FFFF;" parent="1" vertex="1">
          <mxGeometry x="802" y="425.07" width="120" height="60" as="geometry" />
        </mxCell>
        <mxCell id="0KBhAS2ODoQ1BvLWssxc-8" value="" style="shape=image;verticalLabelPosition=bottom;labelBackgroundColor=#ffffff;verticalAlign=top;aspect=fixed;imageAspect=0;image=data:image/png,iVBORw0KGgoAAAANSUhEUgAAARgAAACWCAYAAAAFQ5eQAAAAAXNSR0IArs4c6QAAAARnQU1BAACxjwv8YQUAAAAJcEhZcwAAEnQAABJ0Ad5mH3gAABodSURBVHhe7Z0NjFVlesffXasrIA4fMsIAyjCzGV1R+VoLKlu3AuuaTVa7Glm1xMRt3DXVRGjimhpjWhu7SdFUm13NdttE1GLMLjTd+gFYdQkrJYgKGKSdAVRAHBFBEPxKt/zee56Zd17OuXPPnXuYr/8vOTn3nPPe95x7Zt7/fZ7nPfd5vnLWWWf9wQkhRAF8NVkLIUTNOamuru7e5HXNmbF4mTt73o/cl0cPucO7tyV7+w8X/PgR13jlX7qTThniDm7fmOwVQlRKoRbMycNG+PXX6ur9ur9h13/K8FF+LYTIR6/EYGbd85z74pMD7tUlC5I9ndRNnubOvfF+d3DH627r0p8me0WRrFh8vV8/ve5N98TaN/xrIWpBr8RgEA+sA8Qkpn7qfL/es/YpvxbFseTGK7y4ICxCFEGHBWOWQ8jO537h9q7/92SrZHl8uOVF9/mh/W7c7B8ke53b+vhd7uD215KtUruQ+PjYi77vJl3xE9/X//7mZ8neEsQ9EJ/Qujl73l90OV9s3di1c73DJ5zjRk/5dnIk+9xGmiVF7MjcI4jvg1HLe2Y89NBDrrm52V155ZXJnnwgGk1njnJXLXky2dMJYrJh+x533/KX3N1XX+b38fqGSy501846TxaMqDnegmGgNF99p1v3N1d0LAxiBmJsZTB4z7jg8o52R9p3HjfI7Nh7r/w62dMVBiAD+/TGrn1zrqH1k9zHOzoH3tf/7E4/MBmQ9Mm6rnGqO/fP/z5p0QnXO6S+scu18bkMExeuy9rsXvNvx/WF4HAMsciCvvjciIf1xWv6RxBD0u5ZeF1GS0uLFxdYuHChX+dl4473/BrRCLHt9a27/BphYRGiSLzA8E0af4ubi2IuS0jYtn3js34dD6ruQERiN8nO1f76Sr/mGIMTQbBve9ZsIzKx+CGKmx75cbLl3NH2HV3OgXUDb6/6pV8DYldNrGf8nB96oQgtMF6zr65pRrKnRGwlHWx7NdVF3LZtm2ttbfWvH3vsMb/Oi1kgjfUj/dqY3jjOfXj4iFu5udS/ECeC3DEYBnGIuQN5Z1oO7XrLr0MBw/pggJqYjGia6dcH2jb4tfHZwXa/tuPGkb1tyasSDHgsBuvPzonbEg/uPPBeBAKhiEHUsMJC+EyVcvvtt1ftHhm4QTMnNyRbJXCb/mvLjmRLiBNDh8DgijDwbIndnloTu0kMWgZm2qDlWsJrC2MoefDWyjEXC6xP4i1F0BMB6ym/Xl8K2ppbZGvFV8SJxgsM4mKuiMUJbCB2R08GUugmmSUTui+GxV/iJa1td2DN2Pv5vJwfoak1ZjX1Blt3f+Da3t/f4SbhHmHVCHGi8QKDa4I1Uc2ANTfF4iZ5sPcgLuYehZhrFLtCtYLPi8hAHqFEPLhfQ8c2JXs6SfsceWAW6Zlnnkm2qodgr7lJuEcW3BXiROIFhsESBh1ZV+Ii0Y4ZHuIy1Xxj20DFekpzjzhO35wjjwBkwWxRHIwmIMs15L3+fZte8IHmsD8sQT7H2ysfTfbkoxazSIa5Q0xHK7greouO52DiZz9wS5hKxY2xmZI0VwILILR84udMQhjI8WyVuWeA25JG2MYI+zJBjK8ljfhzYm2EM0/diWt4jWmfNf4M3DNEMpypsud6uMexsPX0OZgQxAUr5oUt293Dz69L9pawZ1/SQJBufnRFsiVE9eT6qUDaYBFCiCxyT1MLIUSlSGCEEIUhgRFCFIZSZgohCkMWjBCiMCQwQojCkMAIIQpDAiOEKAwJjBCiMCQwQojCkMAIIQpDAiOEKIxMgeFXxfy4MW+uXSGEMAqzYCg/UlQ6SiFE/0AukhCiMCQwQojC6PJjxzjbG8RZ4uLscmFmuXLZ7CDOaJfWPi3LGyxatMjNnTvXPfjgg27VqlXJXiFEX8YLjKWJDEu5pqWhRFwgLDZGIDhOOwlpJWBDEJf66d/t8j7eQ07btNSZS5cudaNHj3YbNmxw99xzT7JXCNGX8S7S2fNv8SIRCkcaHI/bIEqIAoKUB2oUxaJUrkrka6+VrJo1a9b4tRCi7+MFBoGgImFf5oEHHvCJsOUeCdF/yB3kJU6DW2RLnO0/D5QRCfuqtmKjEKJvkktgLAhMjMQWXKRqQFyoK7TzuV909MVrIcTAwQsMszt/NKxUZtRouOS65FUJYiyIS6WCQp/lwC0j7mPF87uDWSQqHs6bNy/ZI4To63iBobga1oQFarEu4ulqmzqmNKqRVhDNOLK3zfeR9VMDBAiRMbqb4p42rXRtc+bM8WshRN/HCwwzQxRUY1qaWAjEMzyAC4MoWMwEsclya5jaxtqhgqG1D386YP3bMcQFNykLzSIJ0f9QVQEhRGHknkUSQohKkcAIIQpDAiOEKAwJjBCiMCQwQojCkMAIIQpDAiOEKAwJjBCiMCQwQojCkMAIIQpDAiOEKAwJjBCiMPrUjx0tZQO/0K40T0weSEPBr8GzEpEPRCyxl5GWoJ1fs0NWRYe82N8xriIh8rPkxivciGGnupsfXZHsqZy7r77MNdaPqOq9tUIWzADGxAXhsKyBsbiEydqHnHFW8qpnfK2u3q/jnEJi8CGBGcBgrZHnp5xVwjETn1pZjeQCsj5FNisWX3/c8qtbrkqO1pb55zdn9o+lw7EbLrkw2VM7JDADGCyILz/5KNkSfY2rljzZZdmwfU9ypPas3Nzqnl73pht92lAvKAbCM3Nyg3thy3b3xNo3kr21o9djMOb/h8QxmEriCBCn3YzbpcVgrNhb3DZOBxoWpQM7F+4H+YvD60v75rbzGGlxpriyZnxO+oC3Vz7qsw8acfVNg3sb92FYYb2QLIsjKzWqxVjS+oKsv1P8N0+L/ZSrIAqkYiVbIu+lrpfd26xzksv5jjvucKtXr/YlcHoCVgAD1bhr2Sq3dfcH/jUxk6YzR3XZZ2AltL2/3y1+/Pj/eUiLmVgM5h9+u9bdv6AzHzViEQsCFsi1s85Ltkp8ePjIcf1xfT9fud6LDtcUt6klvWbBMED5R2NwmDmdln6TQcXgtTYs/DOF6TeBf0gGfNgfhdyycgKDCQ7njYWIf27rh+Nsc44YG1jWloFgQmDwOREOa8MysmV2crQEbXivHbdzci0hXC/ntLiKpSW1WEpYVgbow7ZZuO8Qukb0kYUNdK6HtpwXGMg24MO+bOF4GlwDblvYtvnqrvfV7r99RhawzxTCvaCmF21oz/1J+ztZLmfL7VwtDMgd7Qe6WB0M/HPHj/HHn3+j1a+nT2rwa8PcDzueF86BaHFOrA2ExM4JiBP77Lrs2mL++cVX/frW+Rd1WDJP/X6LXxdBrwnM+Dk/9P9oad+8BuJgAhDCNgPWBguDi39IBkrYHxZCVv/8EyNc9BVaEvRp+w2O0zfniGH/1qU/TbZKA49rNkwg4tmU8D3WJhQ5O2doGRkMJPvGb399pV+PaJrp15wnHJT0YdsssdXUHac3TvOfyd7Heekz/IyVYn+vj7a94tdGeG/s/vNFEVo1rctLVlj8hcG1mIVGe641TExvWC5ny+1cDQxIvu3vW/5Sssf51+z7wUUlywGrgO3pjeP8tsE2+zmeF6yl0CJavaXNr03EzM3BKukO+sD6AXONqrmmSukVgUEQEAgqD5Rj6Ngm/60eDwrbHj7hHL+2wWWDrTuyxAWsz3j/54f2+7UNEuPQrreSVyUQDhvcwEBESMuR1cb6Ds/J/QgHXn/C7imWZpZlafc//mLgM/PZ+Z8Iie9/FlQEpTJoT9wj3Besl5gDn3zqjxmv79zr3ZDQwmCb/dWAMMXuVkhLwxl+XalQhK7Vtj37klfF0K+DvFbL6ZTho/y6koGHsJlVcHTfO36dRuhWsOCGVAPn62mg1aZ9ewNK2iCAJnJmLXYnmlkgvghFWG3C3LtK4H72Jnzr4yaFC+IRYhbG3CklMTT36OHn1/l1bxMGeXGViqRfC0w8cCv5R7U4B+u0wKRhLkW8xJZNJcRF7fLy2cH25NWJx64dqwMx4J4hLqGLlxdz4yyeQ5+xZZgFf7fehLhGGOewJQySYm3QbtKYkhjiHhU5Q5QHxA6R5HpwjyAUnFpTqMBYwDH+5zFLwywPo376d5NXJax4Wywc1p+Zx7Y2V6kSzKePg8VpbklPiGMyaWS1yXLXTiQWDwlFtifiEsL/gYmMWWlZ979StzoLZpGoDEqF0GrBPQpdoXKsb93lLRviI6zZ7o6Rw0717lZe9h8+6tehS8ZrhCSGQLDFkbCoeE07rrMIChMY/kHMnI1nTIBvwTBoGs+8AH4431jxLAPfprzfBh5rBilmd/iPyessX59/bgsWh+e2vjhHLWAmKz4HWGAX9qx9yrcJ93Ht3B8Gd28Txz2qhb9F+Bmhfup8vz7QtsGvs+4//wPsLzcpUI5azCL9ev3xz5FkYcFeXJC04C4CEPZjQrRxx3vJnsqxmIoFmumbWSemxEPsfOGsEdPfcN3FU/y61hT6HAzWC6QFU4FBZ9/czAYQpMVcjtuH7SCcOQiJn53gHzKefqafcNaCf3qLr/DtbFggOCTsDwFgEGR9thi7F0ba+7prw31AiMLr55ude4YQxYOP/rLuVfi5Y9I+Zxrh/YoxQQ3vP6Td17R+4naxW2bXn3aPID5vLZ+DIe4Sk/Zcym3fmeUunzLZuyJp8Rc7bqT1kfZbJBOQsL3tM5h1IgY0ddJY/17ExVyjcBYM7DrKPaNTLarsKDIxcUmLuSBeWJeh2IXgenI8HuiDCRu4aQ/dDRb6dZBXFIvFReLnVgArpxxYWjwAN5hBXLAYBqu4gARGZGKzV3EMDfcEV5MpbMA1xdoxLM5S6XNJAxFcG4jdkcGGXCRRFovxxMSxD1wirBajXHxmIBP+Tonp68GOBEYIURhykYQQhSGBEUIUhgRGCFEYEhghRGFIYIQQhSGBEUIUhgRGCFEYEhghRGF4geHRb368VknCJuDRcNrbI+G1gsfN6Td87FwI0X+pyoKxLGfho+HixMDP8kkXwC91hejrVCUwlti6P/4Un5SBYT7VtNweQojaMKhiMCTdIWUg5R3CfKpFlesUYrDjf+xo2cHCejthdjj7ZWycZSwtW1rYVyUV94i5xKRleyOX6ty5c92DDz7oS1DkxTJ+pWX0SiPONpaVlSyuphf3j6iRa5VMYaG1lHYdlnXMCDOWxcdisq5PiN7kpLq6untHNM1wwyd+w+3b9IL77KO9XiTqZ1zpBWTTI53pEvdtWu12vfy4Xyb8yY3u6DHR2L+1lNPTsL7GXDDX5wvh/YfefdM1zL7GDRk9vqM9gdwpN/+jT/X45r8u8n1+efSQG9H8TXegdYM7vHubb2fceuutbujQoe7kk092L76YXYkwizGnD/MpBI9+/oVbual8/RgG86UtZ3nrZtkrm31S5etmT/F9rG/rTN5Mu3nnN3mL6O9WvOzbThxd58aNGO7a2kv5UL917iQ3ZWK9W3Dx+R3t6O/7M89xJ331q27zu+/7duQPGTfyNHf9w0/7fjiGcFmb37210+9/4529/nMgKIuWPuv3sYTXJURf4TgXySyQrFyulRK+H6sICyasuFdJZccQq8hnFfryQlYxBiWJlbEkrFZNTFqVPBI2897QorF2WBlhQmcsjrQCWKRNtP22bqwvBcu5Fq7LEjAD/WDl/OmU46sUCtFf6CIwZHivhbhAuYp71ZSgIFEzlfmqcY8MXAhLAoR1gNDE8ZesKnlWGsLKO1i7OElzGmmV+bgOc5EQmrQ2B4986pMX4d4J0R/pIjAWc7EyqQMVC+5ilTCAEZp4ELMvXMI4C9QNPdWLQq2w6wiX0GISoj/SRWB8kPeY24IVMxgedsOiMVfIynwaJkLxElo2lhqxFiBWaedjGcxJo0X/5rgYDM+4UG6CchWVPtmbl0orO4Ywi0RlPurb1JJ39x9MXpWwYuDdVbrb0V4qW9tdu0qgr0pdIYmN6E8cJzBgtW7Skj3XCiyl7io7hlhFPqvQlxeEgFmfmB99e4ZfW8FyLBQKUHVXFJzYC1YH7UJhIGCbV3Ssr7/63iXJnvJwfXKfRH8g8zmYMJu8PZcSZ44PsTbWVyUV99hXSWVH6OlzMBA/swIM7LBqnpH23Ela5bu4XdpzMNQzTjtHDFPVzCaFZD23E2avBz0HI/oiqioghCiMVBdJCCFqgQRGCFEYEhghRGFIYIQQhSGBEUIUhgRGCFEYEhghRGFIYIQQhSGBEUIUhgRGCFEYEhghRGFIYIQQhdEvBYbqBvyyWwjRtylMYEjF0BdFwMrTklZCCFEscpGEEIUhgRFCFMZXLrrmtj+Qf5cscqyB1yNbZvsqjnFFRlwMawfh8fhYDLl+LR0npLUPs+oZliUvJO4L4iqRFHWzukth9rw0wrYQtyfFJ/mK0yBXcGtrq7v99tuTPUII6BAYBmzr8p+55qvv9K9ZqFsUpr9MS4fJoE4rC8sAJb1mLAIG4kKS77QUmlaqFqxcbbyPdmHfXEfYxkrfxuk3TdRiQQnhOto3PtvxPntPWr2ohQsXugULStdxxx13uG3bulakFGIw0+EiIRJYDggLg5dv688OtidHSyAuDLJwwDKAac8gzAN9xKLEoAYLwNIn4sI5uiMUFzAhwBLLC9cVfkZec39Obzy+ysJjjz3m11gwEhchutIpMEGVRQZTjAlIXLHx6L53/Hr4hHP8upZYn+Fg74tQcVLukRDHkzvIi6uAO2JLT0qb4OqEfcXxmDxg9YR9sVQLFRXivsJ4jBCiMnILDO4K7ki85K1lbbGVsL9KXKE0LDaE+xZeUzVYuRasuLCvNKtOCFGeigXG3JRKXSFiOeXAImDQlnN/rEZ2WGGS1whTyNCxpbKvlYicuXRZjGia6dcWD6oEZpEeeuihZEsIYeSyYLAQmJmpJKBLTIdZJAvYxlgw2bCZmhCb5Wm45Dq/Dq2LkC8/KZVxDa8ry0WyQPYZF1ye7OmKBbZDIS03xc0sEjQ3N7uWlhb/WghRomOa2qZtGUzATIoNelwXszTMHYlJc0lsqthgYMdTyyH0wb5wCtlExeA5mfqp8/2MTthXLAJcM9PgnDPt+ZX43OE54+tGWCE+p6HnYIRIR5UdhRCFkTvIK4QQlSKBEUIUhgRGCFEYEhghRGFIYIQQhSGBEUIUhgRGCFEYEhghRGFIYIQQhSGBEUIUhgRGCFEYEhghRGFIYIQQhSGBESecFYuvd3dffVmyJQYyEhghRGFIYIQQhVHzhFOW8Y7Mc2fPv6UjyxxpLuM6SGlpMsPKjmSps9y+VmXy7ZWPdmS4CzPtQVpWu7Scv/PmzfNF0lavXu0eeOCBZG/lzD+/2d06/yL385Xr/Rp4fVHzBDdzcoNre3+/W/z4c27JjVe4pjNHubuWrXJbd3/g2xm4CdYuD+eOH+PuXzAv2Spx1ZInk1ed3HDJhe7aWeclW85t2L7H3bf8pWSrE/ssRnxNt31nlps6aay7+dEV7le3XOVGnzbU70+7dtpePmVysuXcC1u2u4efX+dfx8disq5P9G9Oqquruzd5XRNGNM1wwyd+w425YK77eMdrx0TlJ+7Qu2+6htnXuCGjx7v9W9f6dogLKS1JQbnr5cf9MurcS307XsOZM7/nTh051ovMR2+tdaPOudgNG9vsK1CSnHvIGRPd+xt+69vOWLzM/d8Xn3b0x7kaLr7WfXn0kDu8u2tBtJtuusk1NDS4Y5/dLV++PNlbOYjGN5vGu8lnjnR/+5uX3LRJ49yEUae7T7/40q3d9o679Jyz3f7DR/0gpN1Hhz91m999P3l3afCfN6HeLfv9ZtfWXkpsXgkmLgzcRUufdcte2ezeeGevu+v733IrN7UmrUqD+XvTW7yw/dPz/+3bLJwz1TWPHe1+91ZnPmPaXTd7int63Zvur59a7ftzx75uZn19Ysf1/vEx0eRaF1x8vvvPjf/j29HftbOmuDGnD3Pr23b5dsRULm05y4sd/fD56dvasLCfhb4QlFv/5T869oXXJQYOhblIYZlVLBKsjyH1jX4bsCy6q+wIJA7fs/apjmTcR9t3dCTuNsihS7uwP87NORGxmDVr1vj1a691rYGdlx3tB7xlcuCTT73o8A38wcefJEedW7m51X14+Iib3jgu2VOCbfZzPA/TJzX49eotnUXyOH9oSSBCWAqIhllNrNnGuuI4WDvE6om1b/h9wDWF2wYWmu2nP65/0pgRfhsriL5pY9APfZezWsTApzCBiStAVgtCYi4TpPWLcMWVBoD3plUDWLVqla/GWI17FLKjvVTNALBW0nh9514vPjawgW3252Xjzj1+jRXDoE7DRMjaGiZ8djxNrMoRiyEukwlbS8MZfh23wYqBrGsVA59eDfLWsrIjQhL2xRLXT+oNbADPnVKq3YR7BBabMHBXiMuECzGPECwHi7cQN7F2aSBCYV9hnAVGnTbEr83KqQXh+VjCGJAYnPSawNSysiNgwVg/8dKbMICJN5g7gXvEdgyCg3iEC1ZCGnbcXBIGc2ghAfGXsC9bYvcnfl9PSDsfS15XUAwcek1gsDgQhXKVHSuFuEyaK5QFs0jUMlq0aFGyp1jWt+7ybhGuAmu2awED10Rm4qg6vzbXyFygLLbt2efX3bWrBOurUleI+I0YHPSawMTxkbQp60qxYLIVjeuOOXPm+PW0aZ0laYsEIWBQ4aZUE9w1cKNYQpgaB+vTLCbck3LWCe2JG9EuFAZemxtXKdZX7IZlQXA8DDiLgUuvCYzN+Fi8BHHpiTvDe5lJCmMwLMwwxdRqFikPFtStJrhr4EbhaoVxjsb6Ed4NCWE2ixmcOA4Tx3QI0tIujOd858Lm1Fmk7qAvhC08HwvPAsVwfQhSeH366cDARJUdTxBYHkzZpj10J8RApVdnkQYTiAvf8BIXMZiQwJwAzE3Qo/BisCEXqUDC3+7EcRIhBgMSGCFEQTj3/xOm29Vr2CHBAAAAAElFTkSuQmCC;" parent="1" vertex="1">
          <mxGeometry x="600" y="690.42" width="174.69" height="93.58" as="geometry" />
        </mxCell>
        <mxCell id="0KBhAS2ODoQ1BvLWssxc-10" value="" style="rounded=0;whiteSpace=wrap;html=1;fillColor=#00FF00;rotation=-90;" parent="1" vertex="1">
          <mxGeometry x="1098.17" y="340.96" width="103.35" height="379.74" as="geometry" />
        </mxCell>
        <mxCell id="0KBhAS2ODoQ1BvLWssxc-46" value="" style="edgeStyle=orthogonalEdgeStyle;rounded=0;orthogonalLoop=1;jettySize=auto;html=1;" parent="1" source="0KBhAS2ODoQ1BvLWssxc-12" target="0KBhAS2ODoQ1BvLWssxc-16" edge="1">
          <mxGeometry relative="1" as="geometry" />
        </mxCell>
        <mxCell id="0KBhAS2ODoQ1BvLWssxc-12" value="&lt;font style=&quot;font-size: 14px&quot;&gt;&lt;b&gt;docker&lt;/b&gt;&lt;/font&gt;" style="rounded=0;whiteSpace=wrap;html=1;fillColor=#FFFF00;" parent="1" vertex="1">
          <mxGeometry x="1255.57" y="517.86" width="80" height="46.43" as="geometry" />
        </mxCell>
        <mxCell id="0KBhAS2ODoQ1BvLWssxc-30" style="edgeStyle=orthogonalEdgeStyle;rounded=0;orthogonalLoop=1;jettySize=auto;html=1;entryX=1;entryY=0.5;entryDx=0;entryDy=0;" parent="1" source="0KBhAS2ODoQ1BvLWssxc-15" target="0KBhAS2ODoQ1BvLWssxc-4" edge="1">
          <mxGeometry relative="1" as="geometry" />
        </mxCell>
        <mxCell id="0KBhAS2ODoQ1BvLWssxc-36" value="" style="edgeStyle=orthogonalEdgeStyle;rounded=0;orthogonalLoop=1;jettySize=auto;html=1;" parent="1" source="0KBhAS2ODoQ1BvLWssxc-15" target="0KBhAS2ODoQ1BvLWssxc-27" edge="1">
          <mxGeometry relative="1" as="geometry" />
        </mxCell>
        <mxCell id="0KBhAS2ODoQ1BvLWssxc-15" value="&lt;font style=&quot;font-size: 14px&quot;&gt;&lt;b&gt;kubelet&lt;br&gt;（控制循环）&lt;br&gt;&lt;/b&gt;&lt;/font&gt;" style="rounded=0;whiteSpace=wrap;html=1;fillColor=#FFFF00;" parent="1" vertex="1">
          <mxGeometry x="990" y="515.11" width="90" height="52.5" as="geometry" />
        </mxCell>
        <mxCell id="0KBhAS2ODoQ1BvLWssxc-16" value="" style="shape=image;verticalLabelPosition=bottom;labelBackgroundColor=#ffffff;verticalAlign=top;aspect=fixed;imageAspect=0;image=data:image/png,iVBORw0KGgoAAAANSUhEUgAAAIoAAACMCAYAAACj3jF5AAAAAXNSR0IArs4c6QAAAARnQU1BAACxjwv8YQUAAAAJcEhZcwAAEnQAABJ0Ad5mH3gAADeMSURBVHhe7Z3Zc1/Hld8bxELsC7GSIAkuAndRK2UtliwvY7mmJrM5U1NTSSpVSaVq5j0PfnL5v5iZ5CkPyUsyU06NyzN2rLEtz1ibRUncJO4LQIAg9n0jwJzP6du/31363t8PwA/gInylS/xu9+m+vZw+fbr7dHfZQ4HZxjYKYEfwdxvbyMQ2o2yjKGwzyjaKwraOUkJQkqtBcZbxyD9l/FMCUE2rQU0R5Y4SxVssthllg1iR2uNZfLBiFpZWzNLyqnko/+3YUWaqK8tNTVW5qSjfoc9aqpZqId7lFYl7WeKV+B/IbyoLJqndWW6qKoi7zJTLtzabcbYZZZ2g1B6srprp+WUzJc/o9KIZm1k0C4sPlFHKd+wwjbVVprW+yjTVVZmW+mqzs2KHMlChKoVB5pceaNwTs8Q9b+aECZcfCBPKhysk7ub6nRpvY02laaiuNHXVFUXFvV5sM8o6sSCtfGh83nx6c9RcvTdlZhaWRXpUmF1SgRVSYfhPzi1p5XY01ZjTB3aZZ7oahWGqTKVIlzTAJMNTC+a6xHllYNLcGp7V+BqEIYgfZlgSJhqeXtBuraOp2hzZ02RO7d8l365SJtoM4bLNKGsEOgjS47JU4oU7Y2ZVuoPO5lplhiaRINWVVFSZVPiqdkWTs0tmSCp+cGLO7G6pNcf2NplDnY2mfmdFEKPFqjDInDDA9XvT5tztMTO38EDja2usFqlUbaqrdphyYTBYTOOWLm5cGPHe+JwZn100OysrzKl9LaZ3d6NImsqSd0XbjLJG3B2bM1/0T5jbwzPacg+2N5i9rXUiKXaqTiINPgfbhayYEWGUm/enRVLMm50iFQ52NkilNpu6nZUaB10YzPfl3UlzdXDSlJftMF3NNWafxNsuEgM69BDgoqfSZheXzX2J++7orDDivOgyq+ZYd5MyC+HKS8gsXxlGIZdIA55wjilLilP7d3lJK1paPF3JR9dGlElQUp8VcX+gvV6USmnpEjatICniedFdLgmDXRua0u88f3CXOSpdBgrpiHQjX96dEAk1od3SaYn3YEe96jjSk0gEQSJDsK92JDQrcfePzpmzN0ZUPzosXdxxkVxtDdUlkyxPNaOQM7K3Is+S6AooiPx98MC6UYSMRiorykTRLBfxXS6/qfTo8JN46BY+vTFqfnd9xHRId/DS4Tazv61OK/2h1FZWIRLVDpESjFwu9Y2bC/3jwnjGfPv0Hu1ecDt/Z9xUyLe/eXK36ZRujPRYBIztqW+c1Fk+gPS6J93be1/cU/0IJnzpUJupFyWXNG4UTy2jkCuGrHPS2sZnRE+YnDeD0p8zkpiV/n9pZVUrsFZ0BUYNLTKC6FJdo1pasowigm4BwGBIkb/78Jbpaas3z/W0SpdTrxWLpCkEFw/MR3quiaL6/pX7KjHq5PuMlpAsb53oMntaanJMmsYgcUACc5OUu+OzIvWGzf3JBfPiwTZz5pl2aQAbn1d96hiFzDDvMCZ9/tXBKa1ghq+MHBhKUjFUyo5ykQSSdVoiUmZKuhVGLkiY3btqzRHp52Ec6FFE/0Va6rgMVc+IJDnU0SAttVLDFyo8xySAn9CTHtL2ywuDmtZDorO8cKDV9IoUqJR0gWIqJRR1IFmMNgDyfFG6OUZlv//SXtO9q071p43gqWKUZSkkpEffyIy22un5B9qVwCDN0np5mKiqFEZxyiFhYJTp+SUzISMUKhEFFEnRLV1LW8NOVTQZBj/Xs8uclJEF0gcGyCq5MIOEYUdEDzWdv7wwoN9G+Tyxt1klTFHMF/zNIeSANJoRqQUjfnj1virELwtzd4mkYui8XjwVjEIGHkiFo/1fH5o2d4ZnVTrskeHoAVEKd4tkoK9WkR4UariwXQEw5zEuzNIn8VDQVChBiJsK/u7pbu2aUDjdVL0PhEmHVZhh0H75DrTNdTtVV0GhLlQdiahjDrwSA8z9+a0xc0mU5NeOdCgjNguDrxePBaOQAF8yKNLsQiecLXSGoP/65ZCK3frqKhHlLTrBhchVhTOglxznOUNg4+ef/Ihn5aFlGJTXi6J4wmBvHOvUeQqrZCZbfaF02m/koV8MnOJxpSESQ8b3SC/T/cOTi+bvP76pyvGLB6VrE8kFM64HjwWjkCn66nDxU7noCww9s7LG2gra/i/OD0grWjC9XU3meekimKgiDlcN4UxG4wu9yU/eCAY98xKDohwuSle0X5TX2io7SRaJKxqZB0kC5yIDIY0sHJ8PkRgyv2eZ3aVpcWnVnLszZj67NSpM0iTM3qHK+3rwSBiFL7oRCXoBYnJidjEYQdhclotSVyf6BLOe9cFaBtLB6RYA5ropXc1vL9/XOQ70h16RIugV0BFbPHM2dD4OhbzGXGxhazpXJV2rOnS2jJdHOpMkPSIuqeGiKD6M9QyTkDbKeUTK9qdn+3QJ4GtH2nXUlp7udGwpo/CpeUYkMhwcHJvT2cSpuWVlELR9RKZNTJnqAOgGhIFJmCJnBrSzuUZbNtLn5tCM9MOj5s7IrM4b0A+z1sKMJGu4YSSLMkDg5Cu7sFs4tuyCjnpG3jLDRZEjLRgm32WGQRrxoUG+d+meTuohFV8XfYVh/RqSotgyRnkgzMAQdEAY5Mb9aV0DgWmqpHtpqqnKLWi5xMAk0wsPRPeY1yEfEmKXSApmQskwowWUtdv3Z0RZrdH5AuY/YLa4omkLxVM0gVOhQsPfxfgkMIlzVN1MyoL1o09vjmi5/JuX96t0UcV+Ddh0RiFyOxxc1BVRpqrvTyyYHhmN0G92iaRgrqKMLsWTkgfCEOggXwxM6mikqqLMHBPJwfCSVdZmYY43jnZpd6OWIKE4bFF4CkSc1lZMQp8ZIOqZIC3yYzmygvQpDAJiHjQwpPavLg5qI/2Dl/epZA534cVg0xkFJmHh6oPLdkTCLChTy3tba3U+g6lti2gybMXYzDyUUYgqrePz5vPbY+YizDa5YE73tOiU9+GuBm055MTFYkPGCkNeYy6ZKNzokgQ5lyI/FCHLDGM9U0lSPGAIdLmPr41oQ8Uk4ZXedh0krAUbn9vNAN0D0+b/9Fm/GZKKZbHqtaMdOgnEsriKP63gqCQAWumBH+0HZZIZ01dFIfvmKWEOkUgrDAGl72WCzIHysu0tKDn3U57ApSishUmC6K1L7kc2EmSpYSxlgh44x4SHhTpLOcIsSFwGBdjOMDpkzmgt2DRGYW4DJmERbUr0kf3CHMekq9nTApOUawaUGYSWSkmrmLAzaxYsn5+Uruf1Y506gXR7eFqX5rHPgDo+MgG4pESfQFZaLPKx5X8FyAyXRyJMargCDJKCsDcNjbkT9DvKi0EE9i7Xh2CYxaIZZlMYBaXp/uS86iO3RNnEZuPYnmad+GHNhVEwDAKyKyUKwiCFmMU8ua9ZuxzmYC72jWtXBHOCXJzydw3RF5GWPEGCtMgPRcgyw1gmSaDAd+Le2hDlaZQBAxK5vbFadRUGAufvjKneh0Sm0WZhUxhlRkYrGOGw3oLIe/5Aq06A7ZBRDUzikFYxOLsnh+CF4LQShsgwHxNsw1OL5pboP3xXC0Zo9dEQheHo/cDDPRYR0qhXKnJk7kdqGBhk7UySGaWgSqQxyxnfOr1blzaYyf785pg5e2NU18Z0wjODWzZFmWUJ/fztcV2lfVO6CCSJq2CQXimezHpotVAkEmIbFSbB4mx6cdk8u79F13VQ1LLWYsLIZpAoIi6p4aLIkRWkT2EOUCBspnfMk1c1wppfVkOpi3fGZcCxar73QrdOO2CX60NJGYURDjOk//C7PjXmOd7dbI5Kq2d5pNBHEpn15N46hTzkJ90N9qV8m4k51mIY+WV9L4tRLaIEubeC4SwSZKnh8h5ekozvZXhZhAjCtPpbCoCGNC3D5utDMzrFT5kxxX+wo8HqkDGUtOtBfKEo8Rcp0i19IvMemZUWPBGEHJy/bW8JSp2wQ0lrlS7OLgCmMwl+2UwS/UbkLTNcHhGySARxWI9UkpRwqfQOmQTUBZNwga4n5fbM7gbzbM8uNc66LOoCNsE0ujhKxigMhZkmvtg3ocomkzrMABZikgSKdRQn58rfbAYo7J+PzSLyVjCsRfFhrGcqSYpHZpTAQ5B3inq6fgRbnWPdjTp1MTg+r2tnmGjEUTJGwfDn2qA1FkJPYG0GoyGfrkCSE3kKObqf9jVwdJBXlQzBK+ALaR2o0saiiALPKEHuLenlRYQsM0xeUfWSZITNiDIRLuoU83QQJy0y+cskKMZN6HZ3x2bN3dG5RL2VhFFQc0ZEqTwnCixmfXQ5NTvLIyMckEiycwg52p8xj+BnnEEKIZ1BgghDsUVcol6pSJClhskzSAIukpSwGV4JjyhtSsiYM+Y5dEN03yf2teia3IW+cTO/GB0yl4RRGJay7sKGp73CJCzOsYKbG+UETw4JB+fk9/C4ZkIZKjVA1CMXt/sR9U4gQZZwiKMAg3jgvFK8E57R15gncE4hZ/dKDVFPzG8d6qzXroj9R0yWst/IoSSMwmQXjNLaUG3a5VFjI0lFLG0WMQdL46GUVxdHMXDMkc0gec/IW2qYKCJkkQjisJ72Pw9SwmVGCTwE+dcUz8JOQRdUpja7qAxV5eU6B4bhlpMqG2YUNGSs1LF6Zw2H7YysLXhH3Z5EJ5MtECeP6wYQjW3DcRcRQSpJikfBKD0EeadMzxyyvkF16Q6Ellrd9cgC4tzSck5X2TCjsEeGWT42HbEnBZMBIo3wCSkMpTL/Gku6vG6mFAG5N+cV9U4gQpZJbz0zpUhK2NQogSdc3snjCVLps8AJDGU6xd/aUKWLuMyzYBcENswoWJKzVsDxDmxjsHYO8rjUxVJoX0Mewc+1MAhIZw4QRBpCziXp5UWCLDVMnjm8JKkemV4WIU9Ha53yvyKIOadQJSFErl0zCGFXwM6qcjUPQQCAkjDKinAdfVttNSaKfDQsTlyCPcUZ/Ay5FMRaJIh7U5eoVyoiZO4lNZzNUQIFwmV4JcImaaNviiSRj8qPgNDRMwJihhvJwsIuds1M+W+IUei/sAeBMVjGZuo3rJvY9Nt/I5BXJ0FiPqlYD4PkkBouihxZIoI48myfQEo4F2VqtB7P/KvzDBEU5+RHiDBOD6Ow4Mr+aswQlFGkTtfNKASek7E2OgqnC2EUw8Yoxyb24+EkBPA4FUI6g4CoZ4K0yO/lyArSpzAIKPJbCXjCrTeqtcD3DRZbqysrdF6FfdrY+TAftm5GURNHEU1IEFYcq6VP0wrNCZRYMuQVf1xjPqlQ+lTiZEyRt6S3FzmygvQFpEhG2FQvT7i8k/sVIwAhpwyqKGKESXrrwr+YJNDw0T1ZdKXHWDejYDCEfkJ301RbqYtzttcJpQbIT8cgxWI9DKIu7kfUO4EEWSp9ntJL4rw9yIdMQcwjT5sSyjkHXilUfoQIk+HyLlp/8pOeAUah27Hnxm1AojBs6h+bVQZprOZcsuSUPR+NJiob2QwC8p78co8iM1weEbJIBHFY5kiQeB3zyPBKhI29CvK/cogSKDxUfgRhXRTRcEkXB0aurMQz4sFWhV5iQ13PvYl5taSvrxGJUoFEkRiD769FihQnQSxB/leAhIMfOTL3IzVMgS4mBQWiTHhGX1NCe8J4qJIICP30ftcwqAu3YZ4q3VDXA6NMzCwpg6Alc96pQ3YyosiWIFEkSIsMW/wnUhikADLDeDyjTimhY86Z3wgjIPTTZ8cSbtzxzmFdjMKIh75reWVF+zOUH4ZVIDspURQrRUCENOqVihyZ+5EapoAUyQibEWXCM+rkIQAx5xSqJEKESfrsWJRB0r0V62IUmGRmYUmHURyXaWdji0d2wqIevKmL+xH1TiBBlkqfp/SSOO8UZHrHPPK07leMAHicPVR+BITJKJIuDq4O0uoBZ7odh3UxCooscyicjOgOx4vPxsZRKGE2aXnPyFtqmCgiZJEI4rAeXpKMcM4rxTvimaTN/8ohSeRz8iNE6KdPuoDsOrCAQXSSLUS4LkbhKIiphWXpcux57LrpKoVPCicMzyhB7i3p5UWELDNMvovxkqSGy4wy/wSI0sY8HWJOKVRJBISOPhrG7+pQiEEc0D8Z8TA3hu5J/RbFKHAYtgmcZTIkIx3M5QbG51Q/sRIFo90kCicsSZBzKTJTEbLMMAUizPB2XuSTp3C+HFIIY84bja4YFJtm6pFJNuxm62sqdJ6MHqMgo8BdnLGKxRMH6p69Oap7dgbH5tWkoIaIGEoF9A7ZCcMzSpBzSXpZJ62g/BOpNE+YPIRG/0shyQgb98Lii/Npte+OebpX6xTzdIg5p1Al4QmXh/OMujpQPlpGRQAyJxQm55bVSB5GKShRGEfPzC+bK3cnzD9fGDDvnhswn9wYUWs2Ds/j9B4s7a3Zow2TnTA88p7uTV2iXhFwBjzDcPYeu4eRFg+HwsAwflgGScB9KyVY2Mv9XX6wottj+0c4jnRJy8bRORqL6JsiSeSj8iMgdFHkw0Xf4siuh3SQLw7fYZ0Hs0huBNEviUdcGOTAFP2FO+N6ywNTupxqxH4dbBaoHK08NlyJRMlOVNQzQVogQ5zvgShk74nbX0yiGW3B9WyR5CgvTjdACSPC1ChTPNLoyRdRjs4smP/+/y6rrQZHXLErkby77yVQnJMfIUJ/mBTXoj/gB8Exrr4jjeH9y/fNrroq88KhVjUhSZUoWK2xVRNm4QQCzPk5WwMLe85Y5wgsuh4qKD2BeEQ9c2/OK+odAdWN9xd3x83PPus3P/mkT4+Z4sw2ToD82Wd3zbvn7+pRn5zgxGjMhUkg41sZSZC8ia/8TxeMJNU7eYJjNmy+PaFjTrx6qJKIESbDpMe0USZxQG6wGMjZb8y667Uu4p5gFBoIm7muDEzprnckyfMHdpkju5u0myEUhUZLoi2lI5nyteQFWpf5vpFZYZYJmx5JQ2tjtd30Lv50B7++NGg+vj6iR37qdHOo1FSXEcLII97xguXdR4u7I2WTPVJMmcemUOPiyTkFsPHl/cLxOOTcQ/7hJ4qkiwNhSwHqE/2E07G43mViThpfYImfYBQWge7LyIYjK9ANOECvu7VW0wm3qaTNRDKbORf3I+qdQJyM3oZhOMdc/NHL+82fvXbA/Pnrh8wfvdJjDnY06o78fzzbrwcRcyGC1KctePnLmbFcVoAU4BjQJRn2CZ9r3GQ+8h2hZTsstDy6xC7ESiMROjoHioLz5ZguQGQrhAg6jhQjDvbH0EKpABbsXaVCzQq8fezp2ZpGtf8IF7J+3f6MQfPo91o3OJ2Tk63QTbk6Bl2FrCUYhUxx7vvSyorZLwyyr43zvvKXA2QnLu/BL/fkfxRGjsyFkSdXuJIE1VHkB+nh3JW3T3aZ5w606nZIjr4Yn1vUSoDJGb4jhRilfXJ9WBXx87fHtFulgpzE4C9SkkVONj/9Tug+uTmi2yspKE2DTYKC34SjUd0UiYa0Y9qAOJAgSB2mD4jrrMTzmYwU0fNgGtiN8DAHZ9OxAt8nEhOrd/Zt092jk5HXJGtaZNfB+kB0MGi/lBcj3P3tdWZI/rKxj8ZT/iOBJbWJx/wNPYBd7egk6CLZnQyfcE/4V4DISzpy4YIf+kdKgy+zn5nbMdh3wpVoddId4oGfdhFCR0VQcWw1YMM6LZwz4/7x034d0lMZHDP68bVhHfohoYiPeSBaM0eB//rSkJ4fz1Hp/SNzureF9sF9gPAnelHtzkrdp0u5cMzV/3zvujDjvJ6zz2VMVCAt8aefyHdF0vXLN2HgzyUNdF18E9tiLAM5suzDK8N6Lt0V0bP65Ju0aM7WZcSB/hdHqRkEuChhbg4lQlic6e0QqfJAjdIaaqqiEoXjOilMxs5oumRKK8vLJ1qV9meAyFvS24scWZH0DiSJh2UEukaG6xjaUAFkEAWX4zc4huOYMPy3Tu3Ws1q4pu2GSAqkxs3haZ2BpCJRkLHYOyz+33p2j3lb6GE64kSq0O06aTGzuKwt/5/PD6r70e5Glbz8RmyjZNMKT8nI6JsSF8ejo1dx8QLSBUal8aED3BKm4qo3zth/83inHoPaKt+lAbhyhzncsxlAuqKocwoTeT0gQoKtwc/sbjST80tqFx1hFM6BvTE0pYf+0ioZQ5P5JJIpjrgUmaEcWdH0SUI2Lem5KMLcAPFJ5r6UiuTCJK4g4bw3Kuu1o53m21JxNVU7tFuBmdhcjz528960SoXXj3WYr0N7pMN8rbddC424bSnYSyU5t5UzRWBC4nxVWh+jQW4ShYHOiR+KP2fPc5I2V8N1t9bZ6QZJ04B0N+iIVukuM90yqnxFGORV+eZzMnDAXjWskG8mqF/yRFkgUWgcx0UvZetNT3u9NhQGCTlGQbsl4/TTiFAKjUqIsonNWBgRl6S3F4kwXjiq8BNC4ETLVF6W31q48j9Shb6fK1eQJrZL4Gz9Mr1zjwKgm6UvZt80XRSgMvcKYwF0IK6Co+Jo7XoOrnyLExVhBMKc7tkljGdv7MKX0cKl/nGzLGHp+ri+DcmF7uGkEpuqRiatjgTjIwm53IEzd0k+WdHskJXg2SwQNWWHQo4u1yZd7Im9lE+d6nds2SCdswvLeUahcFnLQSFjngRjJMomL1GiKeYt5xJ5SUfxYaxHgsQ5hBzRHRgtwPmAWWKbuRUd2ldURGLQBoEEYlaXvDJJh9kEekP48iNyzXS9kOj3iIWfena/MAQKPqLZTnFbP7tG8kC/j5R6//KQ+a3oNR9cuS8SbMq0C0MRxp5nZ8OQDh2d6YcsNpM54uBbzHQfke7zzROdon81aYPjQSqyMIgOl2MUOJ7Cpn+s4SRpVzKhmnG/7Jsg8pKO4sPYMUERUSpg5DnRF65JV8DxXMzQ0rrtuSx2qAvCBU9LoVKc6HfKMBKGulKpBOQPv/U1qEN+o+Sjx3BD6N9/cEu7Gi5/hMyRwogM3f/qnePmL7973PyVPH8pv//Ld47oWWkHpCsi7pw0fETg00haGghSjV4EHcwlid8qTSmLwE01XeYbEIVMTZcJm9sZBIv8L4ErlQLIkbkfqWGSDJL7HXKkcFk2AFLfKkmYcDt7Y1gr/GBnvd50xa0cjBq4zQsljQZAZgEK5NDEgh7z0CmFQCFRsdCMSbfiThviW8zC0tWwdKCS9WGZKs/cXXxcujD8fn1xUNPAXApXnHRIN8cwmHkUBgMouXvl4XAhpBDx6vpJkCBXKS59jwKkidENUwo5SHpgFHQW/HM+MAmikwC0utSEF5mh4vOdIkFCjlQSLZ5KZL6COZMBeRjKMYpgXoQW0dPeoGs/PIfkHSZghvmSDK/7ZDTH89HVEZ0CYNc+a1ecNsQpDKyC00+jbEKH/vKp6Beca8YoBSyLGEIaIbleONiqFzh8If5cI4vpBaL6Wa6Sq6/SrgfdhLgYbnOhNjeRkm70F6kD1YPYjuvmqB4nUPw0PrpvUP7DH/7wR3A3itewKFkU3N5We5evYxb9wz/BexYSZKlhLKXXWxzVVxJAEV4ZnNSKQzuHaWAM0stN5jo51FGvI4Z9bfXap7JGwVwLehdnqHIkB9KFyvzg6rCKWIahDF/ZjM1Wk2lhQg6QQdrMYlYxNq8H9pIGmIry+ODysOoyLGfAmNxkylwLkoeRyuHdDXoJBMohE2iUJ1MOpJEuCkZn/oWpB0ZnMA7dFso1IyMnLR8HuHqhXGic5T/4wQ9+VFFRYe4I13MgTmvdTrNHhnr087lK9NZmEhF693hhGSThHXcMOBWtGwZBqWKegpMLqXT0jGd7Wsz3Xz2gh+2qYij0jNZgBsQ+Jpv3hQFo2fcnF7Vb/cMz+/UkRCz0uHuaqQD2TtO7UAasnioDCuO9dKhV9RIYlni48oWbQfbI6IhRAUlk2p2j1xmK0wI5NhUGYeaVuO6NL5gFkdjvvLBXmbNKRl+MjFCMYWi991CYkXQ/LtCSl8xhi8SZbmX/7W//9uE33n7b3J6tNn0TS+a4iONn9zVrq6QHLSQUbVUGiLzEYT1TSTLC6vqLPIxOwusg9J1IEEQ+FYZXOBokOko64V04wmAq4JgKV/7StaGnoKs5Wrou9A5GNnQP6Df02+gpMBmBkRLoSqSDSid+4oMW3cZ1K7gjTZBgAHfSxiisprJCTTec3vK4gNSwivyrC4Om7MyZlx++8873zM69z5n6rsPmrdM9yiyq/UqB2WwmkchSah5TuheHDE/nRQFmlaEqmhFYYsL4wil1LEhm/MFf197DQcO5i7hnxPekgCzQZWPiUT46Ovqj1RUZ8ZQ3mMa2LtO7vzN3cWOsLHNIlEFqoViPAt5exL3gBX34HTwO/M7TR0OG6d0DMj4dRUFCP8HTwijLKw9VD9vR29tr9uzZYxob6gxrUAsiLtHKKdB4XnmPuCUcwrAeXu+McBleqcjTFxey6PhDhNEwvLkniaeBSeIo+5u//uuH3/3eO+beUp25PjRn2hs4nLZVNXrym2iBBQsho6vJCJsZrccz6lSQQJH5jTACQj99dixPE5OQFUZl3HK640+//32VKEzZV+6wZnCIGziETEOsec/9SAMMksIkBcKmennC5Z3crxgBCDllUEURI0zShzxj0HIKnqcNOWW8vb1dNHF7rBbDNkYIKw+sZ67aUwsAj/UxiPNK8U545GlTQjnnwCuFyo8QYTJcekxPK3OEwYwzumFu4M5QkCExosZZumeUUQ6p3hspwFjY/Gtxka7308lw6TE97QwCEBcM8UGOURjHM7eALYeO/4UsuzA2SYqEPKOvnlCOIOTlofIjFNb9jCLpAr4KUgSQRcsoseNDmbRiwgh7TQxVmAXVDihSKK6byWASD3BO8cp7hgiirzFPh5hTClUSAaGjd2GYDtDFr+Bx7mF8FRgkDPQTXRCV/yJdD/f/YYvC+ghGONhVUGgUZyZzuMeDFGdvmKiThwDEnFOokggRJunLzLx0uRgjXeibUINpdsvRUjSY/JPFJEoTerYam/F9hAQTmZQLNZ9jFDfF/ExXgxkYn9WpWzVYEXfvxwukKtM75pGndb9iBMDj7KHyIyBMRiF5I3/iODazpHazP/7wlu6SY41DZ5MKfITCxCoQM0ckcXiJYSuAPsmi5PWhaT1pmjorkOTiINnQZYaFwOxC/w1A93Ooo14U2hW140CxBYnWVCAlmd4xzzRa3FmK10dSmfstj/yff3j3PLmIebd/Yo9lEAfWXOiPWe/JKfOCEEkqPr81aj68OpwzqdxKsP7FQibbUC7cHtcdAJi0Jpc11g5MKsalAYHIdg1WLzGuuTw4pRyF8Q/3zrGtUL/rSjkFmd4xzyRt9I2WyXwOi3V0gazQMnRn1ph1KF1iEBpaEBVs/bHtkJjEX2kkHh5axpIM+ZESHLBLmPDjpAp2OG1N1brRrKulVt7tfh++S1g2kLElxEnZJYkL9//70W01TmZhkCvyoMEkU/Mg8ZMHmI/FQ8LwjgkmNkDOmMmBX7pRTcKRP/xjRaPAiYd4URPYSWC3vC5pfjDGqmZh1xO2GCBNMRb/5MaozrElNqmzSvvZzTE1Cub28zPPtJmu5lrNnI9HC6YjJZMWSU/KjO+wsoohEQVBCrGWp7WjcJ/e36JbS1G8MR/oG51ROvbBtDfWmP1tdWpc5ECXQNeAwTUVBUNgRgGoJPbpdDVXa0tEjDMrjaUcdBg5YSpAWqh4dDhsRxqkIogTkc+2DWxfsCs5sa9Z0iBd+O4mZVDig9EpPeKCiSh4VqBhwKPdzWZX3c5cvikRtV1ZtLYr+9sa1CjcB+fKd2akbNgZ8KlULA0eo/Cv9Xakhi0E4sQq/8cf39Z8RSQKwKoJIxxsKTC8YcKFRUIyRtLCzFIwCSECfron/CsCcdLWLT+xYvvF+QHddMVl29igcNwElYUlG90im7l+e3nIDIqOwN6YvuHZYJ/Mknaj2IZA98n1UfPrS/e01cNcXw5MmN9dH9HtHEgELNy4aRwj6J9/NqCVhA0KdjBs0CIN7PkZm14yt4VpnBTCgAoLOJgVqUabgykAtqZ0Rb+6OCjxDpur8k3KE4ZiRRbDq198PmBvsxCGqJXylbpR3fDv1BZ3UhnqQKdUEv1tBkgLTI19DHY1bCLDhmSnhIfZMPtcK5DObErDZqZbGl1ERwG0MAqYrQp8BDM+OBWxhlU6HMqHecgAD8xFi1Dw1z3RnwGib4oYEXHR8tjaQIECjIHePrlbT1VAmrCNkxEKovn3nttjvnO623z3uW61HmNv0keiMyCVsGf9on9c7UbOHG433z5tN2RhiYZUwSqO7RxYoiNNkSpILrocGIvDg2DO35O4vyNhSQfGT7SYZ7qazDdOdKn0YsTIPm22b7x4qE3LDinHBd4YQVGmpP1NoX/xUKsaP7Ftlx2O7POhbKFHmmBRRsPEGIpy9pRYAs5sEQY/JmnkpAmkCxKNeIsF32K/NWWBlR4Wj9zslmAUQEVhD3q0u0mn9ml9PGyaYi8qLQJtmMk5rrC1BjjJCbpkBj1ZTglD8cC0SE7SwUIlV/dTOVImkpYZVeKobEQ3G5bYuMZeHvpsGInWS6unsDi9klMZXjzYqputkEqcuE03gQQlHv2efNDpN0gJtl+g9xA/XRoinU1dtF4sAbmwERtZJBj7grCcY+MX78RHa0davCRM+pIwCueqsMGKPMGglCddkvCJdu9IKLgQXQcLPeJYC2AQdvlxKzqmnWzch/GLBfIQxkJC092S7zYpIy+jABQzmIW+GtHKPlpEOBu+aQVcXXt5YEoP2sEs0Yljh2j2eItlOMVJIalFmWK/C62EgkdSEL1q4tLqR2bspUMwBcNaug26oiHpIkgHlYsop9JRxgnHTkjo6X4oDOKjYHjiiSEOTBuRFnRB74oewsiGvhtLe8wnCef2/iB1kILES6XbOEVBrijTFnlSGArmUTfpJnYJc7ELEXrSQ15gTPQe8rxbyp3uELi4CsHRwfgwWos0oKv3JtXajvzHijsVs5qOOTX8RifDWD2VUQBaL1xO6+Gjw1IJMMrH10aEaXiGgw3k7HyT0UDQEm2C3C9P8kJOGVSKSpEEVAIPoGLoBumWFqSlOIX29v1Z6XJmlEEOC2NxUhAVw3YDlib6pAJ+crZPK/z/vH9TjXGocPYiU3Ewpn5B/uFTpKd3d4N5pbdNJRWb19mQ/tOz/do40INAWrodKBOkFRb84XEDm+SRToys6JpuSxfJfAwSGkkCgxbSTdJALbA/66Qo1vQCSCzqpxD4GmmckMb05d1xNVpvFWmC0Xcqo9CV0EdRCad7Ws2fvnrA/PErPebNk53mxP5m3fF2SloJx06ckgQh8hjy2c95MuicA68UqgRCZaug7JqEAahcKvrrxzvNf/7OEfOfvt2rz398u9f8+esHdVM6t35ML9jWRF9Lhjlii+t2Cfe95/eaHml5WiH6nfzHGKXwbbag/tvXDpj/8PYz5iUZAdJCf3Hurm7FoPCRPJn5kDjieQBcNkEXhKRkdIGyjUQEjMIwtobJPEEzAT2Sslq6YMoHSe8kVjGwivasuT9ht8BgpE73l8oo9E9wOEOtIyr6pU9urdXAMAjW5IhThopuh5kXOMe8Mgs2DA8h30EcIl4ZXrLnZmclV5vV6C5Bukw0dvQTGAStHToYGcnAdbtUAtKGQqXbSNaGMIl40NKZcKILeF4ayx+8tE/DIsoZlTHCoVJsCCrIjj5ww9n5heE+ReGj/yHxmF+hO+eh24GpWcn3BC8adLcNNRUqWVDk0SPJa1qcuCMcbjNylNEa+hM6GbtGgZdRyIxeZyqiHRGIngIfUEnsJKR/ZsjMUIwhnN1h5klCcU5JCBGCEglFqw23SCoDy3gUNjLBEJQNWOz9Ic3MUHJ8g+pNEpY0o1fQonTCS1oYf5nBpOtkVKPrOpJr6Pgef/kmW0PoZtjfQ3dHXDCCWs0LQ9q8WKt8mAbG4kgNGhjfgFF5bB5CmQhhrzQ+8kP8hKNyrCIcEKwTMCnrd+xShFFQ6NGhskAXRblw2hJKOUzstpAkGIX8UJh0ORQKe044mFb7cPG0SpstVH2EPlEGZDKWUY+THwERlcKWCHbw6RBRcs5n3KdOMnqQYSDHaaFksj6DUstQnuEmIKr6nbRO0RGkIrXS9Fk1Q8IEjOTYEsqQmHzQipFI/OXQG0T/Xal85kH+5Ysh/QYtk8pkExiFyDeYxaVSGGG8f2VIRy7QITVwR3L4Ri8wAxKa1ssMLoot+WJoTf43AsqLi65RapGu6FTk3QtxRpG+Jo1tRPRQvk+Xq5sAA5LEhBuMAGcxyYXEYDq7XkQvhUwg94R/RRBzSqFKIiAkg4DvwYCMGHr3NIm+AXeLH3mVPwzbWhqqtCKoaB6G7GSS7Z4vylCUjH4pIzMmusjHv3tL9IxDbeZ58Ue8IwHYlvqyDF3R7JEK1SIhmeNgeMlEHGngIBlaPCckHJJ4XjvWqfoFlUly+A6inopm4xcShlOTUKJJH10iDMFvlz+AdsN32WbKRB7d6Z987YDmASbdCGxoliBWpQwmVfpyLjBpdYCGB4l3QyTJ+zJyZEvxy1JGjPjCzJ2Ywqc/R3wzK8dOOXQR1nsYKrnPexHyyqDyIwgQDgejOPGNaHYi0IE8kEFoSLNrLIwikApkGKb/m59fNjekS2KE8RdfP2yZTcCE3D99elen///rH5+WQrRMwfoL39KuRT6CPQabzq3Ytpvk8UNKuIJDAtv1mZUc45BmJC5+xMvaS7zyeaNL4Pgw0sNw+d9/47DOC22UUQDfpzH8wyd9yvRMWKI6kEYXO/njlK13zw9Iuu1IjP3TlGEYia6HVnFLuJuCQEllxtLykifhOLkngIfKj1BY9zMMZlxR7GhxdIEOMIhjdCrUHSfKLCYP0+EwiQNrOLRsFLR/vTxkPpKRBQ+6B4V0Ym+LShekAwygZ6xJJbuWT1xIVs42IX4ajW5FVV8LGKNBRlLuWFPiIG3QkT78fBUPI6NbMYQlj8f3NmkaSsAjERBduNz4Q/o5jYHZbaY6AIOUZ0T3c7sZw4gwim1RnEQ0r2KSDLKBW/lkk+AvE+vKZ90DXEYLwYWBnFOR0GXIA5Ly3O1xHdqOzS7qfMVbJzp1GO26ka2Cqyz0BxgKacLUu13xLTKjRUJ1S5VuzDQv66QkE6aUxeW7E1rnlNORPTIcZoEyCBdGhFGYzEKUM+6GUWhZWoC+EgzFxk/3ZCJE6Kf3u4L1lB1SAd3gtaMdorfs0pZOvnhwf+N4p+oyDJ3DusNWwBUpw+0zkgbSiOIZOaOkFJBs0X0zpGe2FV2EUxQYAHAUB3XLijfrUIxy0oohoqPY/mrG/PijPj3wjpk9RD8fUsQiKbpoM8Nlx1KK+isUha8dbBXiaStlWpAiQ1Pz5n+9d11HYYzOaPiz8pvLJphiYO0JXbQQohJFImayqlL0AyLMVRJ/YzkqVPg5BIQuiny46FscfLtUjZzCz3oeJTYzLajf2N+gLzHfhc7J+t1botT+ySs95q3jXXoSVDFI6Cg8HB3F6MAnjrOrN4SA0E/vj8ExR6kY5KsORqqMqppqqvQcGbo3dBEWWTFGY2KPOaZiEGMUO4vISYoRiRKg6PoLCP30KbEUHfk2CkGLUho8I1juNWBIjN0NUwBM7mHiulbLN2/XA4cwnHNR8beoaANCP73f1SHdZxvrATPpzEZjqchUh7OgWy8SXU94raMouPoPajpZ4SHPGLa7ms2Dq8tBZRQ737SRSbwoowQPuklRUYaI+Jl/dW8hghC2mWPzwXoWBunTwcUHakkf+K0HEUZBL2GWkelq5lRShUrAA8GfWAKib2FsM8jWgHrjkENWo1FY16K0piESmsiIlFOgdf3E16kFFe2v72wm2cbmg2JmUIIBErYlLO4xLGbRciOIhGZYzAQbWxz09GVRhhR83T1eZHpuM8kWg3rDYAtLtYPt9bo+RW+xEUQYRSdmdDrbbgTD8If6dxXNH/dYRN/CIIx7trG1wNYZI/L5xWXdKWCXKALPdSIhjzASwnxueYWzXa05Iapt8jv+L28zx6MDxU4fMDI1r4zC3IluCS7B+lEiBoZQWF4zWaMboeRvtN5583PCNoMUj80qKnoC7J3ZLYgVHj3EBnsdRVKilJfp4hE6CncJswSdR/oXt5nk8QAzsW5vkx77LnpnKVbGPYyyw+xrrVcbSnbG099Z+D9GGraZpHjQNdD4UDa5Wje0eL9h6GUNQ9Yong1k7McqZxddCZBkFBlG7WutVS6cEEZBqpCXOC9sM8j6wDYQtrl+dG0kcvDNRouSqQxsna8OTqu9DfugrTQJCDaIBKMQMbaTe0VbxiLq9si02qk4v20GWT8oNuQHDIK1PlIlZ+uzARAvp06w/YS6YQ80+5xK0eU4eOUS8ffuadTdZhyfwAyf29K5jY3BGoQ/UEtCunln6b7e0iU0G+mvDrCvaVqPqMDanoXAUiK1A8NED5sF+j22bthd/dvMslGwOk93gxE1XQSjzI0widvYjnkjhwyxc9PdI1RKpDIKkzQHRWvmo9dEQWLfiXZBReSKNJY4nU8FKLr5Zbs8wjZVdgesd+hKMKYw2LfMvh30nud6dqndbXyrRSmQyiiAj3LvHjYuH129r12QztZmQUqDflelz3qbylMIyw/2rgHKkDNV3NB1rbwCPaoAm9K4rp/tHhzxhf0rRkmbgUxGoQ+FWV4/2mmmZpfNb7+8rxc5MvwisfHHLkYt6a78i/0T+hv3bVig5lF2jCQ5v9U2Jtuaii0n6JAknAb13qV7emQYpo3c+o6E2iwkdgrGgXTAgpuN32xgRlRyVAMnG3AyACvOZJj5Fuwz6S+5vp5LGjntgC2cm5kBH1yhP04CjTRRlhz4wx7pZRlRcloTs6c0Ro7iKAR0G8qY48Y4h46aw7wRacJdhxsxTCqEgowCyCBDuauDk3p6AJuW2CLJHlllFIkBLR6G4uJoYmQFmpXo1460q4JVivWGYuDuHWTn3WYW3HpAuXE/3+e3R3X4urq6qhuuGM5iy8rOSMpVt7PKf9gEsYTCaQvstYJJOI7snuglrMBxeDTn1OjE2ibntShGcUBssk/1jjALawm56X3pZ0koWjxHYnCWCseEs42TBcZvnOrS/bRUXtEfWw8kck4sgknZzIRRse8UgUcFJAEShQ31XKdLt8FplzREGhUHBrIpH+lCuhlKM3vL0aDohyz04Ua+jnW36MZ77Ie2AmtiFAcm4pAwd8dEuZXfMAkJtkd4VamCRiFw7htHS3C6EZufm2vz56mWGrADkgTlju6PU4u4Gh+J96hZhe8jHX7zxT3TLw2NqYdvntytBydf6h83VzlxQRRTrQnKJ1dA8kP+JyyMAzNx5Aa7HCnrrZSY62IUQlApcLeGlvSSERjGiUBaSZ8UCmeKcGLA26d2695ap5Wv+aMFwFdJ02eiS30pijSt8o3jXaZRxPkj74Iks3Qf//v9m6ZCyonTIekyKDPcOQmBIzs4apTuxR3OB5NzhBcrwDAXXT2/GS1tdlcTx7oYpVig2XPx9m9EOydz9tjMzWMWwLm4bEJnyPiHr/To2SQU+KMEyj7W8D/9pF9Pr3pDRpGckOCqmhrAGBqGUYMx6dIpG3gBJmf9DQbBAvFRMf2mliCH0iAqOYCX7HES42XR1tlRT+GUOsvERx+PWEafok+na3zUoOKvSPeCDtchSiwKazjvdMfob2yp4NgMrNK65UGKwOjofXocxiOUjJvKKBQAzMJ5YEgSRiRf9E3oHADKMF1XqbPOrCSznoyy6Poe5dIDeeMcOroSjuui62B0Ez7v5UnBpqeYwqJgOPf11P5dunuN8+GZl8mtnpaoHpFSeoSpfJTWd+7OuE5t6+mNAc1WgmwhPekGsYrnVEpOgd5q/aIU2DLWpp/lWO/XjnSI+K02n94cNT///K650Deucy8U3XqLz4XlyHVOiPxAFGi6HmxHGaKPzTCi2Fpm4Vs0Aoa1n0qaWAqhOwmfBvUkYVOV2Tj4FDO4XAqAKOZ8MVo+8y4crtfdYo/OXMsGaqazmYzCTvTW8LQ95lP6PO7dQUdhIxQHxTA85wgusNkZdqknnyjWHAP2Docfd9TrYuuTiC1lFAeOseS4dCagOLgH8dwgegWK6K46TnusUYbhHHnuYqbrYm7GDclRDrHpYCZ4QpgEhqCL4UoVO9dQrwohNL++eE/1Fk6CPCatGsbczAw7JmGmWofqdyckTZXm7ZN7dMj+JHY74JEwigMVywQUywKjUtnsk2W7SH0Vx4NWmubGWhkh2Mu7ETJMPLFEzwosh+aOCnOgKKLmMHxkhMByAUzCUJKc/fLCgB4SzEF8XJnCEZ2ltPyKg5jpcpiZZnGUbpXTGLnNgxMrn1Q8UkZxoPKHp1jsmtb5hksXzpnxsVGzv/eEqW9qNSvMK0gysROmQbrJPfQeDkvGwKqnvU6HlnqXTghM6XPoMCOgM73t5qWDbcp48EopM+5YAKnHLR4/E/1rcnZZV3aZmX4SRzphPBaMkob/8ZPfmK69hwz3ALJxHuagG2FnPl2TPRNfdBphGIbD+MeFBa2b4TjK8z3p7jiOitMPS62v8FlKktvD3j03oDrTEWESLnlqCU2uPal4rBnFgeNMOVuBwub8WZRdWiiSgRnfQmCRkCHq2Ztjog8taeUxCmFdCpSiAEgb0++YJDL0R5JwWCIKOpdFPel4IhilFEBhxviYOwhhMBiFtSdmPcFGCgEFm2PUr96bUumF8oodDsPhUhs5Pyp8ZRgFsI5CF/SZPEgimIVz9jkWQleZ16rkSslhR8zOPK5Q6RuxpxtxZyEKNVP2Twu+UowCmM7nSO/zfeNqqrlHugbuGOT4cmcVnwV8UViJB92JERv7abg3iLUZvViyvfDNok8avnKMAhhlcXUcUoDDZigCdAqumGMtBmU5DRQWczYMue019/N61ctRCXtEpBOrwk/6CMeHrySjAOZimKhjuwMXQjEJyA5J7gei+9CbR6tF2RXB4O7SgcFYn8J2RA8akpEYE3y92L1KV8OE2laZfG4tjPn/9N57epLpLh4AAAAASUVORK5CYII=;" parent="1" vertex="1">
          <mxGeometry x="1256.14" y="660" width="78.86" height="80" as="geometry" />
        </mxCell>
        <mxCell id="0KBhAS2ODoQ1BvLWssxc-17" value="&lt;b&gt;1. 创建Secret&lt;/b&gt;" style="text;html=1;align=center;verticalAlign=middle;resizable=0;points=[];autosize=1;" parent="1" vertex="1">
          <mxGeometry x="642.35" y="639.9999999999999" width="90" height="20" as="geometry" />
        </mxCell>
        <mxCell id="0KBhAS2ODoQ1BvLWssxc-19" value="&lt;b&gt;3. kubelet 感知到新Pod&lt;/b&gt;" style="text;html=1;align=center;verticalAlign=middle;resizable=0;points=[];autosize=1;" parent="1" vertex="1">
          <mxGeometry x="970" y="584.9999999999999" width="150" height="20" as="geometry" />
        </mxCell>
        <mxCell id="0KBhAS2ODoQ1BvLWssxc-20" value="&lt;b&gt;4. Kubelet通过CRI shim创建容器，&lt;br&gt;使用imagePullSecret&amp;nbsp;获取账号密码&lt;/b&gt;" style="text;html=1;align=center;verticalAlign=middle;resizable=0;points=[];autosize=1;" parent="1" vertex="1">
          <mxGeometry x="970" y="440.06999999999994" width="210" height="30" as="geometry" />
        </mxCell>
        <mxCell id="0KBhAS2ODoQ1BvLWssxc-21" value="&lt;b&gt;5.Docker使用账户密码&lt;br&gt;获取临时Token，拉取镜像&lt;/b&gt;" style="text;html=1;align=center;verticalAlign=middle;resizable=0;points=[];autosize=1;" parent="1" vertex="1">
          <mxGeometry x="1180" y="439.9999999999999" width="160" height="30" as="geometry" />
        </mxCell>
        <mxCell id="0KBhAS2ODoQ1BvLWssxc-23" value="&lt;b&gt;2. 创建Pod&lt;/b&gt;" style="text;html=1;align=center;verticalAlign=middle;resizable=0;points=[];autosize=1;" parent="1" vertex="1">
          <mxGeometry x="880" y="639.9999999999999" width="80" height="20" as="geometry" />
        </mxCell>
        <mxCell id="0KBhAS2ODoQ1BvLWssxc-40" value="" style="edgeStyle=orthogonalEdgeStyle;rounded=0;orthogonalLoop=1;jettySize=auto;html=1;" parent="1" source="0KBhAS2ODoQ1BvLWssxc-27" target="0KBhAS2ODoQ1BvLWssxc-12" edge="1">
          <mxGeometry relative="1" as="geometry" />
        </mxCell>
        <mxCell id="0KBhAS2ODoQ1BvLWssxc-27" value="&lt;font style=&quot;font-size: 14px&quot;&gt;&lt;b&gt;dockershim&lt;/b&gt;&lt;/font&gt;" style="rounded=0;whiteSpace=wrap;html=1;fillColor=#FFFF00;" parent="1" vertex="1">
          <mxGeometry x="1130" y="515.11" width="90" height="51.93" as="geometry" />
        </mxCell>
        <mxCell id="0KBhAS2ODoQ1BvLWssxc-33" value="" style="endArrow=classic;html=1;entryX=0.5;entryY=1;entryDx=0;entryDy=0;" parent="1" target="0KBhAS2ODoQ1BvLWssxc-4" edge="1">
          <mxGeometry width="50" height="50" relative="1" as="geometry">
            <mxPoint x="668.1" y="700" as="sourcePoint" />
            <mxPoint x="718.1" y="650" as="targetPoint" />
          </mxGeometry>
        </mxCell>
        <mxCell id="0KBhAS2ODoQ1BvLWssxc-35" value="" style="endArrow=classic;html=1;" parent="1" source="c4ozJWEXd_TOwCRZ8f3o-2" edge="1">
          <mxGeometry width="50" height="50" relative="1" as="geometry">
            <mxPoint x="926" y="682.21" as="sourcePoint" />
            <mxPoint x="856" y="576.0699999999999" as="targetPoint" />
          </mxGeometry>
        </mxCell>
        <mxCell id="0KBhAS2ODoQ1BvLWssxc-44" value="&lt;b&gt;pull&lt;/b&gt;" style="text;html=1;align=center;verticalAlign=middle;resizable=0;points=[];autosize=1;" parent="1" vertex="1">
          <mxGeometry x="1250" y="604.9999999999999" width="40" height="20" as="geometry" />
        </mxCell>
        <mxCell id="c4ozJWEXd_TOwCRZ8f3o-1" value="&lt;b&gt;6.Docker使用账户密码&lt;br&gt;获取临时Token，拉取镜像&lt;/b&gt;" style="text;html=1;align=center;verticalAlign=middle;resizable=0;points=[];autosize=1;" vertex="1" parent="1">
          <mxGeometry x="1180" y="439.9999999999999" width="160" height="30" as="geometry" />
        </mxCell>
        <mxCell id="c4ozJWEXd_TOwCRZ8f3o-2" value="" style="shape=image;verticalLabelPosition=bottom;labelBackgroundColor=#ffffff;verticalAlign=top;aspect=fixed;imageAspect=0;image=data:image/png,iVBORw0KGgoAAAANSUhEUgAAAMkAAACZCAYAAACFSB7yAAAAAXNSR0IArs4c6QAAAARnQU1BAACxjwv8YQUAAAAJcEhZcwAAEnQAABJ0Ad5mH3gAAEQOSURBVHhe7Z0HmFzXdd8Pdne2zPbeC4AFdtF7JQB2ACTFKoqkSMvqliVbsp3EslOcKImTL3E+5/OnL84XO7EiK7Yly6QoiTarKIIFYAFA9A4ssLvY3tvs7M6WnN9588AltMACCxAEgfsHhzvzyn33vnfqfefcM2NcIZeAwcFBSUhIkJiYmOiWqVFfXy+lpaXRX1Pjcq8RiUSE7sfHx0e3TA03DjeOqXD+OC69Zw4ONykckzg4TIEZ3/72ty/J3JoOQqGQBIPB6K9PLtw4ri9cy3E88MADMkP/N753797oJgcHh4l4+umnPXNrRmycxAQS9MsM23E+YuLidX+iHXc5mBET652nfy/U9keJQGysfmIk5mO4tsONgRlKO8YkGbNWyNzP/BuJT8v1CPo85K+6X+Y+9keSWjL/shglISNfZj/4zyV99gqJhQmvIRjchuoyeWT1fElLurbXdrix4GmSuIDExicpg0zux3ef2CkNb/5QBjvqZXxsLLp1asBwcQlBiYGxpiHNN1aXy9fuWiVPrFskX759hSytKJT0YGJ078XB1RLi4iReP7GXMb3o4HA+foV64tNyJK18kaQUVxlhB/NmSnxqtn7VQ+2VyrjExCdKctEcSS1VKV2xRDLmrJak3DLPLIsNSEJmoW5fLMmFcyRWmcQjWW07Pt7mt5ctWyapqam27WIozEyV5PiAvHfqrByqb5HNi2bLkvICiVMTqiwnXRaU5MnisnyZX5wrSXoc29NVa7B9nm7j/LgYZ2o5XBk+YBKV+miTnIW3S/6KeyUumG6MEZuYLInZJVK47tOSmFXkaYfEFMldslkqtn7DmCF95hLJX/kpCSRnSGJOqRRv/KwkF8zW45LVPAuc0yKJiYmyceNGeeKJJyQ3N9e2XQxjY+PSGx6W021dsq+uRQaHR2ROQbYkJ8TLo2sWSGl2uhRlpslDq+bLUmWetMQEWTe3TDZUlZvGSYjTvirjODhcCc5RUGx8UPKWbTUN0bL7eempeV9Nq1HpP3tE+huOyshgX/TIKMbHJNR6Wpp2PC3tB7ehYCRBmSh7wSYZ6myUjsNvSm/tAT2v144FQ0NDsn//fnnzzTelq6vLtl0K8C9y04LmiHcPhOUWZYS+wSHZc6ZRth+rk9cPn1b/o1xm52dJUUaqvLjvhOysaZC6jh4ZioxGW3FwmB7OMckMJcDUsoUy1NUsw32dMj46YtthFD4+ofsY198wzthIRI+FENUMU98jPjVLRsID3nY774PXMLzuP378uLz22mvS13ce002CWDWVqgqz5QublsndC2fLa4drZKeaXskJAelSZgkrAwyNjEhXKCzZKUlqcsUZQ0W0P6OjY6aJPrKXQA43Dc4xyVhkWNr2vqS+RblpE8ysiwLiN8b5gAxx6kfCIfVNmAhI1DZSJC4pTTnQu0wgEJCysjJZvny5JCdP0b6Clhu7+uSVA6fkBdUOxxrbpXNgUPqHIpKqplWcOuTxalJlBBOks3/QmAbLLiEQJ4nKMAUZKRKvzO/gcCUw6kVrRAa6pOv4u9KqjJJVtU4CKVnmf+B4Q/SiBGmzYAFml2aophiW0cgQp9v5Y6MRGR0elIHGE5KkfgnMgemFr+NrFILMVq9eLffee69kZWXZuRfDUGREOvpCUq9mE8wSGo6Y+bRbTSmc8izVHjmpQXXmC9W5b5C2vgEZUQ2CyTWvKFeK1V8Z0+uOnacFHRwuB7FVVVXfaWltk7GhkAw0n5JwR4MSfUSS82eq2dUuOYvukGBehYzq/oS0XIlPz5Xh3nYZU4YY7mlT86xJGWGGMcpge736L0ckLjndzgnr7766AzLYVieRUJ8xCyEF7e3tUlNTYz7KxYCmwJRqUgbxAdHDKLXt3bKoNF9KstLlSEObvHOiXv2VQelTRx/fBNPrNfVV2pXJWntDxjwODpeLxx9/3AtL2X/wkBJ6nJpcHtHGBuLNRMIEY7rXpn+ZoFICNR8l6q94x4TtBSPH4KewD+3j/dbjx73jOY8337Fq/sTFxcnwsGoi82UuDEwpfAw0ykRgUsWphvL2izFAOHoM23Dwwaiaf94HbeK8E4fLxzPPPCMztmzZMn7kyJHoJgcHh4n47ne/KzH4CQ4ODpOjuLh4wstEBweHSeGYxMFhCjgmcXCYAo5JHBymwPSZZMYMe9lo+SfMw14mSPIiavji4BoxXg7LNK7h4HA1MG0m4c07ISyJ2aUWHn+5KNn0lBSufST6a3Lwpj8hs0hSSxdM6xoODlcD02YSNEFm1TpJn7VUZkypEX4VvKS0lOGLgDD7tLKFkrvkbguJcXD4OBA7f9GS7/SJlzNiOSBJqfp3lgSSM2VkoFsCqVkSzJ8lwZxSS8cdCfdLfHKGJBfNteSsuMRUGR8ZtrfshLaogSSJuaUSRMuoFiCJi3Z4Ax9IyZTk4ipJSM+VtJnLLIq4r3a/heknF1ZKkvbBz1kBKbqNawQJkelpkwDBkjJukQEcF8ytsPyVhPQ8GQn1kIAisSRepafLqlWrpKOjQ0ZGPvy23sHhckBYSkxsQrLkLL5Lyrd8TXKXbZWiWx63BCoSpyC+vKVbJGveBonX77nL75Hs+RssNssifROTTSPwlxz2mPgkZapsyVlwmyVtwXhld37JiwZOyZA8Pd8YUffhj3jhLrHKDHOMOQmqJCiyYNUDyqTppkm8tOI4Y0ILttTr4KNkz9/kMXBehRRveEJSiqttO2EvZD5+7Wtfk8LCQr2G82Ucrgyx8xcv+85AfI4RbE/NHtUMQRloOiGJGQUS7mpWU+cuad39T9Jzeq9K614pWHmf9JzabYGQaAqCIDsPv6m/z1oU8OjQgGqHA/abuC6yFpH8pPomZhdL87vPSqi5RlJK5tl+kruGe1otUHKwvc6CIotveUJa970sw72txjjxqoGa9LzBtloZVe1D/grJYOTcD/d2mIaDUUkCiwwNWkIXzLJr164pgygdHC4G0yRjLOwwPqbE129BiJhTFtquJg/EFwimSb5K9tLbft20SERNp9HhsBfMOE4IvP4d8wIYZ6hWwCQqveOLMuu+b5mERxthPgVUUxDoGBnosbB6zgNoovTKlTLz3m9aOjAajLB8bVwP4Rp89LsyhgVX6jlxSSlSuP7TMvOeb0jJbZ8zc8wz0TytMTAwIM8995ytAevgcCVAyMbYIsIWrRsNJfejZZUgYQjyRrqOvyOte16Uprefkfpffl8iqj2MgJXobV0tZQ4QExdnywfhL5Cb0nH4DRlVbaEHRHNPZphZBeOgIZSy9ZwEyV9xn2mRjgO/lM4jb1lbgPYJyY+BAaJWE9mPQTXZsuauk64T70m7njMaDnk7FWiQtLQ02bBhgyQlqanmzC2HKwCLl8TAHDACxIgDTtotZtCImk3hzgYzYdAmOMaR/i4Z7u/U/cN2bFhNpISMPJPsON8zYtXPUP+B3JOh7hZz/o0Btc3eM/t0X4xNG6M5WGqIvBVImNRhnHjazpizRom+Hw6xfg20nLbZM3wT3wdiOng0MigjqpW8hfPi7Vi0E0xP5uNjjz0mBQUFjkkcrgjQT2x19bzvNDc1WiJVuKvRtMdwb5tlKoZazqgvskcSWGaoYomX1htIMj/EGKGz0Yg3pahK/Y0i9Ssapa/+kGkKZsjQBGgTmImErCFtN618sc12DTQdNx8j3Nmk1zmtDni5BHPLpA9fQ48NNZ3ymFevE+nrkPRZy1SDVMq4aiQWpoAhmHWDSWBA2qHfo8rAJHWRr7Jv3z776+AwXVjS1YMPPTy+b/8Bs+nNFwHMOqn1D5Fj5yCp/WlZCBcNgLmFs49k98/1FoWICDNmaA3zJ9iGKacaheOYnbJ2lUPNnNLjMaHQFkwf+2Yf2sy/Bu9I0B4Ygqbt9Dxy6O26XIN+67Fs1x9mcmFq4ZNMldjl4HAxWNKVWzDbweHCgEmm/cbdweFmgWMSB4cp4JjEwWEKOCZxcJgCjkkcHKaAYxIFaw6zAj3lG2KuoFQDZ9IWH/cS88ZBDHFRNzsyk5PkK3eskN/Zuta+TxeE6RdmpEp5ToYkBi6vdJ7D9QneszlNougPD8vze07IszuPyIB+ny5YlnVOYbbVSGGZVYdPPlAi03qZyNvupNwKy9/wYqcSLNSd8BPefBMST84JgY+8ge9vOGYxWyRd8Sae0HkCGwmrD7XV2Zv3YH6FvaknsDLc2ShDve12bkpKilRXV1uoSVNT00VD3ynuQwWs0FDEFtNmudO6jm7pCYX1d1AyggRjqmkViLWlUVmlnt9I/qASNUulnmrt0n2jkpeWIsVZqXKwvtW2U3exuihX9tY22ar1LMpNO3yvaemy5VTLczNk5axi00bvnqyX9t6QNPX0KeNFJDMlUUoy0ySi1x3Xf6dbu2Vg6MIMWaF9Sk70Mj7pIxW7Tul1hrVvualBWyicMnfdOraznb0yrH3MSUuWkqw0ghskPZig4x6SM21ddozD9MDLRFswu7m5Obrp0kBFK4qNUhGL8JHEzEIrOsqK8rFJKZK7+E4ZDQ8IGYjksXcff8eOJYGL4qVZ8zdaUCRZhzAEMVgkWxHYmD5ruUX5svA2ITAkTn3hC1+wMJNTp05dlEny05PloZXzZW1lifQODsnymYWSrczR0jMgS8oK5Z5lcyRVCY81iTdWV0hTd78xRLYS3PKZRVZCjsW3YSDa+sodK20hbgizIjdTHl+3SN4+Xi8LSvOswhZxMqtml0iuHsvq9ynadll2hjJJojR09crQyKgxLKbXlsWVUqCM1RcekvuWVem1+6Srf/CCaxTfuXCWbNZzYLiO/pBsXTrHVs0fGxuXR1YtsApeVBameFFzT78yXESevGWx9jtFwsMReUz7OqzXP9vZY4uIO0wPxG5Ni0nIECSJCqKu/+VfW1AkhE4SVLj9rK0kb0lXwyRdLTXNQZot6Dy63dJyCYlHc1AJq2j9p6Xu1e9ZoCLBjcW3PO6F2Q95IfDYhceOHZPW1taLxmL50n5/fbP84sApq2VC+bi23gErD0fNkufePybHmzqUgEaMsFp0HwxFvROk8/66FjO/0EIwwPEmT9ugIVp7++WIap+69m6pUY3DbwhxYWm+HD7bahLd92neOlZrUnxQCRamylUp/8r+k3JGz4VpylRTNOjx7J8M1IEcUe30EzUBT7d2SrxqbVbNh6HnFubIj985aNdjXPSNCmArZhXJrlMNsq+2WQJxMaYBTzR3nltM3OHyYUlX0e+XDQILCW/HVPICI6l0FbCwelJ2Z93/u1K86UlL3DoXHDkcMhOL3BI/GJEARmqZlOix5Xd/VRnmUW23x4IlAQlUb7zxhlXIolLWVKDKVV17jxGYb9oQPo/AhvhZoR4zh3omNUp8ESVyr4bJhyU6DPTOiTpZVlGoWiPV6qHsPt1k7VeoWfXbm9fI5zctky1L5kiKmnlMbSHlsWFpi5Xs+dBshmoWznli/WL53IalygB5egV6Nq5MnSNfum25fOX2FfJrG5YYo/oID49Y/xjH9uO1VqMFTVGuJuXnNi6Vz2p7s/IyjcnRTDA22hAGrCrMVdOx0zSZw5Vh+o47T98idj8gLqJ1Sbqi+m7Xsbel49DrltKrnGDH20wa59jHOw9mi4R6pP3ga9K292Vpevsncvr5/2H5LSAYDNqiDjNnzrQEmKkAoeIfQLUUGuUyg1FCYZ9PwEhXtMCFzJ2wMuT7yhTUP1leUWQESzEhSjvcs3SumU2v7D8lh1SDQOyA/9MmDjwfH/gGXf1hefNorTy/94T8cMcBeXHfSSuUSl3Hl/Q7v19WTcM2H7Tnzz7CtBQx6lX/ok1Nu18eqrHqX2iUF/YeN0ZFAMDEVPhCk+Er8dvhyjAtJiGEHX+BNF77rVrBC5MfMa1huSY9reeSriwvRI+1xC49BsbBBOMcju069o6kFFWbZiKPxWo2jnnEkpGRIVu2bLEKWZfCJEzDJgYC5nusnVMiJ9S0wnGFWCZjCoge8wf7HibiO9uQ3jAFUrpIHfhTLZ3nGADCRSt1D4ZNy0RGxtQM9JgT0y41KV7y1E9hIgHfgXZsMkFNMSYR+KDNYES247/gO7Tqub4zT6Gi8/vL79qObr3WmNWoh2EYW7+ek6aOekSvf6C+Rd49eVb2nGmitpKNy+HKMC2fBBsdDeBVutJz+T06bD5J39nDVhGLVVGYneo49IbNfMEAHDvYyYIRIat+NRruMx+k++ROS9RKLV+ozDJXEjPztS2v4hYESXWso0eP2hJBU/kkSH0Il8+hhlazz9EakFqPEnWrOvETq17Nyssypx2fBEldkp0mI0r0VMhiXEhnHGO/HZxx2slMCVpFrWPqszQogeMfQPAteix0XZGTaSZWSDUDphAMUJyVJgtL8tSnyLa28CMupMlgdnwq669pRg9oFBiWdqrUVGM2C8aCgahpjzmGubWhqkxWzi6W5u5+qyfpMD1Y0tV0poBt6dEYlh6dWOkKxlHDQzWFVbryE6KiSVe2VKliXB1mliNiG2bXuXNYOsg/Bk0VUa2jf0mgQoOwfhYMYgtXXAAQzIMr58l2NTVOKiH59jxkyBSqdtik/UTCRGsg7WMxCRXsgeD4AKZ4AdLbJ1avmpbeAz0HhmMMmHD+frQRbbJ9WBmO7WggnGn/OjAb2m1CVz4EIgDYRfsT+8s1vQiBONMUo7pPeyKLywvUgS8yk62tNySVBVmyVf2ln+06atPWDtPDDZd0lZOaLFsXV8rrR8+YiXOzgPclheqH3L5glmqzYZvypWQ3U9yYXZh3DtPDDcckwfiASXkkL77EzQb8IMxG3gOhMTHzJk4EOFw+brjMRHwKHNmbkUEA/gv+yonmDnuP4xjk6sBbnM7BwWFSfLA4nYODw6Swxemi3x0cHCYBs4mOSRwcpoBjEgeHKeCYxMFhCth7kv0HD1vYekpxlYyNDNnC2MReEV+VOXeNxVfZMqRqnw201Oj+bomNT7DEK5YopXgPofHUMyGUJCGjQBIzC5QFY+2N/EDTSYvfSlAniPyQ3NxcCzPp6+uLdsPB4frEufckrNZevOmzkjZzqZV3SymdHw0TCUjZnV+2kHcSrTKr1kvesq0SCKZLclGVJVTFxCdK5pzVkrf8XguTpxQDtUMydFscjKfHxadSJGiGJCQkyPr16+XRRx81RnFw+CTAmATJn5Rdahqk58w+advzopVBMChxt+z6JwtUbN39vGTMXG6l10imIhyeqldUoSIei+pVGbNXSHxypoXJk2DV/N7PbLV64rCYc+bt/rZt26SzM9q+g8N1DmOSwdYzUvvKX1rk7uwH/5kUrntUEtLzdU80zF3NLsyo4b4ONbvUvArES1wwQ3IW3ynlm78mRXq8V9swxjTOsDIbOSJWmYqErGiAHklTJ0+elNdff136+/ttm4PD9Y6o4z5uoez1234gHQe3SXLhHMs1tz2qAYhmZbEHKuSSqhsJdZuv0Xtmv2qZf5TGHf+g5/4/6T971NqJT802U4tIYCuRQHSvaiRezJA8tWbNGlvgwcHhkwDP3MoskqzqDUrgvRJSx5yqViPKCMBCsxOSbAEHsg67T71veezko6N5PKbR4/Vc/rIdhmIxhzj1UVLLFnk+if4LBAKyYsUK2bx5s2RmZlr7Dg7XOyzpqvFsreWAZFatlaScMuk8st0qXOG4F6x+0MpPoxkGmk9ajUK0BdWu+IvTzqwY2mO4u9VjlNr9VpOdxSJUFUl/4zHLGQGYWSzocPr06YuufOLgcD3Akq62bNkyfvTYMWMI1tACXmrtsGmEhV/6M2l460fmoONfWKFQNb8s8crOCegZ0apVJFiNjZh5xaIQfuIVqbuWeKVaKU59GhKp8E8ulmXo4HA94Lvf/a7EMC3rZQIOmWbgA4MYlLApEIrDTulqW9Qh6oR/cE6/ncM+Py/dz2O3c4ZCxiC2Xc+FOcLhsGMQh08EiouLfcd9csAIdb/4K8tHd3C4WTEFk4za4g445Q4ONysuyiQODg6OSRwcpoRjEgeHKTBtJmG6mMBImwKe4a0ldV1C+2ZT0oFEiUtMsWlrH0xRUwKCd0SE1VxPoJ/0z+Hjx7SZJH32Spn/638iWfM2XHcENhEwQYb2teyOL8i8z/0XK/cAIEBWui/a8LhUPvRtKb398/bu53oB/UzMLon+cvg4Ma1lTsHo8IDFaoWaa6wWCe9UrgWIQC7f8huSUjhHMqvXS3x6rkT6O72XnJNi3N7zDLbVWm5MX/0hq4kCWJuY7/FpWaZluk/s5GWOxCWlKgOVSMmtvyZpZQutKNHIQLetiH+tUHrb51jh26IcHD4+TLs+SVJehSSpFI5Tc4vwel4cEv2bXrFEEjMKLBCS9YCTqF6lktwr9FNghJ2QVSiJ+rFp5XGRgBIkwZS0l5w/y8JZRkK9KtXjJKjXIeSFfTAhLznZllG5Uprf+amEu5skq/oWq6rFusSppQts2no8MmxagmtSQ8UW6B6JSM6CWz/EJF6E8pgE82caY3SfeM+YJG3mEine8FnpOrpD+uoOythoxPoKo8SnZkly0Vyrx5KYVWTj4H0SZieVvNLsHuSbiccSr7SbPnOZMmKOVfMi7IfYOMzAQEqGaQwirmmLSGu0MoIga95GwYi1JLb0PEtdsApjyrDsp3DSOMuk6n4bh2L+/PlSVFRkoT+XUqbCYWpMuz6JJVDpgyOkHmKBQHjIRRsek5zFd0jh+s/YJ6NylcV+BVKyLAmLMJfYQJKUbHzK8lcgoHzdz3EkbFE9iypYomZPkkpyEryQ8KkqzblWvLYDQY4ODcpge52F+JMRSW4LjERtk2DeTLsO27Lnb1K/6fKjjQnmxN8K6TXI0OyrPWCBnxB+9oLbPMbUdrO1rzmL7rQAUMaP5oGpuT7MgK9j2zc9JYVrHtZzUlWbrTUNCEPlLLrDxo5/V7DyU2a68t0L64nTv7GWmuD/tjHe8rgxG/cuY84qK3fhg9X37733XklNTbVn5HB1MK3F6UJKnANNJ6IvGT9YzJkwlZ6a91Vyh5Sw9qs5dtikPMc1v/OsdB1/V3rrDtjv1NJ5klpSbUGQrCrfceQtq35FUR80SfHGJ03qE1DZ8MbfSTC3/FdsdIgQYiM92A+XuRroqdlj0cxVj/87ZfIHlEkXWAYmxYYyq9ZJ57EdllTWuONpJfTblRGKrRwejENfGWfnsbctLAeMjQ5bwhpJaG37XzHtllJQaUTfuucF6T61W+/BLmNwNAz3kOhqBAExc71n9po2JDkuoPdzqLvVEt5atM3RsFcNDOzYsUO2b98uvb2q3a7i/biZMf3F6fQBeKvCn/cg9LfVLFHGGwkTAxYxooe4CtY+IpUP/4FVs0L7YE75yVmYKGnlS8xMgzFohzD73CV3S8XWr0vZXV82xoNQcK6TcsukfOtvmubAHIIA/fiwq4Hh3nZpUqY+/vf/XgY7G5RRHpLCtaoJgqlGpKQtk2zGX47FLsKcGlKTj/g134zz7w8r6eMzEeg50HDMGILakphMaIYKHQup05ilmJRmMto91o/eSz4A5ml46+9V49wicx/7I8lShqU/Pvbv3y/vvfeexcY5XB1c9cXp9JF6xME3CEQ/qH2ImtwTJDDVrHCkldrNTIlTbYDjnZCe40lglbYAKUy4fuueF6X53WflzEt/oSbPaWsT/6Plvecs2QuCw163yQOFH52MyYSZMh3Q53El1lBrrZlapB+z6AXXwNQjlaBl9z9Jk2oSYtuouzKi+9BqMWpOnouQDiR6DUYZ2CKitV2YgTFEVGNSwKhl53NydtsPbDwEi9qxehwCxouy9gDzDGlfzm77G2OY7IW3qcBR7RMFPsny5cutOpjD1QG0MC0mwcxhahVGsBLVaoqAsWHSfEdkZChkphcOr0n/aB2Toe5m80+w2fkdl5BihMQsWcfht/TvEWMCiLtLCZFjIUy0DeYHK7lAZDZbxeosnV5xIDRXmOJAet24YLqX7KVmnJ/D4plKKXYuxMvKMITym4+kY7FS2kqA2PkQJY4xbfBhnPhR+CT0ob/hqDJgtmlK61eo2/oQaq2xSYg0Nc1IbUYr4lPgXKNFcLAnYrC91mbcYGaYhbaIqOa+gVDradsXSM6yfjFlTYEj/DPrR+Nxm22L9H2wVsCmTZvsk5ycHN3icDUwrdmtbFX3lpWoxAohMQ3LjM1wb5s9eAibyGFKu42E+sy+B8xuzVDC7Dz8hlW4QrImF8622SAcdRztnCV3mS9D4haEy8ISnIdpYjNpyghepazacxJavxhDcH1m13CW8W+YxYKAmfXKmL3c9jMLR+lsCJPJB2bKYAyYmbRlrkFCGY4/n2BeufUfHwTfAiahDWaluAdMOHD8UEejDDSfsiljGIRrhTsarG9MNXuVvT6YQmYc1L1nFhCGhgFilBGsFr4CJokNxNt10Bb4gTAHhVqZDSTJrXXPS3YffWA/19XVSX19vRU9crhyTLvSFZI5hkpXUfg2tBGrfkdKm22OptHvJsGVEDkHk8yOV6LOqlqvvsrDUvOzPzXzypvF+rTUqwlDNiMmGefbNaKmCmCbn/w1Ed7MEBEAugstovvpA+aP3w7g+mg5NBxai78+/Pct+EzMKAGOPVexiz4po/tvw8cYp/bLu06cZXHadt1mPpmZXjru6Jgnwq6hjOBfn+v4msSLBuCtu3fPvEKrRA/ofYz2y9NQH7RpuUHaDxjEVQu4OvjYi/gk5ZZL3vKtnoZQKRsgBbjHm7mBaSAsB4ePEx97ER+c0MbtP1YHfe+5/Hkcd+xzxyAO1ws+VibBHEGLDKgT2t9wzF4M+rM7Dg7XCz5WJnFw+CTAMYmDwxRwTOLgMAVivKlbhxsBSLw4fZ4uVevqgaWvnCa5gZA2NiYLIhHJ0QfrYoCvDuxdnwupvnEAk2wJhSTPLfx31cCKo9fsZWLRyIhUqZQbVKbknXRAOfRAfLy0x8ZKsj7c+cPDEtRtsGyNdqwvJkbm6PHxui1dP8cCAZmpv+t133H9XqbtFSoxJOi+fj12v7Y1pG3P0N+Z2t6t4bC8kpRk7VzMoNyox3GNRP10aF9ytU2uwbt92n87MVHC2i7SedXQkPxC2+Q6k4E25uk40vX6XJN2arSvmEAFen619j+i50LCjJ2+cQ7jzNL9w7rvhB7fpv3gXmXqNkCsAG3sSUiwvhTq2Mv1Q7+buYZ+aH+59u82Hc9ebfuofrq0/aPaHu06TA/X9GVipT7U3+ztlV/v77cH/tDAgNw9OIhTJIuUsAi04KGv1Qf9WT2mVB/6I3rMN/Scx/Q32z6lUvJJ/Zusx32hr0/y9RiI90t6zFI9j/Oxx1fr93/R3S2les2pyOMpbe/L2tY92vZXtZ0leu7jui1XCf3r+hvpDCMu0T5+WvuTpN8nA9dJ0WO/1dNj57CqMmNkO0zLGBAEjP3L2i7MxPFs+w39DWNx7Ca9J2CtEvs3dftd+jtWz2H8C/RYmPgr2t8SHVuKbv+8fp+rDIXQgXkRODAi9xVG5544XBmuqU+C1vh+aqq8pdL5pEo4pB8PdIf+5vNKMCh/m5IiG5RQE/Vhi+7brtvRHHUqLfmgbZbpfoh1p0rWl/UczrtXiTxVz0FqvqPn/EDbQZJPFcEE0SK9OadV+7db20TCQ3DI8XwlRswXiPl1PeZCUhmizNLrF+gHzfa2tvNnGRlG+PQXPJOcbON8VbXRSt2GBoGR+P2aftj3E+23T9aHtV//Oy1N3tTtL+gYQ3pttCna5zltC01JfxEep/XYw6o9TuuYD+n3N3XfMf09oH1xuDJM+w7OVOL5Q5XW/6mzU/6jfm6NSsCLAYbA3IL4fEKA2G9RqfknHR3yX/XzbW0TkwniInSvWx8yhN6jf0f1XDqMZIbA/kCPpQ+c36v7aR/06t8fKjOGLoFARvTYAf3wl2vwl771618IF/NloTIIWgliRTpjNv3r6Nj5oAm5cqMy2V/qddFKf6rbn0DraV+z9bNYj/mXes6/7eoyIQCQ8miGs0rY9J1xTmRq+g9TMu6XtS9nlPgRLEu1Ldr5V9oeJiD3iHtl59MO5+h3xuH0yJVj2kzSpg8Gqf89JYr/q5/9KtGmwrmHpg/RB1IRYtql5/9Q23t2Qi6EHR891j/XZxwImuMhyu+mp8sPYAo9Fs0AUT6qbWLOfHClyUGbPmF6HoAHCBT/A7NovTJKizIAmgmChRn+Ojp2Pmd0O4A439Vx/E/tD1rnPmUWmKtT22rQY57Wsf0fPf6/6f4f6fmd2g6SHv8KhsFkmmjO+X3jL9oJxu3Sc9AWf6Pn/5W29WfRtugXjMYYMA8drh6mzSQ8NIjmlEo3nFOcxIsB8wWnkwfJIxzU4/kN+D8mDsS0WQmrWwmBfXwgfI5FovId5tinZgTXpy0YxmcatABtIV3xWYqV+KZiEto0ia3fuQ6ajr6yHRMGIsYXeF+J3+87Wgvpz9j50HdQqhoGrcO5zToGzDfawrTkHJjX7y/9h/EwPdcoE+KMY66hkemz34+JmoV7cEqvSz9gBMbsj90YSbcz+UB/s1XjoMUQGg5Xhmmvu3W5wKHmYSJ1IUoIoUm/1+oH25nZHGZs8EHwEU7qNogPYoTYYEiYh98ndB8zOMuUGFbpp1LPhaggGAiJ4yHK97QtCO1iYC99OqvX7NBzIFwYvlG3QYyztE/0A/ufNi8EtEhY92OK4W+wXB9aEQZB+tMeJupK7e9CPQYmQSOxH0bEhGL8aFSuQ78YB/cI5vfBeczkrdHjmUyo0LY4vkePpR38PoQD9yZDmYTzp7oHDhfGtJOupgNMCUiMB45JgJmFlIQQkXa+iQCxAZJdOZ5f7OFYGI3vMAIzPpzjb4MQfEnPtqASCMw40YSaDPSDa2DG+SxAG2zDXPtjtf2fVwZ5SR1nrnsxcH6SnsP16S/H++cwfn/2DfhaFdAH7oF/PziHsdEP7tdEbcIZjB2zjO/+dfyxcx3OpS/+9qnugcOF8bEnXV2vgJhXqDbAbENyv6RMgk/hcPPhY0+6ul7BTcEf2abM8RM1mfAvHG5eTGtxuhsdmEIwBrY/fg4zRw43J6a/OJ2Dw02Cq744nYPDjYZpL07n4HAz4bphEtbFYo2py4FVqEpItnWtHBw+Klw3TMKi2azieDmo2PoNqXzo9yUxoxC9GN3q4HB1cd0wSe7SzbYG7+WABabrt/21LTMq47xKc3C4+ph2WIpfoCatfKHV52BZTpboZJFoiJ31cKlaxVq31CNh/d1U6gDaWr3FVrGK41nIOlWPp4CNaYOxEYmnslNfp8SpKUWZBtbCZd1dGRvX3V4EbVr5YqtkxRKhLKDNgtQsLE0tEc6jDynaB3/pUJZApYYIbdFvfrPGl63rW7bIan9QRYp+s2zpqJ5Dn7kOdUTiUzLteK8Mwrjk5ubKqlWrrMwB04RuKv3GxBVUuqISValVcKK4jnKIER+lFFKKqqTolsdsMWqqRRXd8hklznlWQq1o/Wes8hXMQJWn7AW3Wg6x5RGzVm/0O3+tslNeuZVmAxBxwbpHjKhhSNblhSFyl95txXNok9IHecvukbK7f0OPy7SCO5SAs1XmlUEpyANTsvh28cbPWn9ZgJo6I6xBDCjDxoLUcYlByVt+j2RWrpLYQKLE63EJep6f7lxaWiqPPvqozJs3z1I8HW5cTEuTsMhz5pw1Vp6t7tXvSbi9TkJtZ6ymX6EywUDTcek4uE2GupqMUSAuGR21eoPN7/3Uan6wmjzSnFofw90tStDrpb/xqHQefN1KsKEZWJm9r/6w/m6xBaMhXhiIxbQpnpOkGgmipz1WaQ8E0yVFGbLr2HZp3/8LK00Ao6EBchbeblWjqIHCqvTplSuFilMwJRqpSU03rkURIiumExmW3MV3ymBno1Wi6j2z31abVFUSvQtiWmTfvn1Wo9BpkhsT09YkmFqUW6BGiK2WDuEosaFhWPQ6MtBjq52zD6ILBDOUs2LsN6ut2/HngPbgt6dBvLa8/WirWfd9U2bd/3tSctvnzHRDYxj0GC8E8MOAucJdzdaOaSUFNUZgaDRXxZbfNM3h90/tMVsx3laO13P6avdZgRwY9fQLf24MRLWt2Q/8nmkdfyatvb1dXn31VfvLsjMONy6mxSQQGKXNIBrKMFg5ACt7EHeuBoiVJ9Dt2PI41sYcUUaYhLaNuGGyidO5mEuUkmt+72dW5Mf3Ry4Gz1ybyIS4OUMyPMCawyesQhV1Dete/kvVDgeUOZRZ/H4pPE0yZAxEn86+/jfSquewP3vhreemqXNycuSOO+6Q/Px8Z27d4JgWk1ASjUpL1AnEGaagDIVoICqkcHJBpRUBTdD9OOnt+39pxUJhLI5RivOIcQLRU6SGdvhgNpnfYZpnSM2cTpPo1DyxWifKSOabKFOpajGTjtLOONUQuF/HxGqEqNk0opoNU4v+wkQjaob5xYDO1SmcUOcDUBuEyQQW9UZjWn3H3g7d4zFTQUGB3HnnnVJZWSmxLgDyhkZsRUXFdzAZLgsqqfEJQm21kmp11ssk3N1s1ZwG289acRkqROFIU05hqEfNHzVJmOVi5XivII1YeTjMGkA9RHwdmA7GooITvgi5hlSBglCpJOVVj1JJjlRXTYW/YfUR9R/VtiipxnkwMkxE2TbOGWiuMaZLzpspyUVzbOaNbeTTwzBD6hdRzs4HDjpaJoMa87llNraOQ9usDYAP0t3dLQcPHpSBgQFPgznccNiwYcMV5JMoEfmVmoDZ9VEJfq4SlNKN2fqqAfgN0ZoZox/MMw5AUgPbz1t3pLISHBJeN3qzXvgzJunVH8HX4HyKdvrvD/V48zHOEar3m/a8n/hN455JSL/wa/S3V80XLfBBu+fgj081Ct/NxFQt5QMTi08kouNWhnFMcmPCJV05OEwBl3Tl4HAJcEzi4DAFHJM4OEwBxyQODlPAMYmDwxRwTDJNxMfFSmpigv2NYUp5muB9zJW28UkFY77cscfFxOh9j5fEQJzExlybe+aYZJqYV5Qr/+Ezd8jG6gpJjJ9+WEogNkZWzCyStODUaynfaGDMy3XsKUr0l8oouWnJ8gcPbJTPrl8saUmJ0a0fLRyTTBM1bV3y5y+/K++fbpThyPQDHJGkdy+aLVnJLIx6cyFTx7xlcaVkJCdeMpN0DQzK97a9Ly/sOy4DQ97L648a1+xlYkJmgSTnz7Y38NyOGXEB6T97TCIDnRIbH7Rkp5j4JHsrP9jZIKODfZZwxRtvoo5DLWcsvZcI34Hmk5KUXWqxWLxF5014X/0h+xujKjgtLU1Wr14t27dvnzJkpLIgWx9WooyNjZv6HtW/J1s6JTIyKkvKC6Spu0+yU4L2EHlAte3dUpCRKkWZqZKgBH68uUPa+0KSFB+Qyvws6ewflEY9J1aPL9TjklVK1rR2SkYwUYoz04gFMBPrWGO7nVNVmCNPrF8kL+0/IWc7eiUyOioH6lpMO3E+1+J+nVampO1w5MMxZhOxclaxjOlY41U7xeqH9tr7BrTvMTK3MNvGAC2ebuu2PmOyzMrLNCIlrIdrnmntkjM6xpHRDweJAvpBn0uy0iQrNajCYUQauvqsX7TFNQDtNOr21p4ByUpJ0jGkWHscQ//26/gK0lNkcXm+bF5UKc/vPS5tvSFtJ6T3t8cEx0ztV1CvxfNs7OyV5p5+M28rcjMkmBCQ5u5+qevosXYRMFVF2RIaHrFrjI6NyYH6FhnS/qUkxGu/cuy67ON59YaGJD89WbJ1DIDrjHCO9ov7y7E+7GXitcqDCObNlML1j0rBqgeMaMnvyJq/Ue98jDLInHOEnD5rmSVmEb+Vt3SzFG14QnKW3C0Fax6UnMV3St6KeyzzsHD9pyUQTJO4YLrue0jSyhcp48VbsOHy5cvlqaeesiBEP0nqQlhWXiiPr10oq2YXS0AfzkMr58nCkjxJTUqQ+1dUy5O3LDaJl6w3+75lVWoexVoYCsSyZckcqcjJtG2Jeu6yikLZUFUmSfow0vT8OxbMMiLkQS0pK7CbzzAf1HZnK0PRtWFlRsYeGRmzhzuEVtIdOanJqmEqjXFLs9Pl0TULzz3UC2Hrkkp5Yt1CJbI4Y8j7V1QpkQaN2TfNqyBKSBaV5cu9S+dYH2dr3zarJE/Q42HWB1fMs3HF6jOZDNzLspx0uWfpXGMYCAsCTFKmgEHuUo3IGMuyM+Q+PSZfGaG6KEceWTVfVikDQ6QPrqw2JqMvjN0XTLQVUYLnN4zg+xsLivPkU8urrL/cL85bqs+Me822OBUGtIf5dafebxjs9vkzZXGpCmXuux63dk6p3Vv+rtMPz6aqKFc+vXqBmbqMmXN5JrHnrUN3zRenGxnolqa3n5HeM3stuJEwemKiek7vld7a/ZYQ1fTOs5YyS/wX+R29ui/UUmMBjmGSuFTbwEgzZsRK39kj0nVsh/Sc3CWZ1eslLjFZhoeHZefOnfLcc89JU1OTEfRUaFaJ94/vH5e3T9SbZCxULYGDCPFuO3xGdhyvk4NnW+SESiEeKFKyRiVuz2D4HHP3DA7JrppGWViar5I0IMX64IqyUmW3bkPSvqia4v0zTXK4odWk+MzcTBkIR+RIY5tJwFOqbfapJEPS0ebjSuxcY/uxOnnmvUMqLROlPCfDrnUh0BXGsONEnbx+5Ixpq9LsNBUARfb7oErXHcfrjdnmKvHiTzWr1ttb2yRP6zUwX/rDwzI0Mrm2QhN9RgXKrtMN8u7JsyqtW+Wto2dMoCxVYnx5/0mT4K8cOGn3AwYBXaFBeVm3HTzbatqlJCvdNFxNS5f0D0XsvtK3uo5uk+SH9Ti0zc6aBnnu/aOyQIVWgjJEh963U6rl6TMMNRGDeg//cc8x2VfbLMeaOmzcpcrQEP4Lqqm4tz/ffVTy1KfJSUPYjKv26pcX953Qe1Ynrx6skWHV4lHePIcrWpyurKxMvvrVr8q3vvUt+eY3v2n53lOBAMKxUZKuPMICEH1W9TqZ88gf2sonZXd92SQW4Hgih3n6FjmsTIM5Ri47Ubxld35Zj/+KpJRUy2h4wEw5gIn14osvWubgpQC1DGGMKwMMRSImjWJjvT70hMIm5boHwkpop80cst4zhg+GYWq/Qc0CHh6SFSmKCdGqDwLz4F6VrH+oDufX7lxlUsyXWN698DQM3/17gzN72/wK+frdq+0c+jA4HFHpGJD7VbJ+/a7V8lub15g0RFPRWxgYTTSqfYAR3zxaa0SfmRxULTjX2kHCo7XCSlTHm9tN081Xab1VtWKTMn+/MgoEye/funvNuWswBi5Cv/DBPK2I8egxDx/uI9u4FwinMmPqGTKojADx+8dHHy+jtnvIdl/LotVw5n9n6zr5vXvWyRdvXe7Rg/7HuX4bE8Fvnotd19rRLXoOgg6mePKWJfINvY9oMTQP/eGQAf07pNpsUPuGoIBpz2c+rj1tJiG8/uc//7nZbHyOHj0a3XNheDeFT3SDAp+CXPLeuoPSsus5adv3SnSPwh9w9LudPjYiEULihwa8BKq3fiT1234gTe8+a4xEZG5mZqZs3bpVkpOTvRs8Bewa+h8aAKmIRB0d9a5rN13/QqTcVH5PBrbDaEhEVHqxaqO9qjlGlHCZkUGivaFS94W9J6RF7WuICtAahM3DY6bLB8S9v67ZpOCzO4/IX732vhxvaldpNyZvqXb56a4j8lPd/trhGgnD4HoOPfX+wjDKCPrwYfL+8JBJZqTyD3cckB/pB1+LftWp35KaFK8MPWCStlc1AASO9nx212HvGodqjPFomL4mKcPASNxb8zN0jFwPnwHfJqhMi+l6WjUhJ+lue3znw5ha+x6n5io+HAjExZjZhnZ5Xu/Vq3rtS8EkzRvTch8Rbozjh9sPyD+8c0j6og6/z1D0H2aB0SZ7vtNmklAoJC0tLdLQ0CCNjY3S19cX3TM5LAGKRKuJSVdkAPIL6TwSkRHVBllV64wJ2EdeCuHsdp6eT5JUJNSrptkB245mgTH4PhLu17ZH7cEtXrxY7r33XsnLy7skJkFz4Lxjl0OoJ5o7jfBgCqTT+U8YWxdCYDNOKtKdNiAgCLsCCarXxdkGdIEH1qVmFw48hBUmxF4bgPgwIRYU55ofkq77wVvHau062O2DemxItQgMwoQCEwgQeUNXr5ly1kcFTIEzPRFdqgH3nmk2icp+2uIv7eSovxJSgtmj+/dpv41g8RG0XzALZqVdQ68HEcGCu9UEqtb7lKsmG/cM85I2MQ0xuTLVUa9S/wQhY0yt59EuTARThHUcXBvC7FPmRfsy4YHvhJbiebGPYxBWK2cVWV9oj/sGI6KFeU5MirCN8TMOX5OgDbgPPeqgw6iz87Ksj/7YeRYwBH2jT1PhmlW6YvBkJ5IA5SVdKfeqX4KfMaA+B5mHzICxGANZioP6IaGKY0jw4m9EfZpwZ4MlQPU3HLUMSJYOYikg8lJG1TQb1b9oORZnOHDggPkoFwP2LjMpOLs8pGfeOyxnO3rMNuVG1rX32M2dyCdLKwpUM2Qa8eD04dgzY8JDx8zBZIDRsLGNGAZVQOj5XAcJvP14rZzt7JNutdV5UGfauo15ZhdkKTGn2PQyM1M8UJxufBGIHDv/YtOeSEUIG8bwAXE39fQZYTGTRx/SgwlqBg6Yg8zsGT4KPtLD6mDD6E3d/ecYbyK4B8eU8CFE7ht+11H1e2B+Zp/QQPOV2Tnz3ZP15jvAcF39YdWeA9YmBEwfGUtIhRCzhTje5bnpNsvEtREaeenJkq99w6/iGGa9mMBg4gFmpQ/ZKlRgPvwbzERmu0wA6DUQHgiSs8qEaCdMSsbLs6G/YR0n96ld78P5JtZEXNNKV6TcTpp0RXJUTKyXXGVboEYvyclTAvzPU4uWIKV/YQg7h4QobPvoNkwxvjPDlZCQYD7JVI77Z9YsNAf7mXcPm4RGwiNdMIfQDqaC9fdEecPUL+aRD46HADDJgJkg2g/O1T82DmbA7Bz9PaoaEMkIATEupjnjMTmQ4toWDxpwTrw+YK5t0lWvAVFcCPSX9s5/6IwF8weThr5gAvL9Dx/cKL84UGPONpL51zYukdq2HpuOxky5ELgOxzM2mJB7jBBkfHzoK/eCvsKcPEFfYrOf79wfGmDiiPYQSj4TcT8801O1ih7D+d5MmKdBGAOgSU9DjWm7sXq+d78Zrz9O/uKbeO0h+LzjMQv5j75aXy4Al3SlYJqVOfPndh+z2aqbBTDgrfMq7F0MGg2gEbep/d7U1W8M7uCYxMDLLoDkRFrdLEDy854BxmA2DunebU7+sGOQCbCXidHvNy2wXfncTAwCMMuYDMAxJ8KASQbMTccgv4qbnkkcHKaCYxIHhykQg9p1cHCYHCxhe001iU3bxifaKu/+lK/DRw+cdGazCOzjPcGVgOlVf6r3SkFbvDciyoH+XY+wKXpu4LVCbGKKFK55ROY99Z8lKb8iutXhowbvdZaWF8gfP36XRTtPF1AKL/xIOCPK+EpBRAH5JP/2kdstbOd6BGFO1+yNO2Ct3nBXo0X2hjubxFsX+PoH0o7QE2K7/BeEnyTwKpQ33MSV1bZ5kbbTAQKVKWPeLfEilEiBKwEv8YgKPlDfbG/hr9XMGi9tkwIBi7AA/kvgyXBN37jzhp28EdYH5u07jGKVplKybLFtQuP92C6ifAmb56FQlYqV5UnICjWfsnV+YTYqX9EW51FkZ7i/w+qUxASStL153lt93d5/9si5cnEZGRlSXV1tYSsnTpyI9uziQHJWFmRZDsP243UWLEh4BLFKRAazv7o4Vzr6Q5YIRBwSEbO85eW9AyEWmBO8sCS0glCMeXo8fwmnIFIWSe+/Te4LD1uoOG+FJ+NFQkjIdyGeCUlMmArX4DxyNjiPN9iYQ/XRpCuSkohKJtbpaGOb9ZP9BGISSEi0MoRTrRqCaWECMBEKhLTTN65FeAfjIuzklqpyCznZVdNg42D6mP4T2kK0AfFshPM0dnlR0ZOBPhIiA9Nxrw7pmAnGJHZtvo6P/cRYMTWPmci1AMlaHMM1uJ/0lfi38twMydF7g9nGex+m9Q83tFk7xOTBkLwXOtrUblPd3JMHVlRbZukpfZZcezJc0/ckZCISsMhq8IVrHrbV4/FRErOLpPSOL0j6zGWSt/I+3feQ5C3bIhmVq4ypUssWGeNQX4RqVPEp2ZY3Unr7542ZqFlSuPZhW7SbBKzMuWv0s84CIrPnb7I8ExiH8AdKuBEdvGbNmmivLgyIBiIkPomwceKHWo144uXWeTOVUPMtfIKcBdJveXhlyjyEsWPHErD38Kp5ZkYQm7R+bpnFZ0GcaytLZHFpvj2otXNK5LG1C40ACQ58cEWVMdWFzGCu88XblssabUMvL7fNqzDGxL7fvHi25aFwDY67f/lcCwiE0CBWwuX9nBSO2aDEvmpWiUfY+qHvnEc/eRvPeXSD8ZEbQtgITAQzE+NlHz0GP6dCGeSepXNMGzBmzCg/WHMywBgwAWH+D+iYIXDuOZHJT65fZElqXJc+375gpiVH0XcCKrkG94j+cg9hCrI7uR5BlyRpIchgLszM1ZXFFjC5anaJCQZCgDqMiVrlzoWzrW3a4x5OhmvGJOR7hNvrLfUWKf8BtGNKVJ1Ht8uQmmDth163Fd6pmkVFq8YdPzat03N6j6XxZlatsfwRNAiapePwG9Jbe9Dap9YiZemoptV7ep+Fz5PhSJov8UWtra3y2muvye7du6PXvjDQEHfow3lqwxJLJiLMHWlNVClSZ06BMqs+aLRMnTIQWgPC2qWS6dDZNoviRZIRkIc0uxAgvLdP1ptE23mqQXacqFfzjsXFJ39gbCYXhJD39/R4EpkgIqJ39TZaUtXb+nnjaK0c0etzewk+JGkMqe9rJ2KWSGoikBCmQHPwqe/osc+P3z5oZhCJYu2qJRkH4fRnWrvtL8GDtFmjWiwuLkYW636kPRrhJb1fxKfNylerIXq982EvMlU7nWzp+JC24XjGQVtcgyQytAWMSFrxszsPW9j//tpm0xpoT6J8k/V58Ww4nsQrIriJppilDEt6wn41NUkV8JOu0Lgc+4uDp4yRHlpZfcHndI3fk+jouQMfAsGJQ7p5zKQ/tUR8BHPKrcrV7Id+X7XNF63QJ8cMNJ60mojUYcyYvdJMMko3qN7VY/ItGWvW/b9racAEVVJaAelOOP8777wjNTVT5yhgPiwozTNphz3vd5s/RMImJwZMxRNdSkZinx5DRPCAMhKqHaZE0mLmoHEuBNqF6DkHk41MxHY1f2BSUoe/uWWt/PbmNcaAPERt1qKNOZ4HTRhJIFr4iNASpD/biUYm74QoV8B1bAjRccCch+pbjbiINF5UWmCZhggApDoZiN++f6MlXjFGyJdTo6cb/DZJ901PSpS7VXt8Q49/MrqSCcld7GccJG+R+PTo6gXniNHam9iggp9kCFpAp56PqecfU5KZZklov3vPOvn8rcssdx6tAvOkqCZAcKGB0CL4XtwPmOJzKui4h6Rmo0ERFoB2Mb0wzaoKc81qQJudj2vMJBdA9G7jYFo5uCiodIX2IOWX2iDkmFAOISEjTyLqg6BNMOGa3n7aajaODPVbXknr3pekYfvfS/1r35eGN//OapRgbpGMtXHjRpkzZ070ChcG2WokJx1VabxRzRJyuHm4SHjCt/FHkEDcUoiW9FH8A0wmNAzOPuoeaQmzMD7se+xiJBwPy4dPBBAuTjWOJA+f1FJSd3+i0hNNA2Pwj7+0l6KmFAGK2P7cNW+v7TJG8cPGJwNCo039lVb9IPHRiAfqmm3cmEuL1Kx5fs9x0wr4MNGzTGhAfIzRB9vQDEh3JP0Pd+yXv31rn/k74CUdB2MgeYwASuv/BQENeCOxfxOOXTaz0EwqEs5eP3zGiB1hBlMjpLin3DuSx2o7uu15IEReO3za7uPfbt8nP37noG3DtGKcpDBzj37wxh67j5N17ZoxCbVCcMDxI9AcTAdTFNRSdEmYUmIfj5BYFTbJb0lWaBi0y2CvVczFN+F4ivZwzkDTSXPWBzsarO3RcMg0CjkmMJR9rA1Kzc0wJlm3bp0lZU0FHjzS6Jd6g5E09yyZK7mpZDrKOYf89vmzjBC46eScoOZZXAEmwEbHySbhidxsiBaCxmxhO0zAwxke8ZzT8wkHAue6zPrwwdSDiRhHnPpymSmJlh+B6fDeqbOmudBI9HsiICJmcbK1T/QB3wNCYzUVHF7yQfhNu+TZ0xeuA7HB/AgGzDBSh+ki2zB/MNNYRYbcFCQ/SVtIYnwUhAL992fRsP9JDcZ8QsPRPgSNv0RWJPeCa8D03AfuJ23QF9rg2lyDsXEs94Lrw0CMCf8PDc5kymE1dblfjJnzWKkGZvD75Y+PceG7kAT2qppcrC2AoJuMga/ZFDArm6Src05iVbiz0SrxMiuF/0GFKjQB1W1JsPKTs1gAgmliZrJYCCKkTDGk51Loh7ZgPKrrZi/YZItH9KrfQuVf8kyYMaNWfEysPoT+TmWWiBXc6enpkZMnT0pnZ2e0ZxcHD+asShh7uPpAeID2YJTQMceejuah8ABghv5wxB4KiT6YTmfaPB+GB0aCExIMv4HZIi/xaEQler8eM2QSeiowS+Y71TALtjsJXjxbTBSWM0LL+cCpZTZtfkm+JT75SWIwIG0wHkLlvdmoPiMSUgZoA/OFHuHg0l8StegjGogkNbQP/gz3Bm3Tqecw81auAiJdtShJTeczrQ9WYVysplGRMhbnZkQdcPrIDCIJVPSBZYYwuWAyJk/oM/cXhjuh/gznck9pC03NJMm6OWUmjPANEWZoPWbuyki6UtphfDARz+tdFTATk9TOx7VNutIHaolX0cKcgCQpm6pVYrfv+oDMYY0mZ2EHwxB+shaIS0y12u2UvcYMQwOxnFDukrvl1M//uzHZxOvAZF4VLJJ5YuzlENeBYS4VPATfr0D6pilhbKwuN9v3+6+/b9IOIqXvzPwgvX0p55s7OJm+iYXUh9ggQIbLFz8BayowBful21bInzz3pkl1pKJ/DaSjjS36G9B3rjvRvIOZIDYYAhuc/tINttGDief4jEu77AcQHfs4jjaQ7nSddiy5SRvjPJKgLsT4XBcm9xfcAN45Y9aGd39IuPISqPjNI+AZcq7l3CtIo96kz4KpdMwsTKyqohxbz+svXt1pkxZ+fwHt81wA/afdybSHj09kPgl+SFJuuTLFXRLpUw2hDBCflm2FQ60Ou5pqHxVgAnK7V1eWmHmARiDUHKK7VuBdxEOr5sn/+sVO0043OxAMmHl3zJ9pGod1AJgGZgaMd0K+kz5dPPPMM/L/AZdEn9R+jmTQAAAAAElFTkSuQmCC;" vertex="1" parent="1">
          <mxGeometry x="827" y="674" width="144.52" height="110" as="geometry" />
        </mxCell>
      </root>
    </mxGraphModel>
  </diagram>
</mxfile>
